%TF.GenerationSoftware,KiCad,Pcbnew,8.0.5*%
%TF.CreationDate,2024-11-24T23:39:13-05:00*%
%TF.ProjectId,imd_latch_cdr_f24,696d645f-6c61-4746-9368-5f6364725f66,rev?*%
%TF.SameCoordinates,Original*%
%TF.FileFunction,Legend,Top*%
%TF.FilePolarity,Positive*%
%FSLAX46Y46*%
G04 Gerber Fmt 4.6, Leading zero omitted, Abs format (unit mm)*
G04 Created by KiCad (PCBNEW 8.0.5) date 2024-11-24 23:39:13*
%MOMM*%
%LPD*%
G01*
G04 APERTURE LIST*
%ADD10C,0.100000*%
%ADD11C,0.254000*%
%ADD12C,0.150000*%
%ADD13C,0.127000*%
%ADD14C,0.120000*%
%ADD15C,0.152400*%
G04 APERTURE END LIST*
D10*
X130381809Y-121452475D02*
X130381809Y-120452475D01*
X130857999Y-121452475D02*
X130857999Y-120452475D01*
X130857999Y-120452475D02*
X131191332Y-121166760D01*
X131191332Y-121166760D02*
X131524665Y-120452475D01*
X131524665Y-120452475D02*
X131524665Y-121452475D01*
X132000856Y-121452475D02*
X132000856Y-120452475D01*
X132000856Y-120452475D02*
X132238951Y-120452475D01*
X132238951Y-120452475D02*
X132381808Y-120500094D01*
X132381808Y-120500094D02*
X132477046Y-120595332D01*
X132477046Y-120595332D02*
X132524665Y-120690570D01*
X132524665Y-120690570D02*
X132572284Y-120881046D01*
X132572284Y-120881046D02*
X132572284Y-121023903D01*
X132572284Y-121023903D02*
X132524665Y-121214379D01*
X132524665Y-121214379D02*
X132477046Y-121309617D01*
X132477046Y-121309617D02*
X132381808Y-121404856D01*
X132381808Y-121404856D02*
X132238951Y-121452475D01*
X132238951Y-121452475D02*
X132000856Y-121452475D01*
X134238951Y-121452475D02*
X133762761Y-121452475D01*
X133762761Y-121452475D02*
X133762761Y-120452475D01*
X135000856Y-121452475D02*
X135000856Y-120928665D01*
X135000856Y-120928665D02*
X134953237Y-120833427D01*
X134953237Y-120833427D02*
X134857999Y-120785808D01*
X134857999Y-120785808D02*
X134667523Y-120785808D01*
X134667523Y-120785808D02*
X134572285Y-120833427D01*
X135000856Y-121404856D02*
X134905618Y-121452475D01*
X134905618Y-121452475D02*
X134667523Y-121452475D01*
X134667523Y-121452475D02*
X134572285Y-121404856D01*
X134572285Y-121404856D02*
X134524666Y-121309617D01*
X134524666Y-121309617D02*
X134524666Y-121214379D01*
X134524666Y-121214379D02*
X134572285Y-121119141D01*
X134572285Y-121119141D02*
X134667523Y-121071522D01*
X134667523Y-121071522D02*
X134905618Y-121071522D01*
X134905618Y-121071522D02*
X135000856Y-121023903D01*
X135334190Y-120785808D02*
X135715142Y-120785808D01*
X135477047Y-120452475D02*
X135477047Y-121309617D01*
X135477047Y-121309617D02*
X135524666Y-121404856D01*
X135524666Y-121404856D02*
X135619904Y-121452475D01*
X135619904Y-121452475D02*
X135715142Y-121452475D01*
X136477047Y-121404856D02*
X136381809Y-121452475D01*
X136381809Y-121452475D02*
X136191333Y-121452475D01*
X136191333Y-121452475D02*
X136096095Y-121404856D01*
X136096095Y-121404856D02*
X136048476Y-121357236D01*
X136048476Y-121357236D02*
X136000857Y-121261998D01*
X136000857Y-121261998D02*
X136000857Y-120976284D01*
X136000857Y-120976284D02*
X136048476Y-120881046D01*
X136048476Y-120881046D02*
X136096095Y-120833427D01*
X136096095Y-120833427D02*
X136191333Y-120785808D01*
X136191333Y-120785808D02*
X136381809Y-120785808D01*
X136381809Y-120785808D02*
X136477047Y-120833427D01*
X136905619Y-121452475D02*
X136905619Y-120452475D01*
X137334190Y-121452475D02*
X137334190Y-120928665D01*
X137334190Y-120928665D02*
X137286571Y-120833427D01*
X137286571Y-120833427D02*
X137191333Y-120785808D01*
X137191333Y-120785808D02*
X137048476Y-120785808D01*
X137048476Y-120785808D02*
X136953238Y-120833427D01*
X136953238Y-120833427D02*
X136905619Y-120881046D01*
X127167523Y-122062419D02*
X127167523Y-122776704D01*
X127167523Y-122776704D02*
X127119904Y-122919561D01*
X127119904Y-122919561D02*
X127024666Y-123014800D01*
X127024666Y-123014800D02*
X126881809Y-123062419D01*
X126881809Y-123062419D02*
X126786571Y-123062419D01*
X127643714Y-123062419D02*
X127643714Y-122395752D01*
X127643714Y-122062419D02*
X127596095Y-122110038D01*
X127596095Y-122110038D02*
X127643714Y-122157657D01*
X127643714Y-122157657D02*
X127691333Y-122110038D01*
X127691333Y-122110038D02*
X127643714Y-122062419D01*
X127643714Y-122062419D02*
X127643714Y-122157657D01*
X128548475Y-123062419D02*
X128548475Y-122538609D01*
X128548475Y-122538609D02*
X128500856Y-122443371D01*
X128500856Y-122443371D02*
X128405618Y-122395752D01*
X128405618Y-122395752D02*
X128215142Y-122395752D01*
X128215142Y-122395752D02*
X128119904Y-122443371D01*
X128548475Y-123014800D02*
X128453237Y-123062419D01*
X128453237Y-123062419D02*
X128215142Y-123062419D01*
X128215142Y-123062419D02*
X128119904Y-123014800D01*
X128119904Y-123014800D02*
X128072285Y-122919561D01*
X128072285Y-122919561D02*
X128072285Y-122824323D01*
X128072285Y-122824323D02*
X128119904Y-122729085D01*
X128119904Y-122729085D02*
X128215142Y-122681466D01*
X128215142Y-122681466D02*
X128453237Y-122681466D01*
X128453237Y-122681466D02*
X128548475Y-122633847D01*
X128929428Y-123062419D02*
X129453237Y-122395752D01*
X128929428Y-122395752D02*
X129453237Y-123062419D01*
X129834190Y-123062419D02*
X129834190Y-122395752D01*
X129834190Y-122062419D02*
X129786571Y-122110038D01*
X129786571Y-122110038D02*
X129834190Y-122157657D01*
X129834190Y-122157657D02*
X129881809Y-122110038D01*
X129881809Y-122110038D02*
X129834190Y-122062419D01*
X129834190Y-122062419D02*
X129834190Y-122157657D01*
X130310380Y-122395752D02*
X130310380Y-123062419D01*
X130310380Y-122490990D02*
X130357999Y-122443371D01*
X130357999Y-122443371D02*
X130453237Y-122395752D01*
X130453237Y-122395752D02*
X130596094Y-122395752D01*
X130596094Y-122395752D02*
X130691332Y-122443371D01*
X130691332Y-122443371D02*
X130738951Y-122538609D01*
X130738951Y-122538609D02*
X130738951Y-123062419D01*
X131643713Y-122395752D02*
X131643713Y-123205276D01*
X131643713Y-123205276D02*
X131596094Y-123300514D01*
X131596094Y-123300514D02*
X131548475Y-123348133D01*
X131548475Y-123348133D02*
X131453237Y-123395752D01*
X131453237Y-123395752D02*
X131310380Y-123395752D01*
X131310380Y-123395752D02*
X131215142Y-123348133D01*
X131643713Y-123014800D02*
X131548475Y-123062419D01*
X131548475Y-123062419D02*
X131357999Y-123062419D01*
X131357999Y-123062419D02*
X131262761Y-123014800D01*
X131262761Y-123014800D02*
X131215142Y-122967180D01*
X131215142Y-122967180D02*
X131167523Y-122871942D01*
X131167523Y-122871942D02*
X131167523Y-122586228D01*
X131167523Y-122586228D02*
X131215142Y-122490990D01*
X131215142Y-122490990D02*
X131262761Y-122443371D01*
X131262761Y-122443371D02*
X131357999Y-122395752D01*
X131357999Y-122395752D02*
X131548475Y-122395752D01*
X131548475Y-122395752D02*
X131643713Y-122443371D01*
X132786571Y-122062419D02*
X133024666Y-123062419D01*
X133024666Y-123062419D02*
X133215142Y-122348133D01*
X133215142Y-122348133D02*
X133405618Y-123062419D01*
X133405618Y-123062419D02*
X133643714Y-122062419D01*
X134453237Y-123062419D02*
X134453237Y-122538609D01*
X134453237Y-122538609D02*
X134405618Y-122443371D01*
X134405618Y-122443371D02*
X134310380Y-122395752D01*
X134310380Y-122395752D02*
X134119904Y-122395752D01*
X134119904Y-122395752D02*
X134024666Y-122443371D01*
X134453237Y-123014800D02*
X134357999Y-123062419D01*
X134357999Y-123062419D02*
X134119904Y-123062419D01*
X134119904Y-123062419D02*
X134024666Y-123014800D01*
X134024666Y-123014800D02*
X133977047Y-122919561D01*
X133977047Y-122919561D02*
X133977047Y-122824323D01*
X133977047Y-122824323D02*
X134024666Y-122729085D01*
X134024666Y-122729085D02*
X134119904Y-122681466D01*
X134119904Y-122681466D02*
X134357999Y-122681466D01*
X134357999Y-122681466D02*
X134453237Y-122633847D01*
X134929428Y-122395752D02*
X134929428Y-123062419D01*
X134929428Y-122490990D02*
X134977047Y-122443371D01*
X134977047Y-122443371D02*
X135072285Y-122395752D01*
X135072285Y-122395752D02*
X135215142Y-122395752D01*
X135215142Y-122395752D02*
X135310380Y-122443371D01*
X135310380Y-122443371D02*
X135357999Y-122538609D01*
X135357999Y-122538609D02*
X135357999Y-123062419D01*
X136262761Y-122395752D02*
X136262761Y-123205276D01*
X136262761Y-123205276D02*
X136215142Y-123300514D01*
X136215142Y-123300514D02*
X136167523Y-123348133D01*
X136167523Y-123348133D02*
X136072285Y-123395752D01*
X136072285Y-123395752D02*
X135929428Y-123395752D01*
X135929428Y-123395752D02*
X135834190Y-123348133D01*
X136262761Y-123014800D02*
X136167523Y-123062419D01*
X136167523Y-123062419D02*
X135977047Y-123062419D01*
X135977047Y-123062419D02*
X135881809Y-123014800D01*
X135881809Y-123014800D02*
X135834190Y-122967180D01*
X135834190Y-122967180D02*
X135786571Y-122871942D01*
X135786571Y-122871942D02*
X135786571Y-122586228D01*
X135786571Y-122586228D02*
X135834190Y-122490990D01*
X135834190Y-122490990D02*
X135881809Y-122443371D01*
X135881809Y-122443371D02*
X135977047Y-122395752D01*
X135977047Y-122395752D02*
X136167523Y-122395752D01*
X136167523Y-122395752D02*
X136262761Y-122443371D01*
X137453238Y-122157657D02*
X137500857Y-122110038D01*
X137500857Y-122110038D02*
X137596095Y-122062419D01*
X137596095Y-122062419D02*
X137834190Y-122062419D01*
X137834190Y-122062419D02*
X137929428Y-122110038D01*
X137929428Y-122110038D02*
X137977047Y-122157657D01*
X137977047Y-122157657D02*
X138024666Y-122252895D01*
X138024666Y-122252895D02*
X138024666Y-122348133D01*
X138024666Y-122348133D02*
X137977047Y-122490990D01*
X137977047Y-122490990D02*
X137405619Y-123062419D01*
X137405619Y-123062419D02*
X138024666Y-123062419D01*
X138643714Y-122062419D02*
X138738952Y-122062419D01*
X138738952Y-122062419D02*
X138834190Y-122110038D01*
X138834190Y-122110038D02*
X138881809Y-122157657D01*
X138881809Y-122157657D02*
X138929428Y-122252895D01*
X138929428Y-122252895D02*
X138977047Y-122443371D01*
X138977047Y-122443371D02*
X138977047Y-122681466D01*
X138977047Y-122681466D02*
X138929428Y-122871942D01*
X138929428Y-122871942D02*
X138881809Y-122967180D01*
X138881809Y-122967180D02*
X138834190Y-123014800D01*
X138834190Y-123014800D02*
X138738952Y-123062419D01*
X138738952Y-123062419D02*
X138643714Y-123062419D01*
X138643714Y-123062419D02*
X138548476Y-123014800D01*
X138548476Y-123014800D02*
X138500857Y-122967180D01*
X138500857Y-122967180D02*
X138453238Y-122871942D01*
X138453238Y-122871942D02*
X138405619Y-122681466D01*
X138405619Y-122681466D02*
X138405619Y-122443371D01*
X138405619Y-122443371D02*
X138453238Y-122252895D01*
X138453238Y-122252895D02*
X138500857Y-122157657D01*
X138500857Y-122157657D02*
X138548476Y-122110038D01*
X138548476Y-122110038D02*
X138643714Y-122062419D01*
X139358000Y-122157657D02*
X139405619Y-122110038D01*
X139405619Y-122110038D02*
X139500857Y-122062419D01*
X139500857Y-122062419D02*
X139738952Y-122062419D01*
X139738952Y-122062419D02*
X139834190Y-122110038D01*
X139834190Y-122110038D02*
X139881809Y-122157657D01*
X139881809Y-122157657D02*
X139929428Y-122252895D01*
X139929428Y-122252895D02*
X139929428Y-122348133D01*
X139929428Y-122348133D02*
X139881809Y-122490990D01*
X139881809Y-122490990D02*
X139310381Y-123062419D01*
X139310381Y-123062419D02*
X139929428Y-123062419D01*
X140786571Y-122395752D02*
X140786571Y-123062419D01*
X140548476Y-122014800D02*
X140310381Y-122729085D01*
X140310381Y-122729085D02*
X140929428Y-122729085D01*
X104650265Y-109298800D02*
X104793122Y-109346419D01*
X104793122Y-109346419D02*
X105031217Y-109346419D01*
X105031217Y-109346419D02*
X105126455Y-109298800D01*
X105126455Y-109298800D02*
X105174074Y-109251180D01*
X105174074Y-109251180D02*
X105221693Y-109155942D01*
X105221693Y-109155942D02*
X105221693Y-109060704D01*
X105221693Y-109060704D02*
X105174074Y-108965466D01*
X105174074Y-108965466D02*
X105126455Y-108917847D01*
X105126455Y-108917847D02*
X105031217Y-108870228D01*
X105031217Y-108870228D02*
X104840741Y-108822609D01*
X104840741Y-108822609D02*
X104745503Y-108774990D01*
X104745503Y-108774990D02*
X104697884Y-108727371D01*
X104697884Y-108727371D02*
X104650265Y-108632133D01*
X104650265Y-108632133D02*
X104650265Y-108536895D01*
X104650265Y-108536895D02*
X104697884Y-108441657D01*
X104697884Y-108441657D02*
X104745503Y-108394038D01*
X104745503Y-108394038D02*
X104840741Y-108346419D01*
X104840741Y-108346419D02*
X105078836Y-108346419D01*
X105078836Y-108346419D02*
X105221693Y-108394038D01*
X105650265Y-109346419D02*
X105650265Y-108346419D01*
X106078836Y-109346419D02*
X106078836Y-108822609D01*
X106078836Y-108822609D02*
X106031217Y-108727371D01*
X106031217Y-108727371D02*
X105935979Y-108679752D01*
X105935979Y-108679752D02*
X105793122Y-108679752D01*
X105793122Y-108679752D02*
X105697884Y-108727371D01*
X105697884Y-108727371D02*
X105650265Y-108774990D01*
X106983598Y-108679752D02*
X106983598Y-109346419D01*
X106555027Y-108679752D02*
X106555027Y-109203561D01*
X106555027Y-109203561D02*
X106602646Y-109298800D01*
X106602646Y-109298800D02*
X106697884Y-109346419D01*
X106697884Y-109346419D02*
X106840741Y-109346419D01*
X106840741Y-109346419D02*
X106935979Y-109298800D01*
X106935979Y-109298800D02*
X106983598Y-109251180D01*
X107316932Y-108679752D02*
X107697884Y-108679752D01*
X107459789Y-108346419D02*
X107459789Y-109203561D01*
X107459789Y-109203561D02*
X107507408Y-109298800D01*
X107507408Y-109298800D02*
X107602646Y-109346419D01*
X107602646Y-109346419D02*
X107697884Y-109346419D01*
X108459789Y-109346419D02*
X108459789Y-108346419D01*
X108459789Y-109298800D02*
X108364551Y-109346419D01*
X108364551Y-109346419D02*
X108174075Y-109346419D01*
X108174075Y-109346419D02*
X108078837Y-109298800D01*
X108078837Y-109298800D02*
X108031218Y-109251180D01*
X108031218Y-109251180D02*
X107983599Y-109155942D01*
X107983599Y-109155942D02*
X107983599Y-108870228D01*
X107983599Y-108870228D02*
X108031218Y-108774990D01*
X108031218Y-108774990D02*
X108078837Y-108727371D01*
X108078837Y-108727371D02*
X108174075Y-108679752D01*
X108174075Y-108679752D02*
X108364551Y-108679752D01*
X108364551Y-108679752D02*
X108459789Y-108727371D01*
X109078837Y-109346419D02*
X108983599Y-109298800D01*
X108983599Y-109298800D02*
X108935980Y-109251180D01*
X108935980Y-109251180D02*
X108888361Y-109155942D01*
X108888361Y-109155942D02*
X108888361Y-108870228D01*
X108888361Y-108870228D02*
X108935980Y-108774990D01*
X108935980Y-108774990D02*
X108983599Y-108727371D01*
X108983599Y-108727371D02*
X109078837Y-108679752D01*
X109078837Y-108679752D02*
X109221694Y-108679752D01*
X109221694Y-108679752D02*
X109316932Y-108727371D01*
X109316932Y-108727371D02*
X109364551Y-108774990D01*
X109364551Y-108774990D02*
X109412170Y-108870228D01*
X109412170Y-108870228D02*
X109412170Y-109155942D01*
X109412170Y-109155942D02*
X109364551Y-109251180D01*
X109364551Y-109251180D02*
X109316932Y-109298800D01*
X109316932Y-109298800D02*
X109221694Y-109346419D01*
X109221694Y-109346419D02*
X109078837Y-109346419D01*
X109745504Y-108679752D02*
X109935980Y-109346419D01*
X109935980Y-109346419D02*
X110126456Y-108870228D01*
X110126456Y-108870228D02*
X110316932Y-109346419D01*
X110316932Y-109346419D02*
X110507408Y-108679752D01*
X110888361Y-108679752D02*
X110888361Y-109346419D01*
X110888361Y-108774990D02*
X110935980Y-108727371D01*
X110935980Y-108727371D02*
X111031218Y-108679752D01*
X111031218Y-108679752D02*
X111174075Y-108679752D01*
X111174075Y-108679752D02*
X111269313Y-108727371D01*
X111269313Y-108727371D02*
X111316932Y-108822609D01*
X111316932Y-108822609D02*
X111316932Y-109346419D01*
X112555028Y-109346419D02*
X112555028Y-108346419D01*
X113031218Y-108679752D02*
X113031218Y-109346419D01*
X113031218Y-108774990D02*
X113078837Y-108727371D01*
X113078837Y-108727371D02*
X113174075Y-108679752D01*
X113174075Y-108679752D02*
X113316932Y-108679752D01*
X113316932Y-108679752D02*
X113412170Y-108727371D01*
X113412170Y-108727371D02*
X113459789Y-108822609D01*
X113459789Y-108822609D02*
X113459789Y-109346419D01*
X120001312Y-120776419D02*
X119667979Y-120300228D01*
X119429884Y-120776419D02*
X119429884Y-119776419D01*
X119429884Y-119776419D02*
X119810836Y-119776419D01*
X119810836Y-119776419D02*
X119906074Y-119824038D01*
X119906074Y-119824038D02*
X119953693Y-119871657D01*
X119953693Y-119871657D02*
X120001312Y-119966895D01*
X120001312Y-119966895D02*
X120001312Y-120109752D01*
X120001312Y-120109752D02*
X119953693Y-120204990D01*
X119953693Y-120204990D02*
X119906074Y-120252609D01*
X119906074Y-120252609D02*
X119810836Y-120300228D01*
X119810836Y-120300228D02*
X119429884Y-120300228D01*
X120810836Y-120728800D02*
X120715598Y-120776419D01*
X120715598Y-120776419D02*
X120525122Y-120776419D01*
X120525122Y-120776419D02*
X120429884Y-120728800D01*
X120429884Y-120728800D02*
X120382265Y-120633561D01*
X120382265Y-120633561D02*
X120382265Y-120252609D01*
X120382265Y-120252609D02*
X120429884Y-120157371D01*
X120429884Y-120157371D02*
X120525122Y-120109752D01*
X120525122Y-120109752D02*
X120715598Y-120109752D01*
X120715598Y-120109752D02*
X120810836Y-120157371D01*
X120810836Y-120157371D02*
X120858455Y-120252609D01*
X120858455Y-120252609D02*
X120858455Y-120347847D01*
X120858455Y-120347847D02*
X120382265Y-120443085D01*
X121239408Y-120728800D02*
X121334646Y-120776419D01*
X121334646Y-120776419D02*
X121525122Y-120776419D01*
X121525122Y-120776419D02*
X121620360Y-120728800D01*
X121620360Y-120728800D02*
X121667979Y-120633561D01*
X121667979Y-120633561D02*
X121667979Y-120585942D01*
X121667979Y-120585942D02*
X121620360Y-120490704D01*
X121620360Y-120490704D02*
X121525122Y-120443085D01*
X121525122Y-120443085D02*
X121382265Y-120443085D01*
X121382265Y-120443085D02*
X121287027Y-120395466D01*
X121287027Y-120395466D02*
X121239408Y-120300228D01*
X121239408Y-120300228D02*
X121239408Y-120252609D01*
X121239408Y-120252609D02*
X121287027Y-120157371D01*
X121287027Y-120157371D02*
X121382265Y-120109752D01*
X121382265Y-120109752D02*
X121525122Y-120109752D01*
X121525122Y-120109752D02*
X121620360Y-120157371D01*
X122477503Y-120728800D02*
X122382265Y-120776419D01*
X122382265Y-120776419D02*
X122191789Y-120776419D01*
X122191789Y-120776419D02*
X122096551Y-120728800D01*
X122096551Y-120728800D02*
X122048932Y-120633561D01*
X122048932Y-120633561D02*
X122048932Y-120252609D01*
X122048932Y-120252609D02*
X122096551Y-120157371D01*
X122096551Y-120157371D02*
X122191789Y-120109752D01*
X122191789Y-120109752D02*
X122382265Y-120109752D01*
X122382265Y-120109752D02*
X122477503Y-120157371D01*
X122477503Y-120157371D02*
X122525122Y-120252609D01*
X122525122Y-120252609D02*
X122525122Y-120347847D01*
X122525122Y-120347847D02*
X122048932Y-120443085D01*
X122810837Y-120109752D02*
X123191789Y-120109752D01*
X122953694Y-119776419D02*
X122953694Y-120633561D01*
X122953694Y-120633561D02*
X123001313Y-120728800D01*
X123001313Y-120728800D02*
X123096551Y-120776419D01*
X123096551Y-120776419D02*
X123191789Y-120776419D01*
X104142265Y-124030800D02*
X104285122Y-124078419D01*
X104285122Y-124078419D02*
X104523217Y-124078419D01*
X104523217Y-124078419D02*
X104618455Y-124030800D01*
X104618455Y-124030800D02*
X104666074Y-123983180D01*
X104666074Y-123983180D02*
X104713693Y-123887942D01*
X104713693Y-123887942D02*
X104713693Y-123792704D01*
X104713693Y-123792704D02*
X104666074Y-123697466D01*
X104666074Y-123697466D02*
X104618455Y-123649847D01*
X104618455Y-123649847D02*
X104523217Y-123602228D01*
X104523217Y-123602228D02*
X104332741Y-123554609D01*
X104332741Y-123554609D02*
X104237503Y-123506990D01*
X104237503Y-123506990D02*
X104189884Y-123459371D01*
X104189884Y-123459371D02*
X104142265Y-123364133D01*
X104142265Y-123364133D02*
X104142265Y-123268895D01*
X104142265Y-123268895D02*
X104189884Y-123173657D01*
X104189884Y-123173657D02*
X104237503Y-123126038D01*
X104237503Y-123126038D02*
X104332741Y-123078419D01*
X104332741Y-123078419D02*
X104570836Y-123078419D01*
X104570836Y-123078419D02*
X104713693Y-123126038D01*
X105142265Y-124078419D02*
X105142265Y-123078419D01*
X105570836Y-124078419D02*
X105570836Y-123554609D01*
X105570836Y-123554609D02*
X105523217Y-123459371D01*
X105523217Y-123459371D02*
X105427979Y-123411752D01*
X105427979Y-123411752D02*
X105285122Y-123411752D01*
X105285122Y-123411752D02*
X105189884Y-123459371D01*
X105189884Y-123459371D02*
X105142265Y-123506990D01*
X106475598Y-123411752D02*
X106475598Y-124078419D01*
X106047027Y-123411752D02*
X106047027Y-123935561D01*
X106047027Y-123935561D02*
X106094646Y-124030800D01*
X106094646Y-124030800D02*
X106189884Y-124078419D01*
X106189884Y-124078419D02*
X106332741Y-124078419D01*
X106332741Y-124078419D02*
X106427979Y-124030800D01*
X106427979Y-124030800D02*
X106475598Y-123983180D01*
X106808932Y-123411752D02*
X107189884Y-123411752D01*
X106951789Y-123078419D02*
X106951789Y-123935561D01*
X106951789Y-123935561D02*
X106999408Y-124030800D01*
X106999408Y-124030800D02*
X107094646Y-124078419D01*
X107094646Y-124078419D02*
X107189884Y-124078419D01*
X107951789Y-124078419D02*
X107951789Y-123078419D01*
X107951789Y-124030800D02*
X107856551Y-124078419D01*
X107856551Y-124078419D02*
X107666075Y-124078419D01*
X107666075Y-124078419D02*
X107570837Y-124030800D01*
X107570837Y-124030800D02*
X107523218Y-123983180D01*
X107523218Y-123983180D02*
X107475599Y-123887942D01*
X107475599Y-123887942D02*
X107475599Y-123602228D01*
X107475599Y-123602228D02*
X107523218Y-123506990D01*
X107523218Y-123506990D02*
X107570837Y-123459371D01*
X107570837Y-123459371D02*
X107666075Y-123411752D01*
X107666075Y-123411752D02*
X107856551Y-123411752D01*
X107856551Y-123411752D02*
X107951789Y-123459371D01*
X108570837Y-124078419D02*
X108475599Y-124030800D01*
X108475599Y-124030800D02*
X108427980Y-123983180D01*
X108427980Y-123983180D02*
X108380361Y-123887942D01*
X108380361Y-123887942D02*
X108380361Y-123602228D01*
X108380361Y-123602228D02*
X108427980Y-123506990D01*
X108427980Y-123506990D02*
X108475599Y-123459371D01*
X108475599Y-123459371D02*
X108570837Y-123411752D01*
X108570837Y-123411752D02*
X108713694Y-123411752D01*
X108713694Y-123411752D02*
X108808932Y-123459371D01*
X108808932Y-123459371D02*
X108856551Y-123506990D01*
X108856551Y-123506990D02*
X108904170Y-123602228D01*
X108904170Y-123602228D02*
X108904170Y-123887942D01*
X108904170Y-123887942D02*
X108856551Y-123983180D01*
X108856551Y-123983180D02*
X108808932Y-124030800D01*
X108808932Y-124030800D02*
X108713694Y-124078419D01*
X108713694Y-124078419D02*
X108570837Y-124078419D01*
X109237504Y-123411752D02*
X109427980Y-124078419D01*
X109427980Y-124078419D02*
X109618456Y-123602228D01*
X109618456Y-123602228D02*
X109808932Y-124078419D01*
X109808932Y-124078419D02*
X109999408Y-123411752D01*
X110380361Y-123411752D02*
X110380361Y-124078419D01*
X110380361Y-123506990D02*
X110427980Y-123459371D01*
X110427980Y-123459371D02*
X110523218Y-123411752D01*
X110523218Y-123411752D02*
X110666075Y-123411752D01*
X110666075Y-123411752D02*
X110761313Y-123459371D01*
X110761313Y-123459371D02*
X110808932Y-123554609D01*
X110808932Y-123554609D02*
X110808932Y-124078419D01*
X112237504Y-123078419D02*
X112427980Y-123078419D01*
X112427980Y-123078419D02*
X112523218Y-123126038D01*
X112523218Y-123126038D02*
X112618456Y-123221276D01*
X112618456Y-123221276D02*
X112666075Y-123411752D01*
X112666075Y-123411752D02*
X112666075Y-123745085D01*
X112666075Y-123745085D02*
X112618456Y-123935561D01*
X112618456Y-123935561D02*
X112523218Y-124030800D01*
X112523218Y-124030800D02*
X112427980Y-124078419D01*
X112427980Y-124078419D02*
X112237504Y-124078419D01*
X112237504Y-124078419D02*
X112142266Y-124030800D01*
X112142266Y-124030800D02*
X112047028Y-123935561D01*
X112047028Y-123935561D02*
X111999409Y-123745085D01*
X111999409Y-123745085D02*
X111999409Y-123411752D01*
X111999409Y-123411752D02*
X112047028Y-123221276D01*
X112047028Y-123221276D02*
X112142266Y-123126038D01*
X112142266Y-123126038D02*
X112237504Y-123078419D01*
X113523218Y-123411752D02*
X113523218Y-124078419D01*
X113094647Y-123411752D02*
X113094647Y-123935561D01*
X113094647Y-123935561D02*
X113142266Y-124030800D01*
X113142266Y-124030800D02*
X113237504Y-124078419D01*
X113237504Y-124078419D02*
X113380361Y-124078419D01*
X113380361Y-124078419D02*
X113475599Y-124030800D01*
X113475599Y-124030800D02*
X113523218Y-123983180D01*
X113856552Y-123411752D02*
X114237504Y-123411752D01*
X113999409Y-123078419D02*
X113999409Y-123935561D01*
X113999409Y-123935561D02*
X114047028Y-124030800D01*
X114047028Y-124030800D02*
X114142266Y-124078419D01*
X114142266Y-124078419D02*
X114237504Y-124078419D01*
X107237884Y-94096171D02*
X107237884Y-93096171D01*
X107714074Y-94096171D02*
X107714074Y-93096171D01*
X107714074Y-93096171D02*
X108047407Y-93810456D01*
X108047407Y-93810456D02*
X108380740Y-93096171D01*
X108380740Y-93096171D02*
X108380740Y-94096171D01*
X108856931Y-94096171D02*
X108856931Y-93096171D01*
X108856931Y-93096171D02*
X109095026Y-93096171D01*
X109095026Y-93096171D02*
X109237883Y-93143790D01*
X109237883Y-93143790D02*
X109333121Y-93239028D01*
X109333121Y-93239028D02*
X109380740Y-93334266D01*
X109380740Y-93334266D02*
X109428359Y-93524742D01*
X109428359Y-93524742D02*
X109428359Y-93667599D01*
X109428359Y-93667599D02*
X109380740Y-93858075D01*
X109380740Y-93858075D02*
X109333121Y-93953313D01*
X109333121Y-93953313D02*
X109237883Y-94048552D01*
X109237883Y-94048552D02*
X109095026Y-94096171D01*
X109095026Y-94096171D02*
X108856931Y-94096171D01*
X110618836Y-94096171D02*
X110618836Y-93096171D01*
X111095026Y-93429504D02*
X111095026Y-94096171D01*
X111095026Y-93524742D02*
X111142645Y-93477123D01*
X111142645Y-93477123D02*
X111237883Y-93429504D01*
X111237883Y-93429504D02*
X111380740Y-93429504D01*
X111380740Y-93429504D02*
X111475978Y-93477123D01*
X111475978Y-93477123D02*
X111523597Y-93572361D01*
X111523597Y-93572361D02*
X111523597Y-94096171D01*
X146859843Y-94531936D02*
X146859843Y-93531936D01*
X146859843Y-93531936D02*
X147240795Y-93531936D01*
X147240795Y-93531936D02*
X147336033Y-93579555D01*
X147336033Y-93579555D02*
X147383652Y-93627174D01*
X147383652Y-93627174D02*
X147431271Y-93722412D01*
X147431271Y-93722412D02*
X147431271Y-93865269D01*
X147431271Y-93865269D02*
X147383652Y-93960507D01*
X147383652Y-93960507D02*
X147336033Y-94008126D01*
X147336033Y-94008126D02*
X147240795Y-94055745D01*
X147240795Y-94055745D02*
X146859843Y-94055745D01*
X148002700Y-94531936D02*
X147907462Y-94484317D01*
X147907462Y-94484317D02*
X147859843Y-94436697D01*
X147859843Y-94436697D02*
X147812224Y-94341459D01*
X147812224Y-94341459D02*
X147812224Y-94055745D01*
X147812224Y-94055745D02*
X147859843Y-93960507D01*
X147859843Y-93960507D02*
X147907462Y-93912888D01*
X147907462Y-93912888D02*
X148002700Y-93865269D01*
X148002700Y-93865269D02*
X148145557Y-93865269D01*
X148145557Y-93865269D02*
X148240795Y-93912888D01*
X148240795Y-93912888D02*
X148288414Y-93960507D01*
X148288414Y-93960507D02*
X148336033Y-94055745D01*
X148336033Y-94055745D02*
X148336033Y-94341459D01*
X148336033Y-94341459D02*
X148288414Y-94436697D01*
X148288414Y-94436697D02*
X148240795Y-94484317D01*
X148240795Y-94484317D02*
X148145557Y-94531936D01*
X148145557Y-94531936D02*
X148002700Y-94531936D01*
X148669367Y-93865269D02*
X148859843Y-94531936D01*
X148859843Y-94531936D02*
X149050319Y-94055745D01*
X149050319Y-94055745D02*
X149240795Y-94531936D01*
X149240795Y-94531936D02*
X149431271Y-93865269D01*
X150193176Y-94484317D02*
X150097938Y-94531936D01*
X150097938Y-94531936D02*
X149907462Y-94531936D01*
X149907462Y-94531936D02*
X149812224Y-94484317D01*
X149812224Y-94484317D02*
X149764605Y-94389078D01*
X149764605Y-94389078D02*
X149764605Y-94008126D01*
X149764605Y-94008126D02*
X149812224Y-93912888D01*
X149812224Y-93912888D02*
X149907462Y-93865269D01*
X149907462Y-93865269D02*
X150097938Y-93865269D01*
X150097938Y-93865269D02*
X150193176Y-93912888D01*
X150193176Y-93912888D02*
X150240795Y-94008126D01*
X150240795Y-94008126D02*
X150240795Y-94103364D01*
X150240795Y-94103364D02*
X149764605Y-94198602D01*
X150669367Y-94531936D02*
X150669367Y-93865269D01*
X150669367Y-94055745D02*
X150716986Y-93960507D01*
X150716986Y-93960507D02*
X150764605Y-93912888D01*
X150764605Y-93912888D02*
X150859843Y-93865269D01*
X150859843Y-93865269D02*
X150955081Y-93865269D01*
X152050320Y-94531936D02*
X152050320Y-93531936D01*
X152526510Y-93865269D02*
X152526510Y-94531936D01*
X152526510Y-93960507D02*
X152574129Y-93912888D01*
X152574129Y-93912888D02*
X152669367Y-93865269D01*
X152669367Y-93865269D02*
X152812224Y-93865269D01*
X152812224Y-93865269D02*
X152907462Y-93912888D01*
X152907462Y-93912888D02*
X152955081Y-94008126D01*
X152955081Y-94008126D02*
X152955081Y-94531936D01*
X145232814Y-108849996D02*
X144899481Y-108849996D01*
X144899481Y-109373806D02*
X144899481Y-108373806D01*
X144899481Y-108373806D02*
X145375671Y-108373806D01*
X146185195Y-109373806D02*
X146185195Y-108849996D01*
X146185195Y-108849996D02*
X146137576Y-108754758D01*
X146137576Y-108754758D02*
X146042338Y-108707139D01*
X146042338Y-108707139D02*
X145851862Y-108707139D01*
X145851862Y-108707139D02*
X145756624Y-108754758D01*
X146185195Y-109326187D02*
X146089957Y-109373806D01*
X146089957Y-109373806D02*
X145851862Y-109373806D01*
X145851862Y-109373806D02*
X145756624Y-109326187D01*
X145756624Y-109326187D02*
X145709005Y-109230948D01*
X145709005Y-109230948D02*
X145709005Y-109135710D01*
X145709005Y-109135710D02*
X145756624Y-109040472D01*
X145756624Y-109040472D02*
X145851862Y-108992853D01*
X145851862Y-108992853D02*
X146089957Y-108992853D01*
X146089957Y-108992853D02*
X146185195Y-108945234D01*
X147089957Y-108707139D02*
X147089957Y-109373806D01*
X146661386Y-108707139D02*
X146661386Y-109230948D01*
X146661386Y-109230948D02*
X146709005Y-109326187D01*
X146709005Y-109326187D02*
X146804243Y-109373806D01*
X146804243Y-109373806D02*
X146947100Y-109373806D01*
X146947100Y-109373806D02*
X147042338Y-109326187D01*
X147042338Y-109326187D02*
X147089957Y-109278567D01*
X147709005Y-109373806D02*
X147613767Y-109326187D01*
X147613767Y-109326187D02*
X147566148Y-109230948D01*
X147566148Y-109230948D02*
X147566148Y-108373806D01*
X147947101Y-108707139D02*
X148328053Y-108707139D01*
X148089958Y-108373806D02*
X148089958Y-109230948D01*
X148089958Y-109230948D02*
X148137577Y-109326187D01*
X148137577Y-109326187D02*
X148232815Y-109373806D01*
X148232815Y-109373806D02*
X148328053Y-109373806D01*
X149899482Y-109373806D02*
X149423292Y-109373806D01*
X149423292Y-109373806D02*
X149423292Y-108373806D01*
X150232816Y-109373806D02*
X150232816Y-108707139D01*
X150232816Y-108373806D02*
X150185197Y-108421425D01*
X150185197Y-108421425D02*
X150232816Y-108469044D01*
X150232816Y-108469044D02*
X150280435Y-108421425D01*
X150280435Y-108421425D02*
X150232816Y-108373806D01*
X150232816Y-108373806D02*
X150232816Y-108469044D01*
X151137577Y-108707139D02*
X151137577Y-109516663D01*
X151137577Y-109516663D02*
X151089958Y-109611901D01*
X151089958Y-109611901D02*
X151042339Y-109659520D01*
X151042339Y-109659520D02*
X150947101Y-109707139D01*
X150947101Y-109707139D02*
X150804244Y-109707139D01*
X150804244Y-109707139D02*
X150709006Y-109659520D01*
X151137577Y-109326187D02*
X151042339Y-109373806D01*
X151042339Y-109373806D02*
X150851863Y-109373806D01*
X150851863Y-109373806D02*
X150756625Y-109326187D01*
X150756625Y-109326187D02*
X150709006Y-109278567D01*
X150709006Y-109278567D02*
X150661387Y-109183329D01*
X150661387Y-109183329D02*
X150661387Y-108897615D01*
X150661387Y-108897615D02*
X150709006Y-108802377D01*
X150709006Y-108802377D02*
X150756625Y-108754758D01*
X150756625Y-108754758D02*
X150851863Y-108707139D01*
X150851863Y-108707139D02*
X151042339Y-108707139D01*
X151042339Y-108707139D02*
X151137577Y-108754758D01*
X151613768Y-109373806D02*
X151613768Y-108373806D01*
X152042339Y-109373806D02*
X152042339Y-108849996D01*
X152042339Y-108849996D02*
X151994720Y-108754758D01*
X151994720Y-108754758D02*
X151899482Y-108707139D01*
X151899482Y-108707139D02*
X151756625Y-108707139D01*
X151756625Y-108707139D02*
X151661387Y-108754758D01*
X151661387Y-108754758D02*
X151613768Y-108802377D01*
X152375673Y-108707139D02*
X152756625Y-108707139D01*
X152518530Y-108373806D02*
X152518530Y-109230948D01*
X152518530Y-109230948D02*
X152566149Y-109326187D01*
X152566149Y-109326187D02*
X152661387Y-109373806D01*
X152661387Y-109373806D02*
X152756625Y-109373806D01*
X154042340Y-108373806D02*
X154232816Y-108373806D01*
X154232816Y-108373806D02*
X154328054Y-108421425D01*
X154328054Y-108421425D02*
X154423292Y-108516663D01*
X154423292Y-108516663D02*
X154470911Y-108707139D01*
X154470911Y-108707139D02*
X154470911Y-109040472D01*
X154470911Y-109040472D02*
X154423292Y-109230948D01*
X154423292Y-109230948D02*
X154328054Y-109326187D01*
X154328054Y-109326187D02*
X154232816Y-109373806D01*
X154232816Y-109373806D02*
X154042340Y-109373806D01*
X154042340Y-109373806D02*
X153947102Y-109326187D01*
X153947102Y-109326187D02*
X153851864Y-109230948D01*
X153851864Y-109230948D02*
X153804245Y-109040472D01*
X153804245Y-109040472D02*
X153804245Y-108707139D01*
X153804245Y-108707139D02*
X153851864Y-108516663D01*
X153851864Y-108516663D02*
X153947102Y-108421425D01*
X153947102Y-108421425D02*
X154042340Y-108373806D01*
X155328054Y-108707139D02*
X155328054Y-109373806D01*
X154899483Y-108707139D02*
X154899483Y-109230948D01*
X154899483Y-109230948D02*
X154947102Y-109326187D01*
X154947102Y-109326187D02*
X155042340Y-109373806D01*
X155042340Y-109373806D02*
X155185197Y-109373806D01*
X155185197Y-109373806D02*
X155280435Y-109326187D01*
X155280435Y-109326187D02*
X155328054Y-109278567D01*
X155661388Y-108707139D02*
X156042340Y-108707139D01*
X155804245Y-108373806D02*
X155804245Y-109230948D01*
X155804245Y-109230948D02*
X155851864Y-109326187D01*
X155851864Y-109326187D02*
X155947102Y-109373806D01*
X155947102Y-109373806D02*
X156042340Y-109373806D01*
D11*
X149436667Y-86426318D02*
X149436667Y-87333461D01*
X149436667Y-87333461D02*
X149376190Y-87514889D01*
X149376190Y-87514889D02*
X149255238Y-87635842D01*
X149255238Y-87635842D02*
X149073809Y-87696318D01*
X149073809Y-87696318D02*
X148952857Y-87696318D01*
X149920476Y-86426318D02*
X150706667Y-86426318D01*
X150706667Y-86426318D02*
X150283333Y-86910127D01*
X150283333Y-86910127D02*
X150464762Y-86910127D01*
X150464762Y-86910127D02*
X150585714Y-86970603D01*
X150585714Y-86970603D02*
X150646190Y-87031080D01*
X150646190Y-87031080D02*
X150706667Y-87152032D01*
X150706667Y-87152032D02*
X150706667Y-87454413D01*
X150706667Y-87454413D02*
X150646190Y-87575365D01*
X150646190Y-87575365D02*
X150585714Y-87635842D01*
X150585714Y-87635842D02*
X150464762Y-87696318D01*
X150464762Y-87696318D02*
X150101905Y-87696318D01*
X150101905Y-87696318D02*
X149980952Y-87635842D01*
X149980952Y-87635842D02*
X149920476Y-87575365D01*
D12*
X136421905Y-116027319D02*
X136421905Y-115027319D01*
X136421905Y-115027319D02*
X136660000Y-115027319D01*
X136660000Y-115027319D02*
X136802857Y-115074938D01*
X136802857Y-115074938D02*
X136898095Y-115170176D01*
X136898095Y-115170176D02*
X136945714Y-115265414D01*
X136945714Y-115265414D02*
X136993333Y-115455890D01*
X136993333Y-115455890D02*
X136993333Y-115598747D01*
X136993333Y-115598747D02*
X136945714Y-115789223D01*
X136945714Y-115789223D02*
X136898095Y-115884461D01*
X136898095Y-115884461D02*
X136802857Y-115979700D01*
X136802857Y-115979700D02*
X136660000Y-116027319D01*
X136660000Y-116027319D02*
X136421905Y-116027319D01*
X137326667Y-115027319D02*
X137945714Y-115027319D01*
X137945714Y-115027319D02*
X137612381Y-115408271D01*
X137612381Y-115408271D02*
X137755238Y-115408271D01*
X137755238Y-115408271D02*
X137850476Y-115455890D01*
X137850476Y-115455890D02*
X137898095Y-115503509D01*
X137898095Y-115503509D02*
X137945714Y-115598747D01*
X137945714Y-115598747D02*
X137945714Y-115836842D01*
X137945714Y-115836842D02*
X137898095Y-115932080D01*
X137898095Y-115932080D02*
X137850476Y-115979700D01*
X137850476Y-115979700D02*
X137755238Y-116027319D01*
X137755238Y-116027319D02*
X137469524Y-116027319D01*
X137469524Y-116027319D02*
X137374286Y-115979700D01*
X137374286Y-115979700D02*
X137326667Y-115932080D01*
X141978095Y-115657319D02*
X141978095Y-114657319D01*
X142549523Y-115657319D02*
X142120952Y-115085890D01*
X142549523Y-114657319D02*
X141978095Y-115228747D01*
X121181905Y-90627319D02*
X121181905Y-89627319D01*
X121181905Y-89627319D02*
X121420000Y-89627319D01*
X121420000Y-89627319D02*
X121562857Y-89674938D01*
X121562857Y-89674938D02*
X121658095Y-89770176D01*
X121658095Y-89770176D02*
X121705714Y-89865414D01*
X121705714Y-89865414D02*
X121753333Y-90055890D01*
X121753333Y-90055890D02*
X121753333Y-90198747D01*
X121753333Y-90198747D02*
X121705714Y-90389223D01*
X121705714Y-90389223D02*
X121658095Y-90484461D01*
X121658095Y-90484461D02*
X121562857Y-90579700D01*
X121562857Y-90579700D02*
X121420000Y-90627319D01*
X121420000Y-90627319D02*
X121181905Y-90627319D01*
X122705714Y-90627319D02*
X122134286Y-90627319D01*
X122420000Y-90627319D02*
X122420000Y-89627319D01*
X122420000Y-89627319D02*
X122324762Y-89770176D01*
X122324762Y-89770176D02*
X122229524Y-89865414D01*
X122229524Y-89865414D02*
X122134286Y-89913033D01*
X126738095Y-90257319D02*
X126738095Y-89257319D01*
X127309523Y-90257319D02*
X126880952Y-89685890D01*
X127309523Y-89257319D02*
X126738095Y-89828747D01*
X151661905Y-119072819D02*
X151661905Y-118072819D01*
X151661905Y-118072819D02*
X151900000Y-118072819D01*
X151900000Y-118072819D02*
X152042857Y-118120438D01*
X152042857Y-118120438D02*
X152138095Y-118215676D01*
X152138095Y-118215676D02*
X152185714Y-118310914D01*
X152185714Y-118310914D02*
X152233333Y-118501390D01*
X152233333Y-118501390D02*
X152233333Y-118644247D01*
X152233333Y-118644247D02*
X152185714Y-118834723D01*
X152185714Y-118834723D02*
X152138095Y-118929961D01*
X152138095Y-118929961D02*
X152042857Y-119025200D01*
X152042857Y-119025200D02*
X151900000Y-119072819D01*
X151900000Y-119072819D02*
X151661905Y-119072819D01*
X153090476Y-118406152D02*
X153090476Y-119072819D01*
X152852381Y-118025200D02*
X152614286Y-118739485D01*
X152614286Y-118739485D02*
X153233333Y-118739485D01*
X149730142Y-111048819D02*
X149253952Y-111048819D01*
X149253952Y-111048819D02*
X149253952Y-110048819D01*
X150063476Y-110525009D02*
X150396809Y-110525009D01*
X150539666Y-111048819D02*
X150063476Y-111048819D01*
X150063476Y-111048819D02*
X150063476Y-110048819D01*
X150063476Y-110048819D02*
X150539666Y-110048819D01*
X150968238Y-111048819D02*
X150968238Y-110048819D01*
X150968238Y-110048819D02*
X151206333Y-110048819D01*
X151206333Y-110048819D02*
X151349190Y-110096438D01*
X151349190Y-110096438D02*
X151444428Y-110191676D01*
X151444428Y-110191676D02*
X151492047Y-110286914D01*
X151492047Y-110286914D02*
X151539666Y-110477390D01*
X151539666Y-110477390D02*
X151539666Y-110620247D01*
X151539666Y-110620247D02*
X151492047Y-110810723D01*
X151492047Y-110810723D02*
X151444428Y-110905961D01*
X151444428Y-110905961D02*
X151349190Y-111001200D01*
X151349190Y-111001200D02*
X151206333Y-111048819D01*
X151206333Y-111048819D02*
X150968238Y-111048819D01*
X136421905Y-90627319D02*
X136421905Y-89627319D01*
X136421905Y-89627319D02*
X136660000Y-89627319D01*
X136660000Y-89627319D02*
X136802857Y-89674938D01*
X136802857Y-89674938D02*
X136898095Y-89770176D01*
X136898095Y-89770176D02*
X136945714Y-89865414D01*
X136945714Y-89865414D02*
X136993333Y-90055890D01*
X136993333Y-90055890D02*
X136993333Y-90198747D01*
X136993333Y-90198747D02*
X136945714Y-90389223D01*
X136945714Y-90389223D02*
X136898095Y-90484461D01*
X136898095Y-90484461D02*
X136802857Y-90579700D01*
X136802857Y-90579700D02*
X136660000Y-90627319D01*
X136660000Y-90627319D02*
X136421905Y-90627319D01*
X137374286Y-89722557D02*
X137421905Y-89674938D01*
X137421905Y-89674938D02*
X137517143Y-89627319D01*
X137517143Y-89627319D02*
X137755238Y-89627319D01*
X137755238Y-89627319D02*
X137850476Y-89674938D01*
X137850476Y-89674938D02*
X137898095Y-89722557D01*
X137898095Y-89722557D02*
X137945714Y-89817795D01*
X137945714Y-89817795D02*
X137945714Y-89913033D01*
X137945714Y-89913033D02*
X137898095Y-90055890D01*
X137898095Y-90055890D02*
X137326667Y-90627319D01*
X137326667Y-90627319D02*
X137945714Y-90627319D01*
X141978095Y-90257319D02*
X141978095Y-89257319D01*
X142549523Y-90257319D02*
X142120952Y-89685890D01*
X142549523Y-89257319D02*
X141978095Y-89828747D01*
D11*
X108796667Y-85664318D02*
X108796667Y-86571461D01*
X108796667Y-86571461D02*
X108736190Y-86752889D01*
X108736190Y-86752889D02*
X108615238Y-86873842D01*
X108615238Y-86873842D02*
X108433809Y-86934318D01*
X108433809Y-86934318D02*
X108312857Y-86934318D01*
X110066667Y-86934318D02*
X109340952Y-86934318D01*
X109703809Y-86934318D02*
X109703809Y-85664318D01*
X109703809Y-85664318D02*
X109582857Y-85845746D01*
X109582857Y-85845746D02*
X109461905Y-85966699D01*
X109461905Y-85966699D02*
X109340952Y-86027175D01*
D12*
X149517447Y-120872687D02*
X149184114Y-120396496D01*
X148946019Y-120872687D02*
X148946019Y-119872687D01*
X148946019Y-119872687D02*
X149326971Y-119872687D01*
X149326971Y-119872687D02*
X149422209Y-119920306D01*
X149422209Y-119920306D02*
X149469828Y-119967925D01*
X149469828Y-119967925D02*
X149517447Y-120063163D01*
X149517447Y-120063163D02*
X149517447Y-120206020D01*
X149517447Y-120206020D02*
X149469828Y-120301258D01*
X149469828Y-120301258D02*
X149422209Y-120348877D01*
X149422209Y-120348877D02*
X149326971Y-120396496D01*
X149326971Y-120396496D02*
X148946019Y-120396496D01*
X150469828Y-120872687D02*
X149898400Y-120872687D01*
X150184114Y-120872687D02*
X150184114Y-119872687D01*
X150184114Y-119872687D02*
X150088876Y-120015544D01*
X150088876Y-120015544D02*
X149993638Y-120110782D01*
X149993638Y-120110782D02*
X149898400Y-120158401D01*
X119876667Y-111509700D02*
X120019524Y-111557319D01*
X120019524Y-111557319D02*
X120257619Y-111557319D01*
X120257619Y-111557319D02*
X120352857Y-111509700D01*
X120352857Y-111509700D02*
X120400476Y-111462080D01*
X120400476Y-111462080D02*
X120448095Y-111366842D01*
X120448095Y-111366842D02*
X120448095Y-111271604D01*
X120448095Y-111271604D02*
X120400476Y-111176366D01*
X120400476Y-111176366D02*
X120352857Y-111128747D01*
X120352857Y-111128747D02*
X120257619Y-111081128D01*
X120257619Y-111081128D02*
X120067143Y-111033509D01*
X120067143Y-111033509D02*
X119971905Y-110985890D01*
X119971905Y-110985890D02*
X119924286Y-110938271D01*
X119924286Y-110938271D02*
X119876667Y-110843033D01*
X119876667Y-110843033D02*
X119876667Y-110747795D01*
X119876667Y-110747795D02*
X119924286Y-110652557D01*
X119924286Y-110652557D02*
X119971905Y-110604938D01*
X119971905Y-110604938D02*
X120067143Y-110557319D01*
X120067143Y-110557319D02*
X120305238Y-110557319D01*
X120305238Y-110557319D02*
X120448095Y-110604938D01*
X120781429Y-110557319D02*
X121019524Y-111557319D01*
X121019524Y-111557319D02*
X121210000Y-110843033D01*
X121210000Y-110843033D02*
X121400476Y-111557319D01*
X121400476Y-111557319D02*
X121638572Y-110557319D01*
X122543333Y-111557319D02*
X121971905Y-111557319D01*
X122257619Y-111557319D02*
X122257619Y-110557319D01*
X122257619Y-110557319D02*
X122162381Y-110700176D01*
X122162381Y-110700176D02*
X122067143Y-110795414D01*
X122067143Y-110795414D02*
X121971905Y-110843033D01*
X121524805Y-100984319D02*
X121524805Y-99984319D01*
X122096233Y-100984319D02*
X121667662Y-100412890D01*
X122096233Y-99984319D02*
X121524805Y-100555747D01*
X123048614Y-100984319D02*
X122477186Y-100984319D01*
X122762900Y-100984319D02*
X122762900Y-99984319D01*
X122762900Y-99984319D02*
X122667662Y-100127176D01*
X122667662Y-100127176D02*
X122572424Y-100222414D01*
X122572424Y-100222414D02*
X122477186Y-100270033D01*
D11*
X108796667Y-100904318D02*
X108796667Y-101811461D01*
X108796667Y-101811461D02*
X108736190Y-101992889D01*
X108736190Y-101992889D02*
X108615238Y-102113842D01*
X108615238Y-102113842D02*
X108433809Y-102174318D01*
X108433809Y-102174318D02*
X108312857Y-102174318D01*
X109340952Y-101025270D02*
X109401428Y-100964794D01*
X109401428Y-100964794D02*
X109522381Y-100904318D01*
X109522381Y-100904318D02*
X109824762Y-100904318D01*
X109824762Y-100904318D02*
X109945714Y-100964794D01*
X109945714Y-100964794D02*
X110006190Y-101025270D01*
X110006190Y-101025270D02*
X110066667Y-101146222D01*
X110066667Y-101146222D02*
X110066667Y-101267175D01*
X110066667Y-101267175D02*
X110006190Y-101448603D01*
X110006190Y-101448603D02*
X109280476Y-102174318D01*
X109280476Y-102174318D02*
X110066667Y-102174318D01*
X149456098Y-100824778D02*
X149456098Y-101731921D01*
X149456098Y-101731921D02*
X149395621Y-101913349D01*
X149395621Y-101913349D02*
X149274669Y-102034302D01*
X149274669Y-102034302D02*
X149093240Y-102094778D01*
X149093240Y-102094778D02*
X148972288Y-102094778D01*
X150665621Y-100824778D02*
X150060859Y-100824778D01*
X150060859Y-100824778D02*
X150000383Y-101429540D01*
X150000383Y-101429540D02*
X150060859Y-101369063D01*
X150060859Y-101369063D02*
X150181812Y-101308587D01*
X150181812Y-101308587D02*
X150484193Y-101308587D01*
X150484193Y-101308587D02*
X150605145Y-101369063D01*
X150605145Y-101369063D02*
X150665621Y-101429540D01*
X150665621Y-101429540D02*
X150726098Y-101550492D01*
X150726098Y-101550492D02*
X150726098Y-101852873D01*
X150726098Y-101852873D02*
X150665621Y-101973825D01*
X150665621Y-101973825D02*
X150605145Y-102034302D01*
X150605145Y-102034302D02*
X150484193Y-102094778D01*
X150484193Y-102094778D02*
X150181812Y-102094778D01*
X150181812Y-102094778D02*
X150060859Y-102034302D01*
X150060859Y-102034302D02*
X150000383Y-101973825D01*
X108626917Y-115626318D02*
X108626917Y-116533461D01*
X108626917Y-116533461D02*
X108566440Y-116714889D01*
X108566440Y-116714889D02*
X108445488Y-116835842D01*
X108445488Y-116835842D02*
X108264059Y-116896318D01*
X108264059Y-116896318D02*
X108143107Y-116896318D01*
X109775964Y-116049651D02*
X109775964Y-116896318D01*
X109473583Y-115565842D02*
X109171202Y-116472984D01*
X109171202Y-116472984D02*
X109957393Y-116472984D01*
D12*
X136881905Y-92777319D02*
X136881905Y-91777319D01*
X137453333Y-92777319D02*
X137024762Y-92205890D01*
X137453333Y-91777319D02*
X136881905Y-92348747D01*
X137834286Y-91872557D02*
X137881905Y-91824938D01*
X137881905Y-91824938D02*
X137977143Y-91777319D01*
X137977143Y-91777319D02*
X138215238Y-91777319D01*
X138215238Y-91777319D02*
X138310476Y-91824938D01*
X138310476Y-91824938D02*
X138358095Y-91872557D01*
X138358095Y-91872557D02*
X138405714Y-91967795D01*
X138405714Y-91967795D02*
X138405714Y-92063033D01*
X138405714Y-92063033D02*
X138358095Y-92205890D01*
X138358095Y-92205890D02*
X137786667Y-92777319D01*
X137786667Y-92777319D02*
X138405714Y-92777319D01*
D13*
%TO.C,J3*%
X145760000Y-83662000D02*
X146760000Y-84162000D01*
X145760000Y-84662000D02*
X145760000Y-83662000D01*
X146760000Y-84162000D02*
X145760000Y-84662000D01*
X147160000Y-81912000D02*
X152560000Y-81912000D01*
X147160000Y-91512000D02*
X147160000Y-81912000D01*
X152560000Y-81912000D02*
X152560000Y-91512000D01*
X152560000Y-91512000D02*
X147160000Y-91512000D01*
D14*
%TO.C,D3*%
X133420000Y-113102500D02*
X134440000Y-113102500D01*
X134440000Y-111632500D02*
X134440000Y-114572500D01*
X134440000Y-114572500D02*
X139880000Y-114572500D01*
X138860000Y-114572500D02*
X138860000Y-111632500D01*
X138980000Y-114572500D02*
X138980000Y-111632500D01*
X139100000Y-114572500D02*
X139100000Y-111632500D01*
X139880000Y-111632500D02*
X134440000Y-111632500D01*
X139880000Y-114572500D02*
X139880000Y-111632500D01*
X140900000Y-113102500D02*
X139880000Y-113102500D01*
%TO.C,D1*%
X118180000Y-87702500D02*
X119200000Y-87702500D01*
X119200000Y-86232500D02*
X119200000Y-89172500D01*
X119200000Y-89172500D02*
X124640000Y-89172500D01*
X123620000Y-89172500D02*
X123620000Y-86232500D01*
X123740000Y-89172500D02*
X123740000Y-86232500D01*
X123860000Y-89172500D02*
X123860000Y-86232500D01*
X124640000Y-86232500D02*
X119200000Y-86232500D01*
X124640000Y-89172500D02*
X124640000Y-86232500D01*
X125660000Y-87702500D02*
X124640000Y-87702500D01*
%TO.C,D4*%
X152933000Y-116099000D02*
X152933000Y-113009000D01*
X147383000Y-114554462D02*
G75*
G02*
X152933000Y-113009170I2990000J462D01*
G01*
X152933000Y-116098830D02*
G75*
G02*
X147383000Y-114553538I-2560000J1544830D01*
G01*
X152873000Y-114554000D02*
G75*
G02*
X147873000Y-114554000I-2500000J0D01*
G01*
X147873000Y-114554000D02*
G75*
G02*
X152873000Y-114554000I2500000J0D01*
G01*
%TO.C,D2*%
X133420000Y-87702500D02*
X134440000Y-87702500D01*
X134440000Y-86232500D02*
X134440000Y-89172500D01*
X134440000Y-89172500D02*
X139880000Y-89172500D01*
X138860000Y-89172500D02*
X138860000Y-86232500D01*
X138980000Y-89172500D02*
X138980000Y-86232500D01*
X139100000Y-89172500D02*
X139100000Y-86232500D01*
X139880000Y-86232500D02*
X134440000Y-86232500D01*
X139880000Y-89172500D02*
X139880000Y-86232500D01*
X140900000Y-87702500D02*
X139880000Y-87702500D01*
D13*
%TO.C,J1*%
X105120000Y-83320000D02*
X106120000Y-83820000D01*
X105120000Y-84320000D02*
X105120000Y-83320000D01*
X106120000Y-83820000D02*
X105120000Y-84320000D01*
X106520000Y-81570000D02*
X111920000Y-81570000D01*
X106520000Y-91170000D02*
X106520000Y-81570000D01*
X111920000Y-81570000D02*
X111920000Y-91170000D01*
X111920000Y-91170000D02*
X106520000Y-91170000D01*
D14*
%TO.C,R1*%
X146414114Y-121417868D02*
X152954114Y-121417868D01*
X146414114Y-121747868D02*
X146414114Y-121417868D01*
X146414114Y-123827868D02*
X146414114Y-124157868D01*
X146414114Y-124157868D02*
X152954114Y-124157868D01*
X152954114Y-121417868D02*
X152954114Y-121747868D01*
X152954114Y-124157868D02*
X152954114Y-123827868D01*
%TO.C,SW1*%
X117710000Y-114602500D02*
X117710000Y-116102500D01*
X118960000Y-118602500D02*
X123460000Y-118602500D01*
X123460000Y-112102500D02*
X118960000Y-112102500D01*
X124710000Y-116102500D02*
X124710000Y-114602500D01*
D15*
%TO.C,K1*%
X118325900Y-94179500D02*
X118325900Y-106879500D01*
X118325900Y-106879500D02*
X126199900Y-106879500D01*
X126199900Y-94179500D02*
X118325900Y-94179500D01*
X126199900Y-106879500D02*
X126199900Y-94179500D01*
X117665500Y-95322500D02*
G75*
G02*
X117513100Y-95322500I-76200J0D01*
G01*
X117513100Y-95322500D02*
G75*
G02*
X117665500Y-95322500I76200J0D01*
G01*
D13*
%TO.C,J2*%
X105120000Y-98560000D02*
X106120000Y-99060000D01*
X105120000Y-99560000D02*
X105120000Y-98560000D01*
X106120000Y-99060000D02*
X105120000Y-99560000D01*
X106520000Y-96810000D02*
X111920000Y-96810000D01*
X106520000Y-106410000D02*
X106520000Y-96810000D01*
X111920000Y-96810000D02*
X111920000Y-106410000D01*
X111920000Y-106410000D02*
X106520000Y-106410000D01*
%TO.C,J5*%
X145779431Y-98480460D02*
X146779431Y-98980460D01*
X145779431Y-99480460D02*
X145779431Y-98480460D01*
X146779431Y-98980460D02*
X145779431Y-99480460D01*
X147179431Y-96730460D02*
X152579431Y-96730460D01*
X147179431Y-106330460D02*
X147179431Y-96730460D01*
X152579431Y-96730460D02*
X152579431Y-106330460D01*
X152579431Y-106330460D02*
X147179431Y-106330460D01*
%TO.C,J4*%
X104950250Y-113282000D02*
X105950250Y-113782000D01*
X104950250Y-114282000D02*
X104950250Y-113282000D01*
X105950250Y-113782000D02*
X104950250Y-114282000D01*
X106350250Y-111532000D02*
X111750250Y-111532000D01*
X106350250Y-121132000D02*
X106350250Y-111532000D01*
X111750250Y-111532000D02*
X111750250Y-121132000D01*
X111750250Y-121132000D02*
X106350250Y-121132000D01*
D14*
%TO.C,K2*%
X133050000Y-93812500D02*
X135240000Y-93812500D01*
X133050000Y-96152500D02*
X133050000Y-93812500D01*
X133270000Y-94052500D02*
X133270000Y-109312500D01*
X136750000Y-94722500D02*
X136750000Y-95922500D01*
X136750000Y-95522500D02*
X137450000Y-95122500D01*
X136750000Y-95922500D02*
X137450000Y-95922500D01*
X136750000Y-107422500D02*
X136750000Y-108622500D01*
X136750000Y-108222500D02*
X137450000Y-107822500D01*
X136750000Y-108622500D02*
X137450000Y-108622500D01*
X137450000Y-94722500D02*
X136750000Y-94722500D01*
X137450000Y-95922500D02*
X137450000Y-94722500D01*
X137450000Y-107422500D02*
X136750000Y-107422500D01*
X137450000Y-108622500D02*
X137450000Y-107422500D01*
X141050000Y-94032500D02*
X133270000Y-94032500D01*
X141050000Y-94032500D02*
X141050000Y-109312500D01*
X141050000Y-109312500D02*
X133270000Y-109312500D01*
%TD*%
M02*
