%TF.GenerationSoftware,KiCad,Pcbnew,8.0.5*%
%TF.CreationDate,2024-11-24T23:39:12-05:00*%
%TF.ProjectId,imd_latch_cdr_f24,696d645f-6c61-4746-9368-5f6364725f66,rev?*%
%TF.SameCoordinates,Original*%
%TF.FileFunction,Copper,L1,Top*%
%TF.FilePolarity,Positive*%
%FSLAX46Y46*%
G04 Gerber Fmt 4.6, Leading zero omitted, Abs format (unit mm)*
G04 Created by KiCad (PCBNEW 8.0.5) date 2024-11-24 23:39:12*
%MOMM*%
%LPD*%
G01*
G04 APERTURE LIST*
G04 Aperture macros list*
%AMRoundRect*
0 Rectangle with rounded corners*
0 $1 Rounding radius*
0 $2 $3 $4 $5 $6 $7 $8 $9 X,Y pos of 4 corners*
0 Add a 4 corners polygon primitive as box body*
4,1,4,$2,$3,$4,$5,$6,$7,$8,$9,$2,$3,0*
0 Add four circle primitives for the rounded corners*
1,1,$1+$1,$2,$3*
1,1,$1+$1,$4,$5*
1,1,$1+$1,$6,$7*
1,1,$1+$1,$8,$9*
0 Add four rect primitives between the rounded corners*
20,1,$1+$1,$2,$3,$4,$5,0*
20,1,$1+$1,$4,$5,$6,$7,0*
20,1,$1+$1,$6,$7,$8,$9,0*
20,1,$1+$1,$8,$9,$2,$3,0*%
G04 Aperture macros list end*
%TA.AperFunction,ComponentPad*%
%ADD10C,8.600000*%
%TD*%
%TA.AperFunction,ComponentPad*%
%ADD11R,1.750000X1.750000*%
%TD*%
%TA.AperFunction,ComponentPad*%
%ADD12C,1.750000*%
%TD*%
%TA.AperFunction,ComponentPad*%
%ADD13R,2.200000X2.200000*%
%TD*%
%TA.AperFunction,ComponentPad*%
%ADD14O,2.200000X2.200000*%
%TD*%
%TA.AperFunction,ComponentPad*%
%ADD15R,1.800000X1.800000*%
%TD*%
%TA.AperFunction,ComponentPad*%
%ADD16C,1.800000*%
%TD*%
%TA.AperFunction,ComponentPad*%
%ADD17C,1.600000*%
%TD*%
%TA.AperFunction,ComponentPad*%
%ADD18O,1.600000X1.600000*%
%TD*%
%TA.AperFunction,ComponentPad*%
%ADD19C,2.000000*%
%TD*%
%TA.AperFunction,ComponentPad*%
%ADD20C,1.524000*%
%TD*%
%TA.AperFunction,ComponentPad*%
%ADD21RoundRect,0.250500X-0.499500X-0.499500X0.499500X-0.499500X0.499500X0.499500X-0.499500X0.499500X0*%
%TD*%
%TA.AperFunction,ComponentPad*%
%ADD22C,1.500000*%
%TD*%
%TA.AperFunction,Conductor*%
%ADD23C,0.900000*%
%TD*%
G04 APERTURE END LIST*
D10*
%TO.P,REF\u002A\u002A,1*%
%TO.N,GND*%
X98552000Y-84836000D03*
%TD*%
D11*
%TO.P,J3,1,1*%
%TO.N,VCC*%
X149860000Y-84162000D03*
D12*
%TO.P,J3,2,2*%
%TO.N,GND*%
X149860000Y-89662000D03*
%TD*%
D13*
%TO.P,D3,1,K*%
%TO.N,Net-(D3-K)*%
X142240000Y-113102500D03*
D14*
%TO.P,D3,2,A*%
%TO.N,GND*%
X132080000Y-113102500D03*
%TD*%
D13*
%TO.P,D1,1,K*%
%TO.N,Net-(D1-K)*%
X127000000Y-87702500D03*
D14*
%TO.P,D1,2,A*%
%TO.N,GND*%
X116840000Y-87702500D03*
%TD*%
D15*
%TO.P,D4,1,K*%
%TO.N,GND*%
X151643000Y-114554000D03*
D16*
%TO.P,D4,2,A*%
%TO.N,Net-(D4-A)*%
X149103000Y-114554000D03*
%TD*%
D13*
%TO.P,D2,1,K*%
%TO.N,Net-(D2-K)*%
X142240000Y-87702500D03*
D14*
%TO.P,D2,2,A*%
%TO.N,GND*%
X132080000Y-87702500D03*
%TD*%
D11*
%TO.P,J1,1,1*%
%TO.N,Net-(D1-K)*%
X109220000Y-83820000D03*
D12*
%TO.P,J1,2,2*%
%TO.N,GND*%
X109220000Y-89320000D03*
%TD*%
D17*
%TO.P,R1,1*%
%TO.N,Net-(J5-Pad1)*%
X145874114Y-122787868D03*
D18*
%TO.P,R1,2*%
%TO.N,Net-(D4-A)*%
X153494114Y-122787868D03*
%TD*%
D19*
%TO.P,SW1,1,1*%
%TO.N,Net-(D1-K)*%
X117960000Y-113102500D03*
X124460000Y-113102500D03*
%TO.P,SW1,2,2*%
%TO.N,Net-(D3-K)*%
X117960000Y-117602500D03*
X124460000Y-117602500D03*
%TD*%
D20*
%TO.P,K1,1,1*%
%TO.N,Net-(J2-Pad1)*%
X119722900Y-95322500D03*
%TO.P,K1,2,2*%
%TO.N,GND*%
X119722900Y-102942500D03*
%TO.P,K1,3,3*%
%TO.N,Net-(D2-K)*%
X119722900Y-105482500D03*
%TO.P,K1,4,4*%
%TO.N,Net-(K1-Pad4)*%
X124802900Y-105482500D03*
%TO.P,K1,5,5*%
%TO.N,Net-(D1-K)*%
X124802900Y-102942500D03*
%TO.P,K1,6,6*%
%TO.N,unconnected-(K1-Pad6)*%
X124802900Y-95322500D03*
%TD*%
D11*
%TO.P,J2,1,1*%
%TO.N,Net-(J2-Pad1)*%
X109220000Y-99060000D03*
D12*
%TO.P,J2,2,2*%
%TO.N,GND*%
X109220000Y-104560000D03*
%TD*%
D10*
%TO.P,REF\u002A\u002A,1*%
%TO.N,GND*%
X160782000Y-119888000D03*
%TD*%
D11*
%TO.P,J5,1,1*%
%TO.N,Net-(J5-Pad1)*%
X149879431Y-98980460D03*
D12*
%TO.P,J5,2,2*%
%TO.N,GND*%
X149879431Y-104480460D03*
%TD*%
D11*
%TO.P,J4,1,1*%
%TO.N,Net-(J4-Pad1)*%
X109050250Y-113782000D03*
D12*
%TO.P,J4,2,2*%
%TO.N,GND*%
X109050250Y-119282000D03*
%TD*%
D10*
%TO.P,REF\u002A\u002A,1*%
%TO.N,GND*%
X160782000Y-84836000D03*
%TD*%
D21*
%TO.P,K2,1*%
%TO.N,GND*%
X134620000Y-95322500D03*
D22*
%TO.P,K2,3*%
%TO.N,Net-(J4-Pad1)*%
X134620000Y-100402500D03*
%TO.P,K2,4*%
%TO.N,Net-(K1-Pad4)*%
X134620000Y-102942500D03*
%TO.P,K2,5*%
%TO.N,unconnected-(K2-Pad5)*%
X134620000Y-105482500D03*
%TO.P,K2,6*%
%TO.N,GND*%
X134620000Y-108022500D03*
%TO.P,K2,7*%
%TO.N,Net-(D3-K)*%
X139700000Y-108022500D03*
%TO.P,K2,8*%
%TO.N,Net-(J5-Pad1)*%
X139700000Y-105482500D03*
%TO.P,K2,9*%
%TO.N,VCC*%
X139700000Y-102942500D03*
%TO.P,K2,10*%
%TO.N,unconnected-(K2-Pad10)*%
X139700000Y-100402500D03*
%TO.P,K2,12*%
%TO.N,Net-(D2-K)*%
X139700000Y-95322500D03*
%TD*%
D10*
%TO.P,REF\u002A\u002A,1*%
%TO.N,GND*%
X98552000Y-119888000D03*
%TD*%
D23*
%TO.N,Net-(D1-K)*%
X124460000Y-113102500D02*
X124387500Y-113030000D01*
X118032500Y-113030000D02*
X117960000Y-113102500D01*
%TO.N,Net-(D2-K)*%
X127205400Y-98000000D02*
X137022500Y-98000000D01*
X119722900Y-105482500D02*
X127205400Y-98000000D01*
X137022500Y-98000000D02*
X139700000Y-95322500D01*
X139700000Y-90242500D02*
X142240000Y-87702500D01*
X139700000Y-95322500D02*
X139700000Y-90242500D01*
%TO.N,Net-(D3-K)*%
X137740000Y-117602500D02*
X142240000Y-113102500D01*
X124460000Y-117602500D02*
X137740000Y-117602500D01*
X142240000Y-110562500D02*
X139700000Y-108022500D01*
X124460000Y-117602500D02*
X117960000Y-117602500D01*
X142240000Y-113102500D02*
X142240000Y-110562500D01*
%TO.N,Net-(D4-A)*%
X153416000Y-122428000D02*
X153416000Y-122174000D01*
X149103000Y-117861000D02*
X149103000Y-114554000D01*
X153416000Y-122174000D02*
X149103000Y-117861000D01*
%TO.N,Net-(J2-Pad1)*%
X109220000Y-99060000D02*
X113030000Y-95250000D01*
X119722900Y-95322500D02*
X119722900Y-95415100D01*
X113030000Y-95250000D02*
X119650400Y-95250000D01*
X119650400Y-95250000D02*
X119722900Y-95322500D01*
%TO.N,Net-(J4-Pad1)*%
X132597500Y-100402500D02*
X134620000Y-100402500D01*
X127000000Y-110000000D02*
X130000000Y-107000000D01*
X112832250Y-110000000D02*
X127000000Y-110000000D01*
X130000000Y-103000000D02*
X132597500Y-100402500D01*
X130000000Y-107000000D02*
X130000000Y-103000000D01*
X109050250Y-113782000D02*
X112832250Y-110000000D01*
%TO.N,Net-(J5-Pad1)*%
X145874114Y-122787868D02*
X145796000Y-122709754D01*
X145796000Y-122709754D02*
X145796000Y-109796000D01*
X141482500Y-105482500D02*
X139700000Y-105482500D01*
X141151500Y-105482500D02*
X147653540Y-98980460D01*
X147653540Y-98980460D02*
X149879431Y-98980460D01*
X139700000Y-105482500D02*
X141151500Y-105482500D01*
X145796000Y-109796000D02*
X141482500Y-105482500D01*
%TD*%
%TA.AperFunction,Conductor*%
%TO.N,VCC*%
G36*
X167336539Y-78752185D02*
G01*
X167382294Y-78804989D01*
X167393500Y-78856500D01*
X167393500Y-126887500D01*
X167373815Y-126954539D01*
X167321011Y-127000294D01*
X167269500Y-127011500D01*
X92198500Y-127011500D01*
X92131461Y-126991815D01*
X92085706Y-126939011D01*
X92074500Y-126887500D01*
X92074500Y-119887996D01*
X93746661Y-119887996D01*
X93746661Y-119888003D01*
X93766005Y-120318737D01*
X93766006Y-120318746D01*
X93823885Y-120746027D01*
X93919830Y-121166391D01*
X94053073Y-121576472D01*
X94053076Y-121576480D01*
X94222533Y-121972947D01*
X94222537Y-121972955D01*
X94222539Y-121972958D01*
X94426863Y-122352655D01*
X94426867Y-122352661D01*
X94426867Y-122352662D01*
X94664394Y-122712501D01*
X94664404Y-122712514D01*
X94933225Y-123049607D01*
X94933235Y-123049618D01*
X94933236Y-123049619D01*
X95231210Y-123361274D01*
X95555920Y-123644965D01*
X95904753Y-123898407D01*
X96274900Y-124119560D01*
X96274903Y-124119561D01*
X96274904Y-124119562D01*
X96274906Y-124119563D01*
X96663372Y-124306639D01*
X96663386Y-124306645D01*
X97067055Y-124458144D01*
X97067059Y-124458145D01*
X97067069Y-124458149D01*
X97482711Y-124572859D01*
X97906964Y-124649850D01*
X98336409Y-124688500D01*
X98336416Y-124688500D01*
X98767584Y-124688500D01*
X98767591Y-124688500D01*
X99197036Y-124649850D01*
X99621289Y-124572859D01*
X100036931Y-124458149D01*
X100440619Y-124306643D01*
X100829100Y-124119560D01*
X101199247Y-123898407D01*
X101548080Y-123644965D01*
X101872790Y-123361274D01*
X102170764Y-123049619D01*
X102198728Y-123014554D01*
X102379503Y-122787868D01*
X102439601Y-122712507D01*
X102677137Y-122352655D01*
X102881461Y-121972958D01*
X103050926Y-121576475D01*
X103184168Y-121166397D01*
X103280115Y-120746026D01*
X103337994Y-120318747D01*
X103357339Y-119888000D01*
X103337994Y-119457253D01*
X103314253Y-119281993D01*
X107670036Y-119281993D01*
X107670036Y-119282006D01*
X107688858Y-119509168D01*
X107688860Y-119509179D01*
X107744819Y-119730155D01*
X107836387Y-119938908D01*
X107961064Y-120129742D01*
X108115458Y-120297458D01*
X108115462Y-120297461D01*
X108295340Y-120437466D01*
X108295344Y-120437469D01*
X108295346Y-120437470D01*
X108295349Y-120437472D01*
X108411896Y-120500543D01*
X108495824Y-120545963D01*
X108607779Y-120584397D01*
X108711423Y-120619979D01*
X108711425Y-120619979D01*
X108711427Y-120619980D01*
X108936273Y-120657500D01*
X108936274Y-120657500D01*
X109164226Y-120657500D01*
X109164227Y-120657500D01*
X109389073Y-120619980D01*
X109604676Y-120545963D01*
X109805156Y-120437469D01*
X109985044Y-120297456D01*
X110139433Y-120129745D01*
X110264112Y-119938909D01*
X110355680Y-119730155D01*
X110411640Y-119509176D01*
X110415942Y-119457262D01*
X110430464Y-119282006D01*
X110430464Y-119281993D01*
X110411641Y-119054831D01*
X110411639Y-119054820D01*
X110355680Y-118833844D01*
X110264112Y-118625091D01*
X110139435Y-118434257D01*
X109985041Y-118266541D01*
X109985037Y-118266538D01*
X109805159Y-118126533D01*
X109805150Y-118126527D01*
X109604682Y-118018040D01*
X109604679Y-118018039D01*
X109604676Y-118018037D01*
X109604670Y-118018035D01*
X109604668Y-118018034D01*
X109389076Y-117944020D01*
X109220438Y-117915880D01*
X109164227Y-117906500D01*
X108936273Y-117906500D01*
X108891303Y-117914004D01*
X108711423Y-117944020D01*
X108495831Y-118018034D01*
X108495817Y-118018040D01*
X108295349Y-118126527D01*
X108295340Y-118126533D01*
X108115462Y-118266538D01*
X108115458Y-118266541D01*
X107961064Y-118434257D01*
X107836387Y-118625091D01*
X107744819Y-118833844D01*
X107688860Y-119054820D01*
X107688858Y-119054831D01*
X107670036Y-119281993D01*
X103314253Y-119281993D01*
X103280115Y-119029974D01*
X103184168Y-118609603D01*
X103050926Y-118199525D01*
X102941718Y-117944020D01*
X102881466Y-117803052D01*
X102881462Y-117803044D01*
X102773547Y-117602505D01*
X102773541Y-117602494D01*
X116454357Y-117602494D01*
X116454357Y-117602505D01*
X116474890Y-117850312D01*
X116474892Y-117850324D01*
X116535936Y-118091381D01*
X116635826Y-118319106D01*
X116771833Y-118527282D01*
X116804245Y-118562491D01*
X116940256Y-118710238D01*
X117136491Y-118862974D01*
X117355190Y-118981328D01*
X117590386Y-119062071D01*
X117835665Y-119103000D01*
X118084335Y-119103000D01*
X118329614Y-119062071D01*
X118564810Y-118981328D01*
X118783509Y-118862974D01*
X118979744Y-118710238D01*
X119016875Y-118669902D01*
X119087655Y-118593017D01*
X119147542Y-118557026D01*
X119178884Y-118553000D01*
X123241116Y-118553000D01*
X123308155Y-118572685D01*
X123332345Y-118593017D01*
X123440252Y-118710234D01*
X123440256Y-118710238D01*
X123636491Y-118862974D01*
X123855190Y-118981328D01*
X124090386Y-119062071D01*
X124335665Y-119103000D01*
X124584335Y-119103000D01*
X124829614Y-119062071D01*
X125064810Y-118981328D01*
X125283509Y-118862974D01*
X125479744Y-118710238D01*
X125516875Y-118669902D01*
X125587655Y-118593017D01*
X125647542Y-118557026D01*
X125678884Y-118553000D01*
X137833619Y-118553000D01*
X137919802Y-118535856D01*
X137962895Y-118527285D01*
X138017251Y-118516473D01*
X138088901Y-118486794D01*
X138190230Y-118444823D01*
X138345908Y-118340802D01*
X141947391Y-114739317D01*
X142008714Y-114705833D01*
X142035072Y-114702999D01*
X143387871Y-114702999D01*
X143387872Y-114702999D01*
X143447483Y-114696591D01*
X143582331Y-114646296D01*
X143697546Y-114560046D01*
X143783796Y-114444831D01*
X143834091Y-114309983D01*
X143840500Y-114250373D01*
X143840499Y-111954628D01*
X143834091Y-111895017D01*
X143800017Y-111803661D01*
X143783797Y-111760171D01*
X143783793Y-111760164D01*
X143697547Y-111644955D01*
X143697544Y-111644952D01*
X143582335Y-111558706D01*
X143582328Y-111558702D01*
X143447482Y-111508408D01*
X143447483Y-111508408D01*
X143387883Y-111502001D01*
X143387881Y-111502000D01*
X143387873Y-111502000D01*
X143387865Y-111502000D01*
X143314500Y-111502000D01*
X143247461Y-111482315D01*
X143201706Y-111429511D01*
X143190500Y-111378000D01*
X143190500Y-110468883D01*
X143190499Y-110468879D01*
X143153974Y-110285256D01*
X143153973Y-110285249D01*
X143082322Y-110112269D01*
X143082321Y-110112268D01*
X143082318Y-110112262D01*
X142978303Y-109956593D01*
X142978302Y-109956592D01*
X142845908Y-109824198D01*
X140978663Y-107956953D01*
X140945178Y-107895630D01*
X140942817Y-107880088D01*
X140936207Y-107804523D01*
X140879575Y-107593170D01*
X140787102Y-107394862D01*
X140787100Y-107394859D01*
X140787099Y-107394857D01*
X140661599Y-107215624D01*
X140661596Y-107215621D01*
X140506877Y-107060902D01*
X140327639Y-106935398D01*
X140176414Y-106864881D01*
X140123977Y-106818710D01*
X140104825Y-106751516D01*
X140125041Y-106684635D01*
X140176414Y-106640118D01*
X140327639Y-106569602D01*
X140490701Y-106455424D01*
X140556905Y-106433098D01*
X140561823Y-106433000D01*
X141037428Y-106433000D01*
X141104467Y-106452685D01*
X141125109Y-106469319D01*
X144809181Y-110153391D01*
X144842666Y-110214714D01*
X144845500Y-110241072D01*
X144845500Y-121950430D01*
X144825815Y-122017469D01*
X144823089Y-122021532D01*
X144743546Y-122135134D01*
X144743546Y-122135135D01*
X144743544Y-122135138D01*
X144647375Y-122341370D01*
X144647372Y-122341379D01*
X144588480Y-122561170D01*
X144588478Y-122561181D01*
X144568646Y-122787866D01*
X144568646Y-122787869D01*
X144588478Y-123014554D01*
X144588480Y-123014565D01*
X144647372Y-123234356D01*
X144647375Y-123234365D01*
X144743545Y-123440600D01*
X144743546Y-123440602D01*
X144874068Y-123627009D01*
X145034972Y-123787913D01*
X145034975Y-123787915D01*
X145221380Y-123918436D01*
X145427618Y-124014607D01*
X145647422Y-124073503D01*
X145809344Y-124087669D01*
X145874112Y-124093336D01*
X145874114Y-124093336D01*
X145874116Y-124093336D01*
X145930787Y-124088377D01*
X146100806Y-124073503D01*
X146320610Y-124014607D01*
X146526848Y-123918436D01*
X146713253Y-123787915D01*
X146874161Y-123627007D01*
X147004682Y-123440602D01*
X147100853Y-123234364D01*
X147159749Y-123014560D01*
X147179582Y-122787868D01*
X147159749Y-122561176D01*
X147100853Y-122341372D01*
X147004682Y-122135134D01*
X146891124Y-121972955D01*
X146874159Y-121948726D01*
X146782819Y-121857386D01*
X146749334Y-121796063D01*
X146746500Y-121769705D01*
X146746500Y-114553993D01*
X147697700Y-114553993D01*
X147697700Y-114554006D01*
X147716864Y-114785297D01*
X147716866Y-114785308D01*
X147773842Y-115010300D01*
X147867075Y-115222848D01*
X147963498Y-115370435D01*
X147994021Y-115417153D01*
X148119732Y-115553712D01*
X148150652Y-115616363D01*
X148152500Y-115637691D01*
X148152500Y-117954620D01*
X148189025Y-118138243D01*
X148189027Y-118138251D01*
X148214408Y-118199526D01*
X148260677Y-118311230D01*
X148260678Y-118311233D01*
X148364697Y-118466907D01*
X148364700Y-118466911D01*
X152210789Y-122312999D01*
X152244274Y-122374322D01*
X152242883Y-122432772D01*
X152208481Y-122561168D01*
X152208478Y-122561181D01*
X152188646Y-122787867D01*
X152188646Y-122787869D01*
X152208478Y-123014554D01*
X152208480Y-123014565D01*
X152267372Y-123234356D01*
X152267375Y-123234365D01*
X152363545Y-123440600D01*
X152363546Y-123440602D01*
X152494068Y-123627009D01*
X152654972Y-123787913D01*
X152654975Y-123787915D01*
X152841380Y-123918436D01*
X153047618Y-124014607D01*
X153267422Y-124073503D01*
X153429344Y-124087669D01*
X153494112Y-124093336D01*
X153494114Y-124093336D01*
X153494116Y-124093336D01*
X153550787Y-124088377D01*
X153720806Y-124073503D01*
X153940610Y-124014607D01*
X154146848Y-123918436D01*
X154333253Y-123787915D01*
X154494161Y-123627007D01*
X154624682Y-123440602D01*
X154720853Y-123234364D01*
X154779749Y-123014560D01*
X154799582Y-122787868D01*
X154779749Y-122561176D01*
X154720853Y-122341372D01*
X154624682Y-122135134D01*
X154559421Y-122041931D01*
X154494162Y-121948730D01*
X154494158Y-121948726D01*
X154333253Y-121787821D01*
X154307381Y-121769705D01*
X154291922Y-121758880D01*
X154259946Y-121726198D01*
X154154301Y-121568091D01*
X154154298Y-121568087D01*
X152474207Y-119887996D01*
X155976661Y-119887996D01*
X155976661Y-119888003D01*
X155996005Y-120318737D01*
X155996006Y-120318746D01*
X156053885Y-120746027D01*
X156149830Y-121166391D01*
X156283073Y-121576472D01*
X156283076Y-121576480D01*
X156452533Y-121972947D01*
X156452537Y-121972955D01*
X156452539Y-121972958D01*
X156656863Y-122352655D01*
X156656867Y-122352661D01*
X156656867Y-122352662D01*
X156894394Y-122712501D01*
X156894404Y-122712514D01*
X157163225Y-123049607D01*
X157163235Y-123049618D01*
X157163236Y-123049619D01*
X157461210Y-123361274D01*
X157785920Y-123644965D01*
X158134753Y-123898407D01*
X158504900Y-124119560D01*
X158504903Y-124119561D01*
X158504904Y-124119562D01*
X158504906Y-124119563D01*
X158893372Y-124306639D01*
X158893386Y-124306645D01*
X159297055Y-124458144D01*
X159297059Y-124458145D01*
X159297069Y-124458149D01*
X159712711Y-124572859D01*
X160136964Y-124649850D01*
X160566409Y-124688500D01*
X160566416Y-124688500D01*
X160997584Y-124688500D01*
X160997591Y-124688500D01*
X161427036Y-124649850D01*
X161851289Y-124572859D01*
X162266931Y-124458149D01*
X162670619Y-124306643D01*
X163059100Y-124119560D01*
X163429247Y-123898407D01*
X163778080Y-123644965D01*
X164102790Y-123361274D01*
X164400764Y-123049619D01*
X164428728Y-123014554D01*
X164609503Y-122787868D01*
X164669601Y-122712507D01*
X164907137Y-122352655D01*
X165111461Y-121972958D01*
X165280926Y-121576475D01*
X165414168Y-121166397D01*
X165510115Y-120746026D01*
X165567994Y-120318747D01*
X165587339Y-119888000D01*
X165567994Y-119457253D01*
X165510115Y-119029974D01*
X165414168Y-118609603D01*
X165280926Y-118199525D01*
X165171718Y-117944020D01*
X165111466Y-117803052D01*
X165111462Y-117803044D01*
X165003547Y-117602505D01*
X164907137Y-117423345D01*
X164907132Y-117423337D01*
X164669605Y-117063498D01*
X164669595Y-117063485D01*
X164400774Y-116726392D01*
X164400762Y-116726379D01*
X164102794Y-116414730D01*
X164102793Y-116414729D01*
X164102790Y-116414726D01*
X163778080Y-116131035D01*
X163738117Y-116102000D01*
X163429256Y-115877599D01*
X163429251Y-115877596D01*
X163429247Y-115877593D01*
X163059100Y-115656440D01*
X163059095Y-115656437D01*
X163059093Y-115656436D01*
X162670627Y-115469360D01*
X162670613Y-115469354D01*
X162266944Y-115317855D01*
X162266919Y-115317847D01*
X161851295Y-115203142D01*
X161427043Y-115126151D01*
X161427040Y-115126150D01*
X161427036Y-115126150D01*
X160997591Y-115087500D01*
X160566409Y-115087500D01*
X160136964Y-115126150D01*
X160136960Y-115126150D01*
X160136956Y-115126151D01*
X159712704Y-115203142D01*
X159297080Y-115317847D01*
X159297055Y-115317855D01*
X158893386Y-115469354D01*
X158893372Y-115469360D01*
X158504906Y-115656436D01*
X158504904Y-115656437D01*
X158134743Y-115877599D01*
X157785931Y-116131026D01*
X157785914Y-116131039D01*
X157461210Y-116414726D01*
X157461205Y-116414730D01*
X157163237Y-116726379D01*
X157163225Y-116726392D01*
X156894404Y-117063485D01*
X156894394Y-117063498D01*
X156656867Y-117423337D01*
X156656867Y-117423338D01*
X156452537Y-117803044D01*
X156452533Y-117803052D01*
X156283076Y-118199519D01*
X156283074Y-118199522D01*
X156283074Y-118199525D01*
X156221254Y-118389785D01*
X156149830Y-118609608D01*
X156053885Y-119029972D01*
X155996006Y-119457253D01*
X155996005Y-119457262D01*
X155976661Y-119887996D01*
X152474207Y-119887996D01*
X150089819Y-117503608D01*
X150056334Y-117442285D01*
X150053500Y-117415927D01*
X150053500Y-115724859D01*
X150073185Y-115657820D01*
X150125989Y-115612065D01*
X150195147Y-115602121D01*
X150258703Y-115631146D01*
X150293681Y-115681525D01*
X150296921Y-115690211D01*
X150299204Y-115696332D01*
X150299206Y-115696335D01*
X150385452Y-115811544D01*
X150385455Y-115811547D01*
X150500664Y-115897793D01*
X150500671Y-115897797D01*
X150635517Y-115948091D01*
X150635516Y-115948091D01*
X150642444Y-115948835D01*
X150695127Y-115954500D01*
X152590872Y-115954499D01*
X152650483Y-115948091D01*
X152785331Y-115897796D01*
X152900546Y-115811546D01*
X152986796Y-115696331D01*
X153037091Y-115561483D01*
X153043500Y-115501873D01*
X153043499Y-113606128D01*
X153037091Y-113546517D01*
X153027233Y-113520087D01*
X152986797Y-113411671D01*
X152986793Y-113411664D01*
X152900547Y-113296455D01*
X152900544Y-113296452D01*
X152785335Y-113210206D01*
X152785328Y-113210202D01*
X152650482Y-113159908D01*
X152650483Y-113159908D01*
X152590883Y-113153501D01*
X152590881Y-113153500D01*
X152590873Y-113153500D01*
X152590864Y-113153500D01*
X150695129Y-113153500D01*
X150695123Y-113153501D01*
X150635516Y-113159908D01*
X150500671Y-113210202D01*
X150500664Y-113210206D01*
X150385455Y-113296452D01*
X150385452Y-113296455D01*
X150299206Y-113411664D01*
X150299203Y-113411670D01*
X150270544Y-113488508D01*
X150228672Y-113544441D01*
X150163208Y-113568858D01*
X150094935Y-113554006D01*
X150063135Y-113529158D01*
X150054784Y-113520087D01*
X150054778Y-113520082D01*
X150054777Y-113520081D01*
X149871634Y-113377535D01*
X149871628Y-113377531D01*
X149667504Y-113267064D01*
X149667495Y-113267061D01*
X149447984Y-113191702D01*
X149257450Y-113159908D01*
X149219049Y-113153500D01*
X148986951Y-113153500D01*
X148948550Y-113159908D01*
X148758015Y-113191702D01*
X148538504Y-113267061D01*
X148538495Y-113267064D01*
X148334371Y-113377531D01*
X148334365Y-113377535D01*
X148151222Y-113520081D01*
X148151219Y-113520084D01*
X148151216Y-113520086D01*
X148151216Y-113520087D01*
X148106319Y-113568858D01*
X147994016Y-113690852D01*
X147867075Y-113885151D01*
X147773842Y-114097699D01*
X147716866Y-114322691D01*
X147716864Y-114322702D01*
X147697700Y-114553993D01*
X146746500Y-114553993D01*
X146746500Y-109702383D01*
X146746499Y-109702379D01*
X146709974Y-109518756D01*
X146709973Y-109518749D01*
X146638322Y-109345769D01*
X146638321Y-109345768D01*
X146638318Y-109345762D01*
X146534303Y-109190093D01*
X146501883Y-109157673D01*
X146401908Y-109057698D01*
X142748891Y-105404681D01*
X142715406Y-105343358D01*
X142720390Y-105273666D01*
X142748891Y-105229319D01*
X143497757Y-104480453D01*
X148499217Y-104480453D01*
X148499217Y-104480466D01*
X148518039Y-104707628D01*
X148518041Y-104707639D01*
X148574000Y-104928615D01*
X148665568Y-105137368D01*
X148790245Y-105328202D01*
X148944639Y-105495918D01*
X148944643Y-105495921D01*
X149046832Y-105575458D01*
X149124525Y-105635929D01*
X149124527Y-105635930D01*
X149124530Y-105635932D01*
X149241077Y-105699003D01*
X149325005Y-105744423D01*
X149436960Y-105782857D01*
X149540604Y-105818439D01*
X149540606Y-105818439D01*
X149540608Y-105818440D01*
X149765454Y-105855960D01*
X149765455Y-105855960D01*
X149993407Y-105855960D01*
X149993408Y-105855960D01*
X150218254Y-105818440D01*
X150433857Y-105744423D01*
X150634337Y-105635929D01*
X150814225Y-105495916D01*
X150968614Y-105328205D01*
X151093293Y-105137369D01*
X151184861Y-104928615D01*
X151240821Y-104707636D01*
X151244115Y-104667881D01*
X151259645Y-104480466D01*
X151259645Y-104480453D01*
X151240822Y-104253291D01*
X151240820Y-104253280D01*
X151184861Y-104032304D01*
X151093293Y-103823551D01*
X150968616Y-103632717D01*
X150814222Y-103465001D01*
X150814218Y-103464998D01*
X150634340Y-103324993D01*
X150634331Y-103324987D01*
X150433863Y-103216500D01*
X150433860Y-103216499D01*
X150433857Y-103216497D01*
X150433851Y-103216495D01*
X150433849Y-103216494D01*
X150218257Y-103142480D01*
X150049619Y-103114340D01*
X149993408Y-103104960D01*
X149765454Y-103104960D01*
X149720484Y-103112464D01*
X149540604Y-103142480D01*
X149325012Y-103216494D01*
X149324998Y-103216500D01*
X149124530Y-103324987D01*
X149124521Y-103324993D01*
X148944643Y-103464998D01*
X148944639Y-103465001D01*
X148790245Y-103632717D01*
X148665568Y-103823551D01*
X148574000Y-104032304D01*
X148518041Y-104253280D01*
X148518039Y-104253291D01*
X148499217Y-104480453D01*
X143497757Y-104480453D01*
X148010931Y-99967279D01*
X148072254Y-99933794D01*
X148098612Y-99930960D01*
X148412316Y-99930960D01*
X148479355Y-99950645D01*
X148525110Y-100003449D01*
X148528498Y-100011627D01*
X148560633Y-100097788D01*
X148560637Y-100097795D01*
X148646883Y-100213004D01*
X148646886Y-100213007D01*
X148762095Y-100299253D01*
X148762102Y-100299257D01*
X148896948Y-100349551D01*
X148896947Y-100349551D01*
X148903875Y-100350295D01*
X148956558Y-100355960D01*
X150802303Y-100355959D01*
X150861914Y-100349551D01*
X150996762Y-100299256D01*
X151111977Y-100213006D01*
X151198227Y-100097791D01*
X151248522Y-99962943D01*
X151254931Y-99903333D01*
X151254930Y-98057588D01*
X151248522Y-97997977D01*
X151230364Y-97949294D01*
X151198228Y-97863131D01*
X151198224Y-97863124D01*
X151111978Y-97747915D01*
X151111975Y-97747912D01*
X150996766Y-97661666D01*
X150996759Y-97661662D01*
X150861913Y-97611368D01*
X150861914Y-97611368D01*
X150802314Y-97604961D01*
X150802312Y-97604960D01*
X150802304Y-97604960D01*
X150802295Y-97604960D01*
X148956560Y-97604960D01*
X148956554Y-97604961D01*
X148896947Y-97611368D01*
X148762102Y-97661662D01*
X148762095Y-97661666D01*
X148646886Y-97747912D01*
X148646883Y-97747915D01*
X148560637Y-97863124D01*
X148560634Y-97863129D01*
X148528497Y-97949294D01*
X148486625Y-98005227D01*
X148421161Y-98029644D01*
X148412315Y-98029960D01*
X147559918Y-98029960D01*
X147376296Y-98066485D01*
X147376288Y-98066487D01*
X147310792Y-98093617D01*
X147203311Y-98138136D01*
X147203302Y-98138141D01*
X147047631Y-98242158D01*
X147047627Y-98242161D01*
X140794109Y-104495681D01*
X140732786Y-104529166D01*
X140706428Y-104532000D01*
X140561823Y-104532000D01*
X140494784Y-104512315D01*
X140490732Y-104509597D01*
X140327639Y-104395398D01*
X140327640Y-104395398D01*
X140327638Y-104395397D01*
X140175824Y-104324605D01*
X140123385Y-104278432D01*
X140104233Y-104211239D01*
X140124449Y-104144358D01*
X140175825Y-104099840D01*
X140327388Y-104029166D01*
X140389571Y-103985624D01*
X139746448Y-103342500D01*
X139752661Y-103342500D01*
X139854394Y-103315241D01*
X139945606Y-103262580D01*
X140020080Y-103188106D01*
X140072741Y-103096894D01*
X140100000Y-102995161D01*
X140100000Y-102988946D01*
X140743124Y-103632070D01*
X140786668Y-103569885D01*
X140786669Y-103569883D01*
X140879100Y-103371664D01*
X140879105Y-103371650D01*
X140935710Y-103160394D01*
X140935712Y-103160384D01*
X140954775Y-102942500D01*
X140954775Y-102942499D01*
X140935712Y-102724615D01*
X140935710Y-102724605D01*
X140879105Y-102513349D01*
X140879101Y-102513340D01*
X140786667Y-102315114D01*
X140786666Y-102315112D01*
X140743124Y-102252928D01*
X140743124Y-102252927D01*
X140100000Y-102896051D01*
X140100000Y-102889839D01*
X140072741Y-102788106D01*
X140020080Y-102696894D01*
X139945606Y-102622420D01*
X139854394Y-102569759D01*
X139752661Y-102542500D01*
X139746447Y-102542500D01*
X140389571Y-101899374D01*
X140327387Y-101855833D01*
X140175824Y-101785158D01*
X140123385Y-101738986D01*
X140104233Y-101671792D01*
X140124449Y-101604911D01*
X140175822Y-101560395D01*
X140327639Y-101489602D01*
X140506877Y-101364098D01*
X140661598Y-101209377D01*
X140787102Y-101030139D01*
X140879575Y-100831830D01*
X140936207Y-100620477D01*
X140955277Y-100402500D01*
X140936207Y-100184523D01*
X140879575Y-99973170D01*
X140787102Y-99774862D01*
X140787100Y-99774859D01*
X140787099Y-99774857D01*
X140661599Y-99595624D01*
X140626152Y-99560177D01*
X140506877Y-99440902D01*
X140327639Y-99315398D01*
X140327640Y-99315398D01*
X140327638Y-99315397D01*
X140228484Y-99269161D01*
X140129330Y-99222925D01*
X140129326Y-99222924D01*
X140129322Y-99222922D01*
X139917977Y-99166293D01*
X139700002Y-99147223D01*
X139699998Y-99147223D01*
X139554682Y-99159936D01*
X139482023Y-99166293D01*
X139482020Y-99166293D01*
X139270677Y-99222922D01*
X139270668Y-99222926D01*
X139072361Y-99315398D01*
X139072357Y-99315400D01*
X138893121Y-99440902D01*
X138738402Y-99595621D01*
X138612900Y-99774857D01*
X138612898Y-99774861D01*
X138520426Y-99973168D01*
X138520422Y-99973177D01*
X138463793Y-100184520D01*
X138463793Y-100184524D01*
X138444723Y-100402497D01*
X138444723Y-100402502D01*
X138463793Y-100620475D01*
X138463793Y-100620479D01*
X138520422Y-100831822D01*
X138520424Y-100831826D01*
X138520425Y-100831830D01*
X138566661Y-100930984D01*
X138612897Y-101030138D01*
X138612898Y-101030139D01*
X138738402Y-101209377D01*
X138893123Y-101364098D01*
X139072360Y-101489601D01*
X139072361Y-101489602D01*
X139224175Y-101560394D01*
X139276614Y-101606566D01*
X139295766Y-101673760D01*
X139275550Y-101740641D01*
X139224175Y-101785158D01*
X139072613Y-101855833D01*
X139010428Y-101899374D01*
X139653554Y-102542500D01*
X139647339Y-102542500D01*
X139545606Y-102569759D01*
X139454394Y-102622420D01*
X139379920Y-102696894D01*
X139327259Y-102788106D01*
X139300000Y-102889839D01*
X139300000Y-102896054D01*
X138656874Y-102252928D01*
X138613333Y-102315113D01*
X138520898Y-102513340D01*
X138520894Y-102513349D01*
X138464289Y-102724605D01*
X138464287Y-102724615D01*
X138445225Y-102942499D01*
X138445225Y-102942500D01*
X138464287Y-103160384D01*
X138464289Y-103160394D01*
X138520894Y-103371650D01*
X138520898Y-103371659D01*
X138613333Y-103569887D01*
X138656874Y-103632071D01*
X139300000Y-102988945D01*
X139300000Y-102995161D01*
X139327259Y-103096894D01*
X139379920Y-103188106D01*
X139454394Y-103262580D01*
X139545606Y-103315241D01*
X139647339Y-103342500D01*
X139653553Y-103342500D01*
X139010427Y-103985624D01*
X139072613Y-104029167D01*
X139072615Y-104029168D01*
X139224174Y-104099841D01*
X139276614Y-104146013D01*
X139295766Y-104213206D01*
X139275551Y-104280088D01*
X139224176Y-104324605D01*
X139072358Y-104395400D01*
X139072357Y-104395400D01*
X138893121Y-104520902D01*
X138738402Y-104675621D01*
X138612900Y-104854857D01*
X138612898Y-104854861D01*
X138520426Y-105053168D01*
X138520422Y-105053177D01*
X138463793Y-105264520D01*
X138463793Y-105264524D01*
X138444723Y-105482497D01*
X138444723Y-105482502D01*
X138463793Y-105700475D01*
X138463793Y-105700479D01*
X138520422Y-105911822D01*
X138520424Y-105911826D01*
X138520425Y-105911830D01*
X138522347Y-105915951D01*
X138612897Y-106110138D01*
X138612898Y-106110139D01*
X138738402Y-106289377D01*
X138893123Y-106444098D01*
X139072360Y-106569601D01*
X139072361Y-106569602D01*
X139223583Y-106640118D01*
X139276022Y-106686290D01*
X139295174Y-106753484D01*
X139274958Y-106820365D01*
X139223583Y-106864882D01*
X139072361Y-106935398D01*
X139072357Y-106935400D01*
X138893121Y-107060902D01*
X138738402Y-107215621D01*
X138612900Y-107394857D01*
X138612898Y-107394861D01*
X138520426Y-107593168D01*
X138520422Y-107593177D01*
X138463793Y-107804520D01*
X138463793Y-107804524D01*
X138444723Y-108022497D01*
X138444723Y-108022502D01*
X138463793Y-108240475D01*
X138463793Y-108240479D01*
X138520422Y-108451822D01*
X138520424Y-108451826D01*
X138520425Y-108451830D01*
X138566661Y-108550984D01*
X138612897Y-108650138D01*
X138612898Y-108650139D01*
X138738402Y-108829377D01*
X138893123Y-108984098D01*
X139072361Y-109109602D01*
X139270670Y-109202075D01*
X139482023Y-109258707D01*
X139557580Y-109265316D01*
X139622647Y-109290767D01*
X139634453Y-109301163D01*
X141253181Y-110919891D01*
X141286666Y-110981214D01*
X141289500Y-111007572D01*
X141289500Y-111378000D01*
X141269815Y-111445039D01*
X141217011Y-111490794D01*
X141165502Y-111502000D01*
X141092130Y-111502000D01*
X141092123Y-111502001D01*
X141032516Y-111508408D01*
X140897671Y-111558702D01*
X140897664Y-111558706D01*
X140782455Y-111644952D01*
X140782452Y-111644955D01*
X140696206Y-111760164D01*
X140696202Y-111760171D01*
X140645908Y-111895017D01*
X140639501Y-111954616D01*
X140639501Y-111954623D01*
X140639500Y-111954635D01*
X140639500Y-113307427D01*
X140619815Y-113374466D01*
X140603181Y-113395108D01*
X137382609Y-116615681D01*
X137321286Y-116649166D01*
X137294928Y-116652000D01*
X125678884Y-116652000D01*
X125611845Y-116632315D01*
X125587655Y-116611983D01*
X125479747Y-116494765D01*
X125479744Y-116494762D01*
X125283506Y-116342024D01*
X125064811Y-116223672D01*
X125064802Y-116223669D01*
X124829616Y-116142929D01*
X124584335Y-116102000D01*
X124335665Y-116102000D01*
X124090383Y-116142929D01*
X123855197Y-116223669D01*
X123855188Y-116223672D01*
X123636493Y-116342024D01*
X123440255Y-116494762D01*
X123440252Y-116494765D01*
X123332345Y-116611983D01*
X123272458Y-116647974D01*
X123241116Y-116652000D01*
X119178884Y-116652000D01*
X119111845Y-116632315D01*
X119087655Y-116611983D01*
X118979747Y-116494765D01*
X118979744Y-116494762D01*
X118783506Y-116342024D01*
X118564811Y-116223672D01*
X118564802Y-116223669D01*
X118329616Y-116142929D01*
X118084335Y-116102000D01*
X117835665Y-116102000D01*
X117590383Y-116142929D01*
X117355197Y-116223669D01*
X117355188Y-116223672D01*
X117136493Y-116342024D01*
X116940257Y-116494761D01*
X116771833Y-116677717D01*
X116635826Y-116885893D01*
X116535936Y-117113618D01*
X116474892Y-117354675D01*
X116474890Y-117354687D01*
X116454357Y-117602494D01*
X102773541Y-117602494D01*
X102677137Y-117423345D01*
X102677132Y-117423337D01*
X102439605Y-117063498D01*
X102439595Y-117063485D01*
X102170774Y-116726392D01*
X102170762Y-116726379D01*
X101872794Y-116414730D01*
X101872793Y-116414729D01*
X101872790Y-116414726D01*
X101548080Y-116131035D01*
X101508117Y-116102000D01*
X101199256Y-115877599D01*
X101199251Y-115877596D01*
X101199247Y-115877593D01*
X100829100Y-115656440D01*
X100829095Y-115656437D01*
X100829093Y-115656436D01*
X100440627Y-115469360D01*
X100440613Y-115469354D01*
X100036944Y-115317855D01*
X100036919Y-115317847D01*
X99621295Y-115203142D01*
X99197043Y-115126151D01*
X99197040Y-115126150D01*
X99197036Y-115126150D01*
X98767591Y-115087500D01*
X98336409Y-115087500D01*
X97906964Y-115126150D01*
X97906960Y-115126150D01*
X97906956Y-115126151D01*
X97482704Y-115203142D01*
X97067080Y-115317847D01*
X97067055Y-115317855D01*
X96663386Y-115469354D01*
X96663372Y-115469360D01*
X96274906Y-115656436D01*
X96274904Y-115656437D01*
X95904743Y-115877599D01*
X95555931Y-116131026D01*
X95555914Y-116131039D01*
X95231210Y-116414726D01*
X95231205Y-116414730D01*
X94933237Y-116726379D01*
X94933225Y-116726392D01*
X94664404Y-117063485D01*
X94664394Y-117063498D01*
X94426867Y-117423337D01*
X94426867Y-117423338D01*
X94222537Y-117803044D01*
X94222533Y-117803052D01*
X94053076Y-118199519D01*
X94053074Y-118199522D01*
X94053074Y-118199525D01*
X93991254Y-118389785D01*
X93919830Y-118609608D01*
X93823885Y-119029972D01*
X93766006Y-119457253D01*
X93766005Y-119457262D01*
X93746661Y-119887996D01*
X92074500Y-119887996D01*
X92074500Y-112859135D01*
X107674750Y-112859135D01*
X107674750Y-114704870D01*
X107674751Y-114704876D01*
X107681158Y-114764483D01*
X107731452Y-114899328D01*
X107731456Y-114899335D01*
X107817702Y-115014544D01*
X107817705Y-115014547D01*
X107932914Y-115100793D01*
X107932921Y-115100797D01*
X108067767Y-115151091D01*
X108067766Y-115151091D01*
X108074694Y-115151835D01*
X108127377Y-115157500D01*
X109973122Y-115157499D01*
X110032733Y-115151091D01*
X110167581Y-115100796D01*
X110282796Y-115014546D01*
X110369046Y-114899331D01*
X110419341Y-114764483D01*
X110425750Y-114704873D01*
X110425749Y-113802070D01*
X110445433Y-113735032D01*
X110462063Y-113714395D01*
X111073964Y-113102494D01*
X116454357Y-113102494D01*
X116454357Y-113102505D01*
X116474890Y-113350312D01*
X116474892Y-113350324D01*
X116535936Y-113591381D01*
X116635826Y-113819106D01*
X116771833Y-114027282D01*
X116771836Y-114027285D01*
X116940256Y-114210238D01*
X117136491Y-114362974D01*
X117355190Y-114481328D01*
X117590386Y-114562071D01*
X117835665Y-114603000D01*
X118084335Y-114603000D01*
X118329614Y-114562071D01*
X118564810Y-114481328D01*
X118783509Y-114362974D01*
X118979744Y-114210238D01*
X119148164Y-114027285D01*
X119284173Y-113819107D01*
X119384063Y-113591381D01*
X119445108Y-113350321D01*
X119445109Y-113350312D01*
X119465643Y-113102505D01*
X119465643Y-113102494D01*
X122954357Y-113102494D01*
X122954357Y-113102505D01*
X122974890Y-113350312D01*
X122974892Y-113350324D01*
X123035936Y-113591381D01*
X123135826Y-113819106D01*
X123271833Y-114027282D01*
X123271836Y-114027285D01*
X123440256Y-114210238D01*
X123636491Y-114362974D01*
X123855190Y-114481328D01*
X124090386Y-114562071D01*
X124335665Y-114603000D01*
X124584335Y-114603000D01*
X124829614Y-114562071D01*
X125064810Y-114481328D01*
X125283509Y-114362974D01*
X125479744Y-114210238D01*
X125648164Y-114027285D01*
X125784173Y-113819107D01*
X125884063Y-113591381D01*
X125945108Y-113350321D01*
X125945109Y-113350312D01*
X125965643Y-113102505D01*
X125965643Y-113102500D01*
X130474551Y-113102500D01*
X130494317Y-113353651D01*
X130553126Y-113598610D01*
X130649533Y-113831359D01*
X130781160Y-114046153D01*
X130781161Y-114046156D01*
X130781164Y-114046159D01*
X130944776Y-114237724D01*
X131091425Y-114362974D01*
X131136343Y-114401338D01*
X131136346Y-114401339D01*
X131351140Y-114532966D01*
X131583889Y-114629373D01*
X131828852Y-114688183D01*
X132080000Y-114707949D01*
X132331148Y-114688183D01*
X132576111Y-114629373D01*
X132808859Y-114532966D01*
X133023659Y-114401336D01*
X133215224Y-114237724D01*
X133378836Y-114046159D01*
X133510466Y-113831359D01*
X133606873Y-113598611D01*
X133665683Y-113353648D01*
X133685449Y-113102500D01*
X133665683Y-112851352D01*
X133606873Y-112606389D01*
X133547563Y-112463202D01*
X133510466Y-112373640D01*
X133378839Y-112158846D01*
X133378838Y-112158843D01*
X133341875Y-112115566D01*
X133215224Y-111967276D01*
X133068573Y-111842024D01*
X133023656Y-111803661D01*
X133023653Y-111803660D01*
X132808859Y-111672033D01*
X132576110Y-111575626D01*
X132331151Y-111516817D01*
X132080000Y-111497051D01*
X131828848Y-111516817D01*
X131583889Y-111575626D01*
X131351140Y-111672033D01*
X131136346Y-111803660D01*
X131136343Y-111803661D01*
X130944776Y-111967276D01*
X130781161Y-112158843D01*
X130781160Y-112158846D01*
X130649533Y-112373640D01*
X130553126Y-112606389D01*
X130494317Y-112851348D01*
X130474551Y-113102500D01*
X125965643Y-113102500D01*
X125965643Y-113102494D01*
X125945109Y-112854687D01*
X125945107Y-112854675D01*
X125884063Y-112613618D01*
X125784173Y-112385893D01*
X125648166Y-112177717D01*
X125626557Y-112154244D01*
X125479744Y-111994762D01*
X125283509Y-111842026D01*
X125283507Y-111842025D01*
X125283506Y-111842024D01*
X125064811Y-111723672D01*
X125064802Y-111723669D01*
X124829616Y-111642929D01*
X124584335Y-111602000D01*
X124335665Y-111602000D01*
X124090383Y-111642929D01*
X123855197Y-111723669D01*
X123855188Y-111723672D01*
X123636493Y-111842024D01*
X123440257Y-111994761D01*
X123271833Y-112177717D01*
X123135826Y-112385893D01*
X123035936Y-112613618D01*
X122974892Y-112854675D01*
X122974890Y-112854687D01*
X122954357Y-113102494D01*
X119465643Y-113102494D01*
X119445109Y-112854687D01*
X119445107Y-112854675D01*
X119384063Y-112613618D01*
X119284173Y-112385893D01*
X119148166Y-112177717D01*
X119126557Y-112154244D01*
X118979744Y-111994762D01*
X118783509Y-111842026D01*
X118783507Y-111842025D01*
X118783506Y-111842024D01*
X118564811Y-111723672D01*
X118564802Y-111723669D01*
X118329616Y-111642929D01*
X118084335Y-111602000D01*
X117835665Y-111602000D01*
X117590383Y-111642929D01*
X117355197Y-111723669D01*
X117355188Y-111723672D01*
X117136493Y-111842024D01*
X116940257Y-111994761D01*
X116771833Y-112177717D01*
X116635826Y-112385893D01*
X116535936Y-112613618D01*
X116474892Y-112854675D01*
X116474890Y-112854687D01*
X116454357Y-113102494D01*
X111073964Y-113102494D01*
X113189641Y-110986819D01*
X113250964Y-110953334D01*
X113277322Y-110950500D01*
X127093618Y-110950500D01*
X127111980Y-110946847D01*
X127185433Y-110932236D01*
X127185434Y-110932236D01*
X127208545Y-110927638D01*
X127277251Y-110913973D01*
X127348901Y-110884294D01*
X127450230Y-110842323D01*
X127605908Y-110738302D01*
X130738302Y-107605908D01*
X130842323Y-107450230D01*
X130913973Y-107277250D01*
X130926232Y-107215623D01*
X130950499Y-107093620D01*
X130950500Y-107093617D01*
X130950500Y-103445072D01*
X130970185Y-103378033D01*
X130986819Y-103357391D01*
X132954891Y-101389319D01*
X133016214Y-101355834D01*
X133042572Y-101353000D01*
X133758177Y-101353000D01*
X133825216Y-101372685D01*
X133829267Y-101375402D01*
X133992360Y-101489601D01*
X133992361Y-101489602D01*
X134143583Y-101560118D01*
X134196022Y-101606290D01*
X134215174Y-101673484D01*
X134194958Y-101740365D01*
X134143583Y-101784882D01*
X133992361Y-101855398D01*
X133992357Y-101855400D01*
X133813121Y-101980902D01*
X133658402Y-102135621D01*
X133532900Y-102314857D01*
X133532898Y-102314861D01*
X133440426Y-102513168D01*
X133440422Y-102513177D01*
X133383793Y-102724520D01*
X133383793Y-102724524D01*
X133364723Y-102942497D01*
X133364723Y-102942502D01*
X133383793Y-103160475D01*
X133383793Y-103160479D01*
X133440422Y-103371822D01*
X133440424Y-103371826D01*
X133440425Y-103371830D01*
X133442347Y-103375951D01*
X133532897Y-103570138D01*
X133532898Y-103570139D01*
X133658402Y-103749377D01*
X133813123Y-103904098D01*
X133991738Y-104029166D01*
X133992361Y-104029602D01*
X134143583Y-104100118D01*
X134196022Y-104146290D01*
X134215174Y-104213484D01*
X134194958Y-104280365D01*
X134143583Y-104324882D01*
X133992361Y-104395398D01*
X133992357Y-104395400D01*
X133813121Y-104520902D01*
X133658402Y-104675621D01*
X133532900Y-104854857D01*
X133532898Y-104854861D01*
X133440426Y-105053168D01*
X133440422Y-105053177D01*
X133383793Y-105264520D01*
X133383793Y-105264524D01*
X133364723Y-105482497D01*
X133364723Y-105482502D01*
X133383793Y-105700475D01*
X133383793Y-105700479D01*
X133440422Y-105911822D01*
X133440424Y-105911826D01*
X133440425Y-105911830D01*
X133442347Y-105915951D01*
X133532897Y-106110138D01*
X133532898Y-106110139D01*
X133658402Y-106289377D01*
X133813123Y-106444098D01*
X133992360Y-106569601D01*
X133992361Y-106569602D01*
X134143583Y-106640118D01*
X134196022Y-106686290D01*
X134215174Y-106753484D01*
X134194958Y-106820365D01*
X134143583Y-106864882D01*
X133992361Y-106935398D01*
X133992357Y-106935400D01*
X133813121Y-107060902D01*
X133658402Y-107215621D01*
X133532900Y-107394857D01*
X133532898Y-107394861D01*
X133440426Y-107593168D01*
X133440422Y-107593177D01*
X133383793Y-107804520D01*
X133383793Y-107804524D01*
X133364723Y-108022497D01*
X133364723Y-108022502D01*
X133383793Y-108240475D01*
X133383793Y-108240479D01*
X133440422Y-108451822D01*
X133440424Y-108451826D01*
X133440425Y-108451830D01*
X133486661Y-108550984D01*
X133532897Y-108650138D01*
X133532898Y-108650139D01*
X133658402Y-108829377D01*
X133813123Y-108984098D01*
X133992361Y-109109602D01*
X134190670Y-109202075D01*
X134402023Y-109258707D01*
X134584926Y-109274708D01*
X134619998Y-109277777D01*
X134620000Y-109277777D01*
X134620002Y-109277777D01*
X134648254Y-109275305D01*
X134837977Y-109258707D01*
X135049330Y-109202075D01*
X135247639Y-109109602D01*
X135426877Y-108984098D01*
X135581598Y-108829377D01*
X135707102Y-108650139D01*
X135799575Y-108451830D01*
X135856207Y-108240477D01*
X135875277Y-108022500D01*
X135856207Y-107804523D01*
X135799575Y-107593170D01*
X135707102Y-107394862D01*
X135707100Y-107394859D01*
X135707099Y-107394857D01*
X135581599Y-107215624D01*
X135581596Y-107215621D01*
X135426877Y-107060902D01*
X135247639Y-106935398D01*
X135096414Y-106864881D01*
X135043977Y-106818710D01*
X135024825Y-106751516D01*
X135045041Y-106684635D01*
X135096414Y-106640118D01*
X135247639Y-106569602D01*
X135426877Y-106444098D01*
X135581598Y-106289377D01*
X135707102Y-106110139D01*
X135799575Y-105911830D01*
X135856207Y-105700477D01*
X135875277Y-105482500D01*
X135856207Y-105264523D01*
X135799575Y-105053170D01*
X135707102Y-104854862D01*
X135707100Y-104854859D01*
X135707099Y-104854857D01*
X135581599Y-104675624D01*
X135573852Y-104667877D01*
X135426877Y-104520902D01*
X135247639Y-104395398D01*
X135096414Y-104324881D01*
X135043977Y-104278710D01*
X135024825Y-104211516D01*
X135045041Y-104144635D01*
X135096414Y-104100118D01*
X135247639Y-104029602D01*
X135426877Y-103904098D01*
X135581598Y-103749377D01*
X135707102Y-103570139D01*
X135799575Y-103371830D01*
X135856207Y-103160477D01*
X135875277Y-102942500D01*
X135856207Y-102724523D01*
X135799575Y-102513170D01*
X135707102Y-102314862D01*
X135707100Y-102314859D01*
X135707099Y-102314857D01*
X135581599Y-102135624D01*
X135573852Y-102127877D01*
X135426877Y-101980902D01*
X135247639Y-101855398D01*
X135096414Y-101784881D01*
X135043977Y-101738710D01*
X135024825Y-101671516D01*
X135045041Y-101604635D01*
X135096414Y-101560118D01*
X135247639Y-101489602D01*
X135426877Y-101364098D01*
X135581598Y-101209377D01*
X135707102Y-101030139D01*
X135799575Y-100831830D01*
X135856207Y-100620477D01*
X135875277Y-100402500D01*
X135856207Y-100184523D01*
X135799575Y-99973170D01*
X135707102Y-99774862D01*
X135707100Y-99774859D01*
X135707099Y-99774857D01*
X135581599Y-99595624D01*
X135546152Y-99560177D01*
X135426877Y-99440902D01*
X135247639Y-99315398D01*
X135247640Y-99315398D01*
X135247638Y-99315397D01*
X135148484Y-99269161D01*
X135049330Y-99222925D01*
X135049326Y-99222924D01*
X135049322Y-99222922D01*
X134942407Y-99194275D01*
X134882746Y-99157910D01*
X134852217Y-99095063D01*
X134860512Y-99025688D01*
X134904997Y-98971810D01*
X134971549Y-98950535D01*
X134974500Y-98950500D01*
X137116118Y-98950500D01*
X137134480Y-98946847D01*
X137207933Y-98932236D01*
X137207934Y-98932236D01*
X137231045Y-98927638D01*
X137299751Y-98913973D01*
X137371401Y-98884294D01*
X137472730Y-98842323D01*
X137628408Y-98738302D01*
X139765547Y-96601161D01*
X139826868Y-96567678D01*
X139842410Y-96565317D01*
X139917977Y-96558707D01*
X140129330Y-96502075D01*
X140327639Y-96409602D01*
X140506877Y-96284098D01*
X140661598Y-96129377D01*
X140787102Y-95950139D01*
X140879575Y-95751830D01*
X140936207Y-95540477D01*
X140955277Y-95322500D01*
X140936207Y-95104523D01*
X140879575Y-94893170D01*
X140787102Y-94694862D01*
X140787100Y-94694859D01*
X140787099Y-94694857D01*
X140672925Y-94531799D01*
X140650598Y-94465593D01*
X140650500Y-94460676D01*
X140650500Y-90687571D01*
X140670185Y-90620532D01*
X140686814Y-90599895D01*
X141624715Y-89661993D01*
X148479786Y-89661993D01*
X148479786Y-89662006D01*
X148498608Y-89889168D01*
X148498610Y-89889175D01*
X148554569Y-90110155D01*
X148646137Y-90318908D01*
X148770814Y-90509742D01*
X148925208Y-90677458D01*
X148925212Y-90677461D01*
X149105090Y-90817466D01*
X149105094Y-90817469D01*
X149105096Y-90817470D01*
X149105099Y-90817472D01*
X149221646Y-90880543D01*
X149305574Y-90925963D01*
X149417529Y-90964397D01*
X149521173Y-90999979D01*
X149521175Y-90999979D01*
X149521177Y-90999980D01*
X149746023Y-91037500D01*
X149746024Y-91037500D01*
X149973976Y-91037500D01*
X149973977Y-91037500D01*
X150198823Y-90999980D01*
X150414426Y-90925963D01*
X150614906Y-90817469D01*
X150794794Y-90677456D01*
X150949183Y-90509745D01*
X151073862Y-90318909D01*
X151165430Y-90110155D01*
X151221390Y-89889176D01*
X151240214Y-89662000D01*
X151240214Y-89661993D01*
X151221391Y-89434831D01*
X151221389Y-89434820D01*
X151165430Y-89213844D01*
X151073862Y-89005091D01*
X150949185Y-88814257D01*
X150887427Y-88747170D01*
X150794794Y-88646544D01*
X150794793Y-88646543D01*
X150794791Y-88646541D01*
X150794787Y-88646538D01*
X150614909Y-88506533D01*
X150614900Y-88506527D01*
X150414432Y-88398040D01*
X150414429Y-88398039D01*
X150414426Y-88398037D01*
X150414420Y-88398035D01*
X150414418Y-88398034D01*
X150198826Y-88324020D01*
X150030188Y-88295880D01*
X149973977Y-88286500D01*
X149746023Y-88286500D01*
X149701053Y-88294004D01*
X149521173Y-88324020D01*
X149305581Y-88398034D01*
X149305567Y-88398040D01*
X149105099Y-88506527D01*
X149105090Y-88506533D01*
X148925212Y-88646538D01*
X148925208Y-88646541D01*
X148770814Y-88814257D01*
X148646137Y-89005091D01*
X148554569Y-89213844D01*
X148498610Y-89434820D01*
X148498608Y-89434831D01*
X148479786Y-89661993D01*
X141624715Y-89661993D01*
X141947391Y-89339317D01*
X142008714Y-89305833D01*
X142035072Y-89302999D01*
X143387871Y-89302999D01*
X143387872Y-89302999D01*
X143447483Y-89296591D01*
X143582331Y-89246296D01*
X143697546Y-89160046D01*
X143783796Y-89044831D01*
X143834091Y-88909983D01*
X143840500Y-88850373D01*
X143840499Y-86554628D01*
X143834091Y-86495017D01*
X143800017Y-86403661D01*
X143783797Y-86360171D01*
X143783793Y-86360164D01*
X143697547Y-86244955D01*
X143697544Y-86244952D01*
X143582335Y-86158706D01*
X143582328Y-86158702D01*
X143447482Y-86108408D01*
X143447483Y-86108408D01*
X143387883Y-86102001D01*
X143387881Y-86102000D01*
X143387873Y-86102000D01*
X143387864Y-86102000D01*
X141092129Y-86102000D01*
X141092123Y-86102001D01*
X141032516Y-86108408D01*
X140897671Y-86158702D01*
X140897664Y-86158706D01*
X140782455Y-86244952D01*
X140782452Y-86244955D01*
X140696206Y-86360164D01*
X140696202Y-86360171D01*
X140645908Y-86495017D01*
X140642741Y-86524480D01*
X140639501Y-86554623D01*
X140639500Y-86554635D01*
X140639500Y-87907427D01*
X140619815Y-87974466D01*
X140603181Y-87995108D01*
X138961700Y-89636588D01*
X138961697Y-89636592D01*
X138857678Y-89792266D01*
X138857677Y-89792269D01*
X138817538Y-89889175D01*
X138817538Y-89889176D01*
X138786027Y-89965248D01*
X138786025Y-89965256D01*
X138749500Y-90148879D01*
X138749500Y-94460676D01*
X138729815Y-94527715D01*
X138727075Y-94531799D01*
X138612900Y-94694857D01*
X138612898Y-94694861D01*
X138520426Y-94893168D01*
X138520422Y-94893177D01*
X138463794Y-95104517D01*
X138463792Y-95104526D01*
X138457182Y-95180081D01*
X138431729Y-95245149D01*
X138421335Y-95256953D01*
X136665109Y-97013181D01*
X136603786Y-97046666D01*
X136577428Y-97049500D01*
X127111778Y-97049500D01*
X126928156Y-97086024D01*
X126928152Y-97086026D01*
X126928150Y-97086026D01*
X126928149Y-97086027D01*
X126856499Y-97115705D01*
X126856497Y-97115706D01*
X126755172Y-97157675D01*
X126755163Y-97157680D01*
X126599492Y-97261697D01*
X126599488Y-97261700D01*
X121158295Y-102702893D01*
X121096972Y-102736378D01*
X121027280Y-102731394D01*
X120971347Y-102689522D01*
X120950840Y-102647307D01*
X120914898Y-102513170D01*
X120913796Y-102509057D01*
X120913795Y-102509054D01*
X120913794Y-102509050D01*
X120820434Y-102308839D01*
X120757080Y-102218359D01*
X120693727Y-102127881D01*
X120693723Y-102127877D01*
X120537520Y-101971674D01*
X120537516Y-101971671D01*
X120537515Y-101971670D01*
X120356566Y-101844968D01*
X120356562Y-101844966D01*
X120356560Y-101844965D01*
X120156350Y-101751606D01*
X120156347Y-101751605D01*
X120156345Y-101751604D01*
X119942970Y-101694430D01*
X119942962Y-101694429D01*
X119722902Y-101675177D01*
X119722898Y-101675177D01*
X119502837Y-101694429D01*
X119502829Y-101694430D01*
X119289454Y-101751604D01*
X119289448Y-101751607D01*
X119089240Y-101844965D01*
X119089238Y-101844966D01*
X118908277Y-101971675D01*
X118752075Y-102127877D01*
X118625366Y-102308838D01*
X118625365Y-102308840D01*
X118532007Y-102509048D01*
X118532004Y-102509054D01*
X118474830Y-102722429D01*
X118474829Y-102722437D01*
X118455577Y-102942497D01*
X118455577Y-102942502D01*
X118474829Y-103162562D01*
X118474830Y-103162570D01*
X118532004Y-103375945D01*
X118532005Y-103375947D01*
X118532006Y-103375950D01*
X118610620Y-103544538D01*
X118625366Y-103576162D01*
X118625368Y-103576166D01*
X118752070Y-103757115D01*
X118752075Y-103757121D01*
X118908278Y-103913324D01*
X118908284Y-103913329D01*
X119089233Y-104040031D01*
X119089235Y-104040032D01*
X119089238Y-104040034D01*
X119208648Y-104095715D01*
X119218089Y-104100118D01*
X119270528Y-104146290D01*
X119289680Y-104213484D01*
X119269464Y-104280365D01*
X119218089Y-104324882D01*
X119089240Y-104384965D01*
X119089238Y-104384966D01*
X118908277Y-104511675D01*
X118752075Y-104667877D01*
X118625366Y-104848838D01*
X118625365Y-104848840D01*
X118532007Y-105049048D01*
X118532004Y-105049054D01*
X118474830Y-105262429D01*
X118474829Y-105262437D01*
X118455577Y-105482497D01*
X118455577Y-105482502D01*
X118474829Y-105702562D01*
X118474830Y-105702570D01*
X118532004Y-105915945D01*
X118532005Y-105915947D01*
X118532006Y-105915950D01*
X118622557Y-106110138D01*
X118625366Y-106116162D01*
X118625368Y-106116166D01*
X118752070Y-106297115D01*
X118752075Y-106297121D01*
X118908278Y-106453324D01*
X118908284Y-106453329D01*
X119089233Y-106580031D01*
X119089235Y-106580032D01*
X119089238Y-106580034D01*
X119289450Y-106673394D01*
X119502832Y-106730570D01*
X119660023Y-106744322D01*
X119722898Y-106749823D01*
X119722900Y-106749823D01*
X119722902Y-106749823D01*
X119777917Y-106745009D01*
X119942968Y-106730570D01*
X120156350Y-106673394D01*
X120356562Y-106580034D01*
X120537520Y-106453326D01*
X120693726Y-106297120D01*
X120820434Y-106116162D01*
X120913794Y-105915950D01*
X120970970Y-105702568D01*
X120978917Y-105611716D01*
X121004368Y-105546650D01*
X121014756Y-105534852D01*
X123367505Y-103182103D01*
X123428826Y-103148620D01*
X123498518Y-103153604D01*
X123554451Y-103195476D01*
X123574959Y-103237692D01*
X123612004Y-103375944D01*
X123612005Y-103375946D01*
X123612006Y-103375950D01*
X123690620Y-103544538D01*
X123705366Y-103576162D01*
X123705368Y-103576166D01*
X123832070Y-103757115D01*
X123832075Y-103757121D01*
X123988278Y-103913324D01*
X123988284Y-103913329D01*
X124169233Y-104040031D01*
X124169235Y-104040032D01*
X124169238Y-104040034D01*
X124288648Y-104095715D01*
X124298089Y-104100118D01*
X124350528Y-104146290D01*
X124369680Y-104213484D01*
X124349464Y-104280365D01*
X124298089Y-104324882D01*
X124169240Y-104384965D01*
X124169238Y-104384966D01*
X123988277Y-104511675D01*
X123832075Y-104667877D01*
X123705366Y-104848838D01*
X123705365Y-104848840D01*
X123612007Y-105049048D01*
X123612004Y-105049054D01*
X123554830Y-105262429D01*
X123554829Y-105262437D01*
X123535577Y-105482497D01*
X123535577Y-105482502D01*
X123554829Y-105702562D01*
X123554830Y-105702570D01*
X123612004Y-105915945D01*
X123612005Y-105915947D01*
X123612006Y-105915950D01*
X123702557Y-106110138D01*
X123705366Y-106116162D01*
X123705368Y-106116166D01*
X123832070Y-106297115D01*
X123832075Y-106297121D01*
X123988278Y-106453324D01*
X123988284Y-106453329D01*
X124169233Y-106580031D01*
X124169235Y-106580032D01*
X124169238Y-106580034D01*
X124369450Y-106673394D01*
X124582832Y-106730570D01*
X124740023Y-106744322D01*
X124802898Y-106749823D01*
X124802900Y-106749823D01*
X124802902Y-106749823D01*
X124857917Y-106745009D01*
X125022968Y-106730570D01*
X125236350Y-106673394D01*
X125436562Y-106580034D01*
X125617520Y-106453326D01*
X125773726Y-106297120D01*
X125900434Y-106116162D01*
X125993794Y-105915950D01*
X126050970Y-105702568D01*
X126070223Y-105482500D01*
X126050970Y-105262432D01*
X125993794Y-105049050D01*
X125900434Y-104848839D01*
X125837080Y-104758359D01*
X125773727Y-104667881D01*
X125773723Y-104667877D01*
X125617520Y-104511674D01*
X125617516Y-104511671D01*
X125617515Y-104511670D01*
X125436566Y-104384968D01*
X125436558Y-104384964D01*
X125307711Y-104324882D01*
X125255271Y-104278710D01*
X125236119Y-104211517D01*
X125256335Y-104144635D01*
X125307711Y-104100118D01*
X125313702Y-104097324D01*
X125436562Y-104040034D01*
X125617520Y-103913326D01*
X125773726Y-103757120D01*
X125900434Y-103576162D01*
X125993794Y-103375950D01*
X126050970Y-103162568D01*
X126070223Y-102942500D01*
X126050970Y-102722432D01*
X125993794Y-102509050D01*
X125900434Y-102308839D01*
X125837080Y-102218359D01*
X125773727Y-102127881D01*
X125773723Y-102127877D01*
X125617520Y-101971674D01*
X125617516Y-101971671D01*
X125617515Y-101971670D01*
X125436566Y-101844968D01*
X125436562Y-101844966D01*
X125436560Y-101844965D01*
X125236350Y-101751606D01*
X125236346Y-101751605D01*
X125236344Y-101751604D01*
X125098092Y-101714559D01*
X125038432Y-101678193D01*
X125007903Y-101615346D01*
X125016198Y-101545971D01*
X125042502Y-101507106D01*
X127562791Y-98986819D01*
X127624114Y-98953334D01*
X127650472Y-98950500D01*
X134265500Y-98950500D01*
X134332539Y-98970185D01*
X134378294Y-99022989D01*
X134388238Y-99092147D01*
X134359213Y-99155703D01*
X134300435Y-99193477D01*
X134297593Y-99194275D01*
X134190677Y-99222922D01*
X134190668Y-99222926D01*
X133992361Y-99315398D01*
X133992357Y-99315400D01*
X133829299Y-99429575D01*
X133763093Y-99451902D01*
X133758176Y-99452000D01*
X132503878Y-99452000D01*
X132320256Y-99488525D01*
X132320248Y-99488527D01*
X132267854Y-99510230D01*
X132147266Y-99560178D01*
X131991592Y-99664197D01*
X131991588Y-99664200D01*
X129261700Y-102394088D01*
X129261697Y-102394092D01*
X129157680Y-102549763D01*
X129157673Y-102549776D01*
X129116852Y-102648330D01*
X129116852Y-102648331D01*
X129086027Y-102722748D01*
X129086025Y-102722756D01*
X129049500Y-102906379D01*
X129049500Y-106554928D01*
X129029815Y-106621967D01*
X129013181Y-106642609D01*
X126642609Y-109013181D01*
X126581286Y-109046666D01*
X126554928Y-109049500D01*
X112738629Y-109049500D01*
X112555006Y-109086025D01*
X112554994Y-109086028D01*
X112498083Y-109109602D01*
X112382026Y-109157673D01*
X112382013Y-109157680D01*
X112226342Y-109261697D01*
X112226338Y-109261700D01*
X109117857Y-112370181D01*
X109056534Y-112403666D01*
X109030176Y-112406500D01*
X108127379Y-112406500D01*
X108127373Y-112406501D01*
X108067766Y-112412908D01*
X107932921Y-112463202D01*
X107932914Y-112463206D01*
X107817705Y-112549452D01*
X107817702Y-112549455D01*
X107731456Y-112664664D01*
X107731452Y-112664671D01*
X107681158Y-112799517D01*
X107674751Y-112859116D01*
X107674750Y-112859135D01*
X92074500Y-112859135D01*
X92074500Y-104559993D01*
X107839786Y-104559993D01*
X107839786Y-104560006D01*
X107858608Y-104787168D01*
X107858610Y-104787179D01*
X107914569Y-105008155D01*
X108006137Y-105216908D01*
X108130814Y-105407742D01*
X108285208Y-105575458D01*
X108285212Y-105575461D01*
X108448519Y-105702568D01*
X108465094Y-105715469D01*
X108465096Y-105715470D01*
X108465099Y-105715472D01*
X108518589Y-105744419D01*
X108665574Y-105823963D01*
X108758778Y-105855960D01*
X108881173Y-105897979D01*
X108881175Y-105897979D01*
X108881177Y-105897980D01*
X109106023Y-105935500D01*
X109106024Y-105935500D01*
X109333976Y-105935500D01*
X109333977Y-105935500D01*
X109558823Y-105897980D01*
X109774426Y-105823963D01*
X109974906Y-105715469D01*
X110154794Y-105575456D01*
X110309183Y-105407745D01*
X110433862Y-105216909D01*
X110525430Y-105008155D01*
X110581390Y-104787176D01*
X110587981Y-104707636D01*
X110600214Y-104560006D01*
X110600214Y-104559993D01*
X110581391Y-104332831D01*
X110581389Y-104332820D01*
X110525430Y-104111844D01*
X110433862Y-103903091D01*
X110309185Y-103712257D01*
X110154791Y-103544541D01*
X110154787Y-103544538D01*
X109974909Y-103404533D01*
X109974900Y-103404527D01*
X109774432Y-103296040D01*
X109774429Y-103296039D01*
X109774426Y-103296037D01*
X109774420Y-103296035D01*
X109774418Y-103296034D01*
X109558826Y-103222020D01*
X109390188Y-103193880D01*
X109333977Y-103184500D01*
X109106023Y-103184500D01*
X109061053Y-103192004D01*
X108881173Y-103222020D01*
X108665581Y-103296034D01*
X108665567Y-103296040D01*
X108465099Y-103404527D01*
X108465090Y-103404533D01*
X108285212Y-103544538D01*
X108285208Y-103544541D01*
X108130814Y-103712257D01*
X108006137Y-103903091D01*
X107914569Y-104111844D01*
X107858610Y-104332820D01*
X107858608Y-104332831D01*
X107839786Y-104559993D01*
X92074500Y-104559993D01*
X92074500Y-98137135D01*
X107844500Y-98137135D01*
X107844500Y-99982870D01*
X107844501Y-99982876D01*
X107850908Y-100042483D01*
X107901202Y-100177328D01*
X107901206Y-100177335D01*
X107987452Y-100292544D01*
X107987455Y-100292547D01*
X108102664Y-100378793D01*
X108102671Y-100378797D01*
X108237517Y-100429091D01*
X108237516Y-100429091D01*
X108244444Y-100429835D01*
X108297127Y-100435500D01*
X110142872Y-100435499D01*
X110202483Y-100429091D01*
X110337331Y-100378796D01*
X110452546Y-100292546D01*
X110538796Y-100177331D01*
X110589091Y-100042483D01*
X110595500Y-99982873D01*
X110595499Y-99080070D01*
X110615183Y-99013032D01*
X110631813Y-98992395D01*
X113387391Y-96236819D01*
X113448714Y-96203334D01*
X113475072Y-96200500D01*
X118764092Y-96200500D01*
X118831131Y-96220185D01*
X118851773Y-96236819D01*
X118908278Y-96293324D01*
X118908284Y-96293329D01*
X119089233Y-96420031D01*
X119089235Y-96420032D01*
X119089238Y-96420034D01*
X119289450Y-96513394D01*
X119502832Y-96570570D01*
X119660023Y-96584322D01*
X119722898Y-96589823D01*
X119722900Y-96589823D01*
X119722902Y-96589823D01*
X119777917Y-96585009D01*
X119942968Y-96570570D01*
X120156350Y-96513394D01*
X120356562Y-96420034D01*
X120537520Y-96293326D01*
X120693726Y-96137120D01*
X120820434Y-95956162D01*
X120913794Y-95755950D01*
X120970970Y-95542568D01*
X120990223Y-95322500D01*
X120990223Y-95322497D01*
X123535577Y-95322497D01*
X123535577Y-95322502D01*
X123554829Y-95542562D01*
X123554830Y-95542570D01*
X123612004Y-95755945D01*
X123612005Y-95755947D01*
X123612006Y-95755950D01*
X123702557Y-95950138D01*
X123705366Y-95956162D01*
X123705368Y-95956166D01*
X123832070Y-96137115D01*
X123832075Y-96137121D01*
X123988278Y-96293324D01*
X123988284Y-96293329D01*
X124169233Y-96420031D01*
X124169235Y-96420032D01*
X124169238Y-96420034D01*
X124369450Y-96513394D01*
X124582832Y-96570570D01*
X124740023Y-96584322D01*
X124802898Y-96589823D01*
X124802900Y-96589823D01*
X124802902Y-96589823D01*
X124857917Y-96585009D01*
X125022968Y-96570570D01*
X125236350Y-96513394D01*
X125436562Y-96420034D01*
X125617520Y-96293326D01*
X125773726Y-96137120D01*
X125900434Y-95956162D01*
X125993794Y-95755950D01*
X126050970Y-95542568D01*
X126070223Y-95322500D01*
X126050970Y-95102432D01*
X125993794Y-94889050D01*
X125939654Y-94772946D01*
X133369500Y-94772946D01*
X133369500Y-95872053D01*
X133377478Y-95950138D01*
X133380008Y-95974899D01*
X133435229Y-96141547D01*
X133527393Y-96290968D01*
X133651532Y-96415107D01*
X133800953Y-96507271D01*
X133967601Y-96562492D01*
X134070454Y-96573000D01*
X134070459Y-96573000D01*
X135169541Y-96573000D01*
X135169546Y-96573000D01*
X135272399Y-96562492D01*
X135439047Y-96507271D01*
X135588468Y-96415107D01*
X135712607Y-96290968D01*
X135804771Y-96141547D01*
X135859992Y-95974899D01*
X135870500Y-95872046D01*
X135870500Y-94772954D01*
X135859992Y-94670101D01*
X135804771Y-94503453D01*
X135712607Y-94354032D01*
X135588468Y-94229893D01*
X135439047Y-94137729D01*
X135272399Y-94082508D01*
X135169553Y-94072000D01*
X135169546Y-94072000D01*
X134070454Y-94072000D01*
X134070446Y-94072000D01*
X133967600Y-94082508D01*
X133800955Y-94137728D01*
X133800950Y-94137730D01*
X133651530Y-94229894D01*
X133527394Y-94354030D01*
X133435234Y-94503445D01*
X133435228Y-94503455D01*
X133380008Y-94670100D01*
X133369500Y-94772946D01*
X125939654Y-94772946D01*
X125900434Y-94688839D01*
X125776401Y-94511700D01*
X125773727Y-94507881D01*
X125726522Y-94460676D01*
X125617520Y-94351674D01*
X125617516Y-94351671D01*
X125617515Y-94351670D01*
X125436566Y-94224968D01*
X125436562Y-94224966D01*
X125436560Y-94224965D01*
X125236350Y-94131606D01*
X125236347Y-94131605D01*
X125236345Y-94131604D01*
X125022970Y-94074430D01*
X125022962Y-94074429D01*
X124802902Y-94055177D01*
X124802898Y-94055177D01*
X124582837Y-94074429D01*
X124582829Y-94074430D01*
X124369454Y-94131604D01*
X124369448Y-94131607D01*
X124169240Y-94224965D01*
X124169238Y-94224966D01*
X123988277Y-94351675D01*
X123832075Y-94507877D01*
X123705366Y-94688838D01*
X123705365Y-94688840D01*
X123612007Y-94889048D01*
X123612004Y-94889054D01*
X123554830Y-95102429D01*
X123554829Y-95102437D01*
X123535577Y-95322497D01*
X120990223Y-95322497D01*
X120970970Y-95102432D01*
X120913794Y-94889050D01*
X120820434Y-94688839D01*
X120696401Y-94511700D01*
X120693727Y-94507881D01*
X120646522Y-94460676D01*
X120537520Y-94351674D01*
X120537516Y-94351671D01*
X120537515Y-94351670D01*
X120356566Y-94224968D01*
X120356562Y-94224966D01*
X120356560Y-94224965D01*
X120156350Y-94131606D01*
X120156347Y-94131605D01*
X120156345Y-94131604D01*
X119942970Y-94074430D01*
X119942962Y-94074429D01*
X119722902Y-94055177D01*
X119722898Y-94055177D01*
X119502837Y-94074429D01*
X119502829Y-94074430D01*
X119289454Y-94131604D01*
X119289448Y-94131607D01*
X119089240Y-94224965D01*
X119089238Y-94224966D01*
X119044290Y-94256439D01*
X119014818Y-94277075D01*
X118948614Y-94299402D01*
X118943697Y-94299500D01*
X112936379Y-94299500D01*
X112752756Y-94336025D01*
X112752748Y-94336027D01*
X112692696Y-94360902D01*
X112692695Y-94360902D01*
X112579776Y-94407673D01*
X112579763Y-94407680D01*
X112424092Y-94511697D01*
X112424088Y-94511700D01*
X109287607Y-97648181D01*
X109226284Y-97681666D01*
X109199926Y-97684500D01*
X108297129Y-97684500D01*
X108297123Y-97684501D01*
X108237516Y-97690908D01*
X108102671Y-97741202D01*
X108102664Y-97741206D01*
X107987455Y-97827452D01*
X107987452Y-97827455D01*
X107901206Y-97942664D01*
X107901202Y-97942671D01*
X107850908Y-98077517D01*
X107844501Y-98137116D01*
X107844500Y-98137135D01*
X92074500Y-98137135D01*
X92074500Y-84835996D01*
X93746661Y-84835996D01*
X93746661Y-84836003D01*
X93766005Y-85266737D01*
X93766005Y-85266745D01*
X93766006Y-85266747D01*
X93783269Y-85394187D01*
X93823885Y-85694027D01*
X93919830Y-86114391D01*
X94053073Y-86524472D01*
X94053076Y-86524480D01*
X94222533Y-86920947D01*
X94222537Y-86920955D01*
X94222539Y-86920958D01*
X94426863Y-87300655D01*
X94426867Y-87300661D01*
X94426867Y-87300662D01*
X94664394Y-87660501D01*
X94664404Y-87660514D01*
X94933225Y-87997607D01*
X94933237Y-87997620D01*
X95226687Y-88304544D01*
X95231210Y-88309274D01*
X95555920Y-88592965D01*
X95555930Y-88592972D01*
X95555931Y-88592973D01*
X95860499Y-88814255D01*
X95904753Y-88846407D01*
X96274900Y-89067560D01*
X96274903Y-89067561D01*
X96274904Y-89067562D01*
X96274906Y-89067563D01*
X96663372Y-89254639D01*
X96663386Y-89254645D01*
X97067055Y-89406144D01*
X97067059Y-89406145D01*
X97067069Y-89406149D01*
X97482711Y-89520859D01*
X97906964Y-89597850D01*
X98336409Y-89636500D01*
X98336416Y-89636500D01*
X98767584Y-89636500D01*
X98767591Y-89636500D01*
X99197036Y-89597850D01*
X99621289Y-89520859D01*
X100036931Y-89406149D01*
X100266494Y-89319993D01*
X107839786Y-89319993D01*
X107839786Y-89320006D01*
X107858608Y-89547168D01*
X107858610Y-89547179D01*
X107914569Y-89768155D01*
X108006137Y-89976908D01*
X108130814Y-90167742D01*
X108130817Y-90167745D01*
X108269973Y-90318909D01*
X108285208Y-90335458D01*
X108285212Y-90335461D01*
X108465094Y-90475469D01*
X108465096Y-90475470D01*
X108465099Y-90475472D01*
X108581646Y-90538543D01*
X108665574Y-90583963D01*
X108711968Y-90599890D01*
X108881173Y-90657979D01*
X108881175Y-90657979D01*
X108881177Y-90657980D01*
X109106023Y-90695500D01*
X109106024Y-90695500D01*
X109333976Y-90695500D01*
X109333977Y-90695500D01*
X109558823Y-90657980D01*
X109774426Y-90583963D01*
X109974906Y-90475469D01*
X110154794Y-90335456D01*
X110309183Y-90167745D01*
X110433862Y-89976909D01*
X110525430Y-89768155D01*
X110581390Y-89547176D01*
X110590700Y-89434820D01*
X110600214Y-89320006D01*
X110600214Y-89319993D01*
X110581391Y-89092831D01*
X110581389Y-89092820D01*
X110525430Y-88871844D01*
X110433862Y-88663091D01*
X110309185Y-88472257D01*
X110159147Y-88309273D01*
X110154794Y-88304544D01*
X110154793Y-88304543D01*
X110154791Y-88304541D01*
X110154787Y-88304538D01*
X109974909Y-88164533D01*
X109974900Y-88164527D01*
X109774432Y-88056040D01*
X109774429Y-88056039D01*
X109774426Y-88056037D01*
X109774420Y-88056035D01*
X109774418Y-88056034D01*
X109558826Y-87982020D01*
X109388798Y-87953648D01*
X109333977Y-87944500D01*
X109106023Y-87944500D01*
X109061053Y-87952004D01*
X108881173Y-87982020D01*
X108665581Y-88056034D01*
X108665567Y-88056040D01*
X108465099Y-88164527D01*
X108465090Y-88164533D01*
X108285212Y-88304538D01*
X108285208Y-88304541D01*
X108130814Y-88472257D01*
X108006137Y-88663091D01*
X107914569Y-88871844D01*
X107858610Y-89092820D01*
X107858608Y-89092831D01*
X107839786Y-89319993D01*
X100266494Y-89319993D01*
X100440619Y-89254643D01*
X100829100Y-89067560D01*
X101199247Y-88846407D01*
X101548080Y-88592965D01*
X101872790Y-88309274D01*
X102170764Y-87997619D01*
X102172767Y-87995108D01*
X102307188Y-87826547D01*
X102406113Y-87702500D01*
X115234551Y-87702500D01*
X115254317Y-87953651D01*
X115313126Y-88198610D01*
X115409533Y-88431359D01*
X115541160Y-88646153D01*
X115541161Y-88646156D01*
X115555625Y-88663091D01*
X115704776Y-88837724D01*
X115853066Y-88964375D01*
X115896343Y-89001338D01*
X115896346Y-89001339D01*
X116111140Y-89132966D01*
X116306401Y-89213845D01*
X116343889Y-89229373D01*
X116588852Y-89288183D01*
X116840000Y-89307949D01*
X117091148Y-89288183D01*
X117336111Y-89229373D01*
X117568859Y-89132966D01*
X117783659Y-89001336D01*
X117975224Y-88837724D01*
X118138836Y-88646159D01*
X118270466Y-88431359D01*
X118366873Y-88198611D01*
X118425683Y-87953648D01*
X118445449Y-87702500D01*
X118425683Y-87451352D01*
X118366873Y-87206389D01*
X118270466Y-86973641D01*
X118270466Y-86973640D01*
X118138839Y-86758846D01*
X118138838Y-86758843D01*
X118101875Y-86715566D01*
X117975224Y-86567276D01*
X117960423Y-86554635D01*
X125399500Y-86554635D01*
X125399500Y-88850370D01*
X125399501Y-88850376D01*
X125405908Y-88909983D01*
X125456202Y-89044828D01*
X125456206Y-89044835D01*
X125542452Y-89160044D01*
X125542455Y-89160047D01*
X125657664Y-89246293D01*
X125657671Y-89246297D01*
X125792517Y-89296591D01*
X125792516Y-89296591D01*
X125799444Y-89297335D01*
X125852127Y-89303000D01*
X128147872Y-89302999D01*
X128207483Y-89296591D01*
X128342331Y-89246296D01*
X128457546Y-89160046D01*
X128543796Y-89044831D01*
X128594091Y-88909983D01*
X128600500Y-88850373D01*
X128600499Y-87702500D01*
X130474551Y-87702500D01*
X130494317Y-87953651D01*
X130553126Y-88198610D01*
X130649533Y-88431359D01*
X130781160Y-88646153D01*
X130781161Y-88646156D01*
X130795625Y-88663091D01*
X130944776Y-88837724D01*
X131093066Y-88964375D01*
X131136343Y-89001338D01*
X131136346Y-89001339D01*
X131351140Y-89132966D01*
X131546401Y-89213845D01*
X131583889Y-89229373D01*
X131828852Y-89288183D01*
X132080000Y-89307949D01*
X132331148Y-89288183D01*
X132576111Y-89229373D01*
X132808859Y-89132966D01*
X133023659Y-89001336D01*
X133215224Y-88837724D01*
X133378836Y-88646159D01*
X133510466Y-88431359D01*
X133606873Y-88198611D01*
X133665683Y-87953648D01*
X133685449Y-87702500D01*
X133665683Y-87451352D01*
X133606873Y-87206389D01*
X133510466Y-86973641D01*
X133510466Y-86973640D01*
X133378839Y-86758846D01*
X133378838Y-86758843D01*
X133341875Y-86715566D01*
X133215224Y-86567276D01*
X133088571Y-86459104D01*
X133023656Y-86403661D01*
X133023653Y-86403660D01*
X132808859Y-86272033D01*
X132576110Y-86175626D01*
X132331151Y-86116817D01*
X132080000Y-86097051D01*
X131828848Y-86116817D01*
X131583889Y-86175626D01*
X131351140Y-86272033D01*
X131136346Y-86403660D01*
X131136343Y-86403661D01*
X130944776Y-86567276D01*
X130781161Y-86758843D01*
X130781160Y-86758846D01*
X130649533Y-86973640D01*
X130553126Y-87206389D01*
X130494317Y-87451348D01*
X130474551Y-87702500D01*
X128600499Y-87702500D01*
X128600499Y-86554628D01*
X128594091Y-86495017D01*
X128560017Y-86403661D01*
X128543797Y-86360171D01*
X128543793Y-86360164D01*
X128457547Y-86244955D01*
X128457544Y-86244952D01*
X128342335Y-86158706D01*
X128342328Y-86158702D01*
X128207482Y-86108408D01*
X128207483Y-86108408D01*
X128147883Y-86102001D01*
X128147881Y-86102000D01*
X128147873Y-86102000D01*
X128147864Y-86102000D01*
X125852129Y-86102000D01*
X125852123Y-86102001D01*
X125792516Y-86108408D01*
X125657671Y-86158702D01*
X125657664Y-86158706D01*
X125542455Y-86244952D01*
X125542452Y-86244955D01*
X125456206Y-86360164D01*
X125456202Y-86360171D01*
X125405908Y-86495017D01*
X125402741Y-86524480D01*
X125399501Y-86554623D01*
X125399500Y-86554635D01*
X117960423Y-86554635D01*
X117848571Y-86459104D01*
X117783656Y-86403661D01*
X117783653Y-86403660D01*
X117568859Y-86272033D01*
X117336110Y-86175626D01*
X117091151Y-86116817D01*
X116840000Y-86097051D01*
X116588848Y-86116817D01*
X116343889Y-86175626D01*
X116111140Y-86272033D01*
X115896346Y-86403660D01*
X115896343Y-86403661D01*
X115704776Y-86567276D01*
X115541161Y-86758843D01*
X115541160Y-86758846D01*
X115409533Y-86973640D01*
X115313126Y-87206389D01*
X115254317Y-87451348D01*
X115234551Y-87702500D01*
X102406113Y-87702500D01*
X102439601Y-87660507D01*
X102677137Y-87300655D01*
X102881461Y-86920958D01*
X103050926Y-86524475D01*
X103184168Y-86114397D01*
X103280115Y-85694026D01*
X103337994Y-85266747D01*
X103357339Y-84836000D01*
X103353156Y-84742870D01*
X103347109Y-84608224D01*
X103337994Y-84405253D01*
X103280115Y-83977974D01*
X103184168Y-83557603D01*
X103050926Y-83147525D01*
X102943904Y-82897135D01*
X107844500Y-82897135D01*
X107844500Y-84742870D01*
X107844501Y-84742876D01*
X107850908Y-84802483D01*
X107901202Y-84937328D01*
X107901206Y-84937335D01*
X107987452Y-85052544D01*
X107987455Y-85052547D01*
X108102664Y-85138793D01*
X108102671Y-85138797D01*
X108237517Y-85189091D01*
X108237516Y-85189091D01*
X108244444Y-85189835D01*
X108297127Y-85195500D01*
X110142872Y-85195499D01*
X110202483Y-85189091D01*
X110337331Y-85138796D01*
X110452546Y-85052546D01*
X110538796Y-84937331D01*
X110589091Y-84802483D01*
X110595500Y-84742873D01*
X110595499Y-83239155D01*
X148485000Y-83239155D01*
X148485000Y-83912000D01*
X149205879Y-83912000D01*
X149186901Y-83957818D01*
X149160000Y-84093056D01*
X149160000Y-84230944D01*
X149186901Y-84366182D01*
X149205879Y-84412000D01*
X148485000Y-84412000D01*
X148485000Y-85084844D01*
X148491401Y-85144372D01*
X148491403Y-85144379D01*
X148541645Y-85279086D01*
X148541649Y-85279093D01*
X148627809Y-85394187D01*
X148627812Y-85394190D01*
X148742906Y-85480350D01*
X148742913Y-85480354D01*
X148877620Y-85530596D01*
X148877627Y-85530598D01*
X148937155Y-85536999D01*
X148937172Y-85537000D01*
X149610000Y-85537000D01*
X149610000Y-84816120D01*
X149655818Y-84835099D01*
X149791056Y-84862000D01*
X149928944Y-84862000D01*
X150064182Y-84835099D01*
X150110000Y-84816120D01*
X150110000Y-85537000D01*
X150782828Y-85537000D01*
X150782844Y-85536999D01*
X150842372Y-85530598D01*
X150842379Y-85530596D01*
X150977086Y-85480354D01*
X150977093Y-85480350D01*
X151092187Y-85394190D01*
X151092190Y-85394187D01*
X151178350Y-85279093D01*
X151178354Y-85279086D01*
X151228596Y-85144379D01*
X151228598Y-85144372D01*
X151234999Y-85084844D01*
X151235000Y-85084827D01*
X151235000Y-84835996D01*
X155976661Y-84835996D01*
X155976661Y-84836003D01*
X155996005Y-85266737D01*
X155996005Y-85266745D01*
X155996006Y-85266747D01*
X156013269Y-85394187D01*
X156053885Y-85694027D01*
X156149830Y-86114391D01*
X156283073Y-86524472D01*
X156283076Y-86524480D01*
X156452533Y-86920947D01*
X156452537Y-86920955D01*
X156452539Y-86920958D01*
X156656863Y-87300655D01*
X156656867Y-87300661D01*
X156656867Y-87300662D01*
X156894394Y-87660501D01*
X156894404Y-87660514D01*
X157163225Y-87997607D01*
X157163237Y-87997620D01*
X157456687Y-88304544D01*
X157461210Y-88309274D01*
X157785920Y-88592965D01*
X157785930Y-88592972D01*
X157785931Y-88592973D01*
X158090499Y-88814255D01*
X158134753Y-88846407D01*
X158504900Y-89067560D01*
X158504903Y-89067561D01*
X158504904Y-89067562D01*
X158504906Y-89067563D01*
X158893372Y-89254639D01*
X158893386Y-89254645D01*
X159297055Y-89406144D01*
X159297059Y-89406145D01*
X159297069Y-89406149D01*
X159712711Y-89520859D01*
X160136964Y-89597850D01*
X160566409Y-89636500D01*
X160566416Y-89636500D01*
X160997584Y-89636500D01*
X160997591Y-89636500D01*
X161427036Y-89597850D01*
X161851289Y-89520859D01*
X162266931Y-89406149D01*
X162670619Y-89254643D01*
X163059100Y-89067560D01*
X163429247Y-88846407D01*
X163778080Y-88592965D01*
X164102790Y-88309274D01*
X164400764Y-87997619D01*
X164402767Y-87995108D01*
X164537188Y-87826547D01*
X164669601Y-87660507D01*
X164907137Y-87300655D01*
X165111461Y-86920958D01*
X165280926Y-86524475D01*
X165414168Y-86114397D01*
X165510115Y-85694026D01*
X165567994Y-85266747D01*
X165587339Y-84836000D01*
X165583156Y-84742870D01*
X165577109Y-84608224D01*
X165567994Y-84405253D01*
X165510115Y-83977974D01*
X165414168Y-83557603D01*
X165280926Y-83147525D01*
X165173896Y-82897116D01*
X165111466Y-82751052D01*
X165111462Y-82751044D01*
X165085430Y-82702669D01*
X164907137Y-82371345D01*
X164907132Y-82371337D01*
X164669605Y-82011498D01*
X164669595Y-82011485D01*
X164400774Y-81674392D01*
X164400762Y-81674379D01*
X164102794Y-81362730D01*
X164102793Y-81362729D01*
X164102790Y-81362726D01*
X163778080Y-81079035D01*
X163778068Y-81079026D01*
X163429256Y-80825599D01*
X163429251Y-80825596D01*
X163429247Y-80825593D01*
X163059100Y-80604440D01*
X163059095Y-80604437D01*
X163059093Y-80604436D01*
X162670627Y-80417360D01*
X162670613Y-80417354D01*
X162266944Y-80265855D01*
X162266919Y-80265847D01*
X161851295Y-80151142D01*
X161427043Y-80074151D01*
X161427040Y-80074150D01*
X161427036Y-80074150D01*
X160997591Y-80035500D01*
X160566409Y-80035500D01*
X160136964Y-80074150D01*
X160136960Y-80074150D01*
X160136956Y-80074151D01*
X159712704Y-80151142D01*
X159297080Y-80265847D01*
X159297055Y-80265855D01*
X158893386Y-80417354D01*
X158893372Y-80417360D01*
X158504906Y-80604436D01*
X158504904Y-80604437D01*
X158134743Y-80825599D01*
X157785931Y-81079026D01*
X157785914Y-81079039D01*
X157461210Y-81362726D01*
X157461205Y-81362730D01*
X157163237Y-81674379D01*
X157163225Y-81674392D01*
X156894404Y-82011485D01*
X156894394Y-82011498D01*
X156656867Y-82371337D01*
X156656867Y-82371338D01*
X156452537Y-82751044D01*
X156452533Y-82751052D01*
X156283076Y-83147519D01*
X156283073Y-83147527D01*
X156149830Y-83557608D01*
X156053885Y-83977972D01*
X155996006Y-84405253D01*
X155996005Y-84405262D01*
X155976661Y-84835996D01*
X151235000Y-84835996D01*
X151235000Y-84412000D01*
X150514121Y-84412000D01*
X150533099Y-84366182D01*
X150560000Y-84230944D01*
X150560000Y-84093056D01*
X150533099Y-83957818D01*
X150514121Y-83912000D01*
X151235000Y-83912000D01*
X151235000Y-83239172D01*
X151234999Y-83239155D01*
X151228598Y-83179627D01*
X151228596Y-83179620D01*
X151178354Y-83044913D01*
X151178350Y-83044906D01*
X151092190Y-82929812D01*
X151092187Y-82929809D01*
X150977093Y-82843649D01*
X150977086Y-82843645D01*
X150842379Y-82793403D01*
X150842372Y-82793401D01*
X150782844Y-82787000D01*
X150110000Y-82787000D01*
X150110000Y-83507879D01*
X150064182Y-83488901D01*
X149928944Y-83462000D01*
X149791056Y-83462000D01*
X149655818Y-83488901D01*
X149610000Y-83507879D01*
X149610000Y-82787000D01*
X148937155Y-82787000D01*
X148877627Y-82793401D01*
X148877620Y-82793403D01*
X148742913Y-82843645D01*
X148742906Y-82843649D01*
X148627812Y-82929809D01*
X148627809Y-82929812D01*
X148541649Y-83044906D01*
X148541645Y-83044913D01*
X148491403Y-83179620D01*
X148491401Y-83179627D01*
X148485000Y-83239155D01*
X110595499Y-83239155D01*
X110595499Y-82897128D01*
X110589091Y-82837517D01*
X110570249Y-82787000D01*
X110538797Y-82702671D01*
X110538793Y-82702664D01*
X110452547Y-82587455D01*
X110452544Y-82587452D01*
X110337335Y-82501206D01*
X110337328Y-82501202D01*
X110202482Y-82450908D01*
X110202483Y-82450908D01*
X110142883Y-82444501D01*
X110142881Y-82444500D01*
X110142873Y-82444500D01*
X110142864Y-82444500D01*
X108297129Y-82444500D01*
X108297123Y-82444501D01*
X108237516Y-82450908D01*
X108102671Y-82501202D01*
X108102664Y-82501206D01*
X107987455Y-82587452D01*
X107987452Y-82587455D01*
X107901206Y-82702664D01*
X107901202Y-82702671D01*
X107850908Y-82837517D01*
X107844501Y-82897116D01*
X107844501Y-82897123D01*
X107844500Y-82897135D01*
X102943904Y-82897135D01*
X102943896Y-82897116D01*
X102881466Y-82751052D01*
X102881462Y-82751044D01*
X102855430Y-82702669D01*
X102677137Y-82371345D01*
X102677132Y-82371337D01*
X102439605Y-82011498D01*
X102439595Y-82011485D01*
X102170774Y-81674392D01*
X102170762Y-81674379D01*
X101872794Y-81362730D01*
X101872793Y-81362729D01*
X101872790Y-81362726D01*
X101548080Y-81079035D01*
X101548068Y-81079026D01*
X101199256Y-80825599D01*
X101199251Y-80825596D01*
X101199247Y-80825593D01*
X100829100Y-80604440D01*
X100829095Y-80604437D01*
X100829093Y-80604436D01*
X100440627Y-80417360D01*
X100440613Y-80417354D01*
X100036944Y-80265855D01*
X100036919Y-80265847D01*
X99621295Y-80151142D01*
X99197043Y-80074151D01*
X99197040Y-80074150D01*
X99197036Y-80074150D01*
X98767591Y-80035500D01*
X98336409Y-80035500D01*
X97906964Y-80074150D01*
X97906960Y-80074150D01*
X97906956Y-80074151D01*
X97482704Y-80151142D01*
X97067080Y-80265847D01*
X97067055Y-80265855D01*
X96663386Y-80417354D01*
X96663372Y-80417360D01*
X96274906Y-80604436D01*
X96274904Y-80604437D01*
X95904743Y-80825599D01*
X95555931Y-81079026D01*
X95555914Y-81079039D01*
X95231210Y-81362726D01*
X95231205Y-81362730D01*
X94933237Y-81674379D01*
X94933225Y-81674392D01*
X94664404Y-82011485D01*
X94664394Y-82011498D01*
X94426867Y-82371337D01*
X94426867Y-82371338D01*
X94222537Y-82751044D01*
X94222533Y-82751052D01*
X94053076Y-83147519D01*
X94053073Y-83147527D01*
X93919830Y-83557608D01*
X93823885Y-83977972D01*
X93766006Y-84405253D01*
X93766005Y-84405262D01*
X93746661Y-84835996D01*
X92074500Y-84835996D01*
X92074500Y-78856500D01*
X92094185Y-78789461D01*
X92146989Y-78743706D01*
X92198500Y-78732500D01*
X167269500Y-78732500D01*
X167336539Y-78752185D01*
G37*
%TD.AperFunction*%
%TD*%
M02*
