%TF.GenerationSoftware,KiCad,Pcbnew,8.0.5*%
%TF.CreationDate,2024-11-24T23:43:31-05:00*%
%TF.ProjectId,ams_latch_cdr_f24,616d735f-6c61-4746-9368-5f6364725f66,rev?*%
%TF.SameCoordinates,Original*%
%TF.FileFunction,Soldermask,Bot*%
%TF.FilePolarity,Negative*%
%FSLAX46Y46*%
G04 Gerber Fmt 4.6, Leading zero omitted, Abs format (unit mm)*
G04 Created by KiCad (PCBNEW 8.0.5) date 2024-11-24 23:43:31*
%MOMM*%
%LPD*%
G01*
G04 APERTURE LIST*
G04 Aperture macros list*
%AMRoundRect*
0 Rectangle with rounded corners*
0 $1 Rounding radius*
0 $2 $3 $4 $5 $6 $7 $8 $9 X,Y pos of 4 corners*
0 Add a 4 corners polygon primitive as box body*
4,1,4,$2,$3,$4,$5,$6,$7,$8,$9,$2,$3,0*
0 Add four circle primitives for the rounded corners*
1,1,$1+$1,$2,$3*
1,1,$1+$1,$4,$5*
1,1,$1+$1,$6,$7*
1,1,$1+$1,$8,$9*
0 Add four rect primitives between the rounded corners*
20,1,$1+$1,$2,$3,$4,$5,0*
20,1,$1+$1,$4,$5,$6,$7,0*
20,1,$1+$1,$6,$7,$8,$9,0*
20,1,$1+$1,$8,$9,$2,$3,0*%
G04 Aperture macros list end*
%ADD10C,1.524000*%
%ADD11R,2.200000X2.200000*%
%ADD12O,2.200000X2.200000*%
%ADD13R,1.750000X1.750000*%
%ADD14C,1.750000*%
%ADD15C,2.000000*%
%ADD16C,8.600000*%
%ADD17C,1.600000*%
%ADD18O,1.600000X1.600000*%
%ADD19RoundRect,0.250500X0.499500X-0.499500X0.499500X0.499500X-0.499500X0.499500X-0.499500X-0.499500X0*%
%ADD20C,1.500000*%
%ADD21R,1.800000X1.800000*%
%ADD22C,1.800000*%
G04 APERTURE END LIST*
D10*
%TO.C,K2*%
X110155241Y-109439932D03*
X117775241Y-109439932D03*
X120315241Y-109439932D03*
X120315241Y-104359932D03*
X117775241Y-104359932D03*
X110155241Y-104359932D03*
%TD*%
D11*
%TO.C,D3*%
X139954000Y-127562832D03*
D12*
X139954000Y-117402832D03*
%TD*%
D13*
%TO.C,J4*%
X149098000Y-119634000D03*
D14*
X149098000Y-125134000D03*
%TD*%
D15*
%TO.C,SW1*%
X134262241Y-104992832D03*
X140762241Y-104992832D03*
X134262241Y-109492832D03*
X140762241Y-109492832D03*
%TD*%
D16*
%TO.C,REF\u002A\u002A*%
X103378000Y-93218000D03*
%TD*%
%TO.C,REF\u002A\u002A*%
X149606000Y-136906000D03*
%TD*%
D17*
%TO.C,R1*%
X128062241Y-104702832D03*
D18*
X128062241Y-112322832D03*
%TD*%
D19*
%TO.C,K1*%
X120442241Y-125022832D03*
D20*
X125522241Y-125022832D03*
X128062241Y-125022832D03*
X130602241Y-125022832D03*
X133142241Y-125022832D03*
X133142241Y-119942832D03*
X130602241Y-119942832D03*
X128062241Y-119942832D03*
X125522241Y-119942832D03*
X120442241Y-119942832D03*
%TD*%
D16*
%TO.C,REF\u002A\u002A*%
X103378000Y-136906000D03*
%TD*%
D21*
%TO.C,D2*%
X125522241Y-97082832D03*
D22*
X128062241Y-97082832D03*
%TD*%
D13*
%TO.C,J3*%
X134962000Y-95504000D03*
D14*
X140462000Y-95504000D03*
%TD*%
D16*
%TO.C,REF\u002A\u002A*%
X149606000Y-93218000D03*
%TD*%
D11*
%TO.C,D1*%
X114300000Y-127562832D03*
D12*
X114300000Y-117402832D03*
%TD*%
D13*
%TO.C,J2*%
X106002250Y-119976000D03*
D14*
X106002250Y-125476000D03*
%TD*%
D13*
%TO.C,J1*%
X113626000Y-95673750D03*
D14*
X119126000Y-95673750D03*
%TD*%
D11*
%TO.C,D4*%
X104902000Y-101346000D03*
D12*
X104902000Y-111506000D03*
%TD*%
M02*
