%TF.GenerationSoftware,KiCad,Pcbnew,8.0.5*%
%TF.CreationDate,2024-11-24T23:43:31-05:00*%
%TF.ProjectId,ams_latch_cdr_f24,616d735f-6c61-4746-9368-5f6364725f66,rev?*%
%TF.SameCoordinates,Original*%
%TF.FileFunction,Legend,Top*%
%TF.FilePolarity,Positive*%
%FSLAX46Y46*%
G04 Gerber Fmt 4.6, Leading zero omitted, Abs format (unit mm)*
G04 Created by KiCad (PCBNEW 8.0.5) date 2024-11-24 23:43:31*
%MOMM*%
%LPD*%
G01*
G04 APERTURE LIST*
%ADD10C,0.100000*%
%ADD11C,0.150000*%
%ADD12C,0.254000*%
%ADD13C,0.152400*%
%ADD14C,0.120000*%
%ADD15C,0.127000*%
G04 APERTURE END LIST*
D10*
X136121284Y-112872419D02*
X135787951Y-112396228D01*
X135549856Y-112872419D02*
X135549856Y-111872419D01*
X135549856Y-111872419D02*
X135930808Y-111872419D01*
X135930808Y-111872419D02*
X136026046Y-111920038D01*
X136026046Y-111920038D02*
X136073665Y-111967657D01*
X136073665Y-111967657D02*
X136121284Y-112062895D01*
X136121284Y-112062895D02*
X136121284Y-112205752D01*
X136121284Y-112205752D02*
X136073665Y-112300990D01*
X136073665Y-112300990D02*
X136026046Y-112348609D01*
X136026046Y-112348609D02*
X135930808Y-112396228D01*
X135930808Y-112396228D02*
X135549856Y-112396228D01*
X136930808Y-112824800D02*
X136835570Y-112872419D01*
X136835570Y-112872419D02*
X136645094Y-112872419D01*
X136645094Y-112872419D02*
X136549856Y-112824800D01*
X136549856Y-112824800D02*
X136502237Y-112729561D01*
X136502237Y-112729561D02*
X136502237Y-112348609D01*
X136502237Y-112348609D02*
X136549856Y-112253371D01*
X136549856Y-112253371D02*
X136645094Y-112205752D01*
X136645094Y-112205752D02*
X136835570Y-112205752D01*
X136835570Y-112205752D02*
X136930808Y-112253371D01*
X136930808Y-112253371D02*
X136978427Y-112348609D01*
X136978427Y-112348609D02*
X136978427Y-112443847D01*
X136978427Y-112443847D02*
X136502237Y-112539085D01*
X137359380Y-112824800D02*
X137454618Y-112872419D01*
X137454618Y-112872419D02*
X137645094Y-112872419D01*
X137645094Y-112872419D02*
X137740332Y-112824800D01*
X137740332Y-112824800D02*
X137787951Y-112729561D01*
X137787951Y-112729561D02*
X137787951Y-112681942D01*
X137787951Y-112681942D02*
X137740332Y-112586704D01*
X137740332Y-112586704D02*
X137645094Y-112539085D01*
X137645094Y-112539085D02*
X137502237Y-112539085D01*
X137502237Y-112539085D02*
X137406999Y-112491466D01*
X137406999Y-112491466D02*
X137359380Y-112396228D01*
X137359380Y-112396228D02*
X137359380Y-112348609D01*
X137359380Y-112348609D02*
X137406999Y-112253371D01*
X137406999Y-112253371D02*
X137502237Y-112205752D01*
X137502237Y-112205752D02*
X137645094Y-112205752D01*
X137645094Y-112205752D02*
X137740332Y-112253371D01*
X138597475Y-112824800D02*
X138502237Y-112872419D01*
X138502237Y-112872419D02*
X138311761Y-112872419D01*
X138311761Y-112872419D02*
X138216523Y-112824800D01*
X138216523Y-112824800D02*
X138168904Y-112729561D01*
X138168904Y-112729561D02*
X138168904Y-112348609D01*
X138168904Y-112348609D02*
X138216523Y-112253371D01*
X138216523Y-112253371D02*
X138311761Y-112205752D01*
X138311761Y-112205752D02*
X138502237Y-112205752D01*
X138502237Y-112205752D02*
X138597475Y-112253371D01*
X138597475Y-112253371D02*
X138645094Y-112348609D01*
X138645094Y-112348609D02*
X138645094Y-112443847D01*
X138645094Y-112443847D02*
X138168904Y-112539085D01*
X138930809Y-112205752D02*
X139311761Y-112205752D01*
X139073666Y-111872419D02*
X139073666Y-112729561D01*
X139073666Y-112729561D02*
X139121285Y-112824800D01*
X139121285Y-112824800D02*
X139216523Y-112872419D01*
X139216523Y-112872419D02*
X139311761Y-112872419D01*
D11*
X132496112Y-90024009D02*
X132162779Y-90024009D01*
X132162779Y-90547819D02*
X132162779Y-89547819D01*
X132162779Y-89547819D02*
X132638969Y-89547819D01*
X133448493Y-90547819D02*
X133448493Y-90024009D01*
X133448493Y-90024009D02*
X133400874Y-89928771D01*
X133400874Y-89928771D02*
X133305636Y-89881152D01*
X133305636Y-89881152D02*
X133115160Y-89881152D01*
X133115160Y-89881152D02*
X133019922Y-89928771D01*
X133448493Y-90500200D02*
X133353255Y-90547819D01*
X133353255Y-90547819D02*
X133115160Y-90547819D01*
X133115160Y-90547819D02*
X133019922Y-90500200D01*
X133019922Y-90500200D02*
X132972303Y-90404961D01*
X132972303Y-90404961D02*
X132972303Y-90309723D01*
X132972303Y-90309723D02*
X133019922Y-90214485D01*
X133019922Y-90214485D02*
X133115160Y-90166866D01*
X133115160Y-90166866D02*
X133353255Y-90166866D01*
X133353255Y-90166866D02*
X133448493Y-90119247D01*
X134353255Y-89881152D02*
X134353255Y-90547819D01*
X133924684Y-89881152D02*
X133924684Y-90404961D01*
X133924684Y-90404961D02*
X133972303Y-90500200D01*
X133972303Y-90500200D02*
X134067541Y-90547819D01*
X134067541Y-90547819D02*
X134210398Y-90547819D01*
X134210398Y-90547819D02*
X134305636Y-90500200D01*
X134305636Y-90500200D02*
X134353255Y-90452580D01*
X134972303Y-90547819D02*
X134877065Y-90500200D01*
X134877065Y-90500200D02*
X134829446Y-90404961D01*
X134829446Y-90404961D02*
X134829446Y-89547819D01*
X135210399Y-89881152D02*
X135591351Y-89881152D01*
X135353256Y-89547819D02*
X135353256Y-90404961D01*
X135353256Y-90404961D02*
X135400875Y-90500200D01*
X135400875Y-90500200D02*
X135496113Y-90547819D01*
X135496113Y-90547819D02*
X135591351Y-90547819D01*
X137162780Y-90547819D02*
X136686590Y-90547819D01*
X136686590Y-90547819D02*
X136686590Y-89547819D01*
X137496114Y-90547819D02*
X137496114Y-89881152D01*
X137496114Y-89547819D02*
X137448495Y-89595438D01*
X137448495Y-89595438D02*
X137496114Y-89643057D01*
X137496114Y-89643057D02*
X137543733Y-89595438D01*
X137543733Y-89595438D02*
X137496114Y-89547819D01*
X137496114Y-89547819D02*
X137496114Y-89643057D01*
X138400875Y-89881152D02*
X138400875Y-90690676D01*
X138400875Y-90690676D02*
X138353256Y-90785914D01*
X138353256Y-90785914D02*
X138305637Y-90833533D01*
X138305637Y-90833533D02*
X138210399Y-90881152D01*
X138210399Y-90881152D02*
X138067542Y-90881152D01*
X138067542Y-90881152D02*
X137972304Y-90833533D01*
X138400875Y-90500200D02*
X138305637Y-90547819D01*
X138305637Y-90547819D02*
X138115161Y-90547819D01*
X138115161Y-90547819D02*
X138019923Y-90500200D01*
X138019923Y-90500200D02*
X137972304Y-90452580D01*
X137972304Y-90452580D02*
X137924685Y-90357342D01*
X137924685Y-90357342D02*
X137924685Y-90071628D01*
X137924685Y-90071628D02*
X137972304Y-89976390D01*
X137972304Y-89976390D02*
X138019923Y-89928771D01*
X138019923Y-89928771D02*
X138115161Y-89881152D01*
X138115161Y-89881152D02*
X138305637Y-89881152D01*
X138305637Y-89881152D02*
X138400875Y-89928771D01*
X138877066Y-90547819D02*
X138877066Y-89547819D01*
X139305637Y-90547819D02*
X139305637Y-90024009D01*
X139305637Y-90024009D02*
X139258018Y-89928771D01*
X139258018Y-89928771D02*
X139162780Y-89881152D01*
X139162780Y-89881152D02*
X139019923Y-89881152D01*
X139019923Y-89881152D02*
X138924685Y-89928771D01*
X138924685Y-89928771D02*
X138877066Y-89976390D01*
X139638971Y-89881152D02*
X140019923Y-89881152D01*
X139781828Y-89547819D02*
X139781828Y-90404961D01*
X139781828Y-90404961D02*
X139829447Y-90500200D01*
X139829447Y-90500200D02*
X139924685Y-90547819D01*
X139924685Y-90547819D02*
X140019923Y-90547819D01*
X141305638Y-89547819D02*
X141496114Y-89547819D01*
X141496114Y-89547819D02*
X141591352Y-89595438D01*
X141591352Y-89595438D02*
X141686590Y-89690676D01*
X141686590Y-89690676D02*
X141734209Y-89881152D01*
X141734209Y-89881152D02*
X141734209Y-90214485D01*
X141734209Y-90214485D02*
X141686590Y-90404961D01*
X141686590Y-90404961D02*
X141591352Y-90500200D01*
X141591352Y-90500200D02*
X141496114Y-90547819D01*
X141496114Y-90547819D02*
X141305638Y-90547819D01*
X141305638Y-90547819D02*
X141210400Y-90500200D01*
X141210400Y-90500200D02*
X141115162Y-90404961D01*
X141115162Y-90404961D02*
X141067543Y-90214485D01*
X141067543Y-90214485D02*
X141067543Y-89881152D01*
X141067543Y-89881152D02*
X141115162Y-89690676D01*
X141115162Y-89690676D02*
X141210400Y-89595438D01*
X141210400Y-89595438D02*
X141305638Y-89547819D01*
X142591352Y-89881152D02*
X142591352Y-90547819D01*
X142162781Y-89881152D02*
X142162781Y-90404961D01*
X142162781Y-90404961D02*
X142210400Y-90500200D01*
X142210400Y-90500200D02*
X142305638Y-90547819D01*
X142305638Y-90547819D02*
X142448495Y-90547819D01*
X142448495Y-90547819D02*
X142543733Y-90500200D01*
X142543733Y-90500200D02*
X142591352Y-90452580D01*
X142924686Y-89881152D02*
X143305638Y-89881152D01*
X143067543Y-89547819D02*
X143067543Y-90404961D01*
X143067543Y-90404961D02*
X143115162Y-90500200D01*
X143115162Y-90500200D02*
X143210400Y-90547819D01*
X143210400Y-90547819D02*
X143305638Y-90547819D01*
X104048112Y-129648009D02*
X103714779Y-129648009D01*
X103714779Y-130171819D02*
X103714779Y-129171819D01*
X103714779Y-129171819D02*
X104190969Y-129171819D01*
X105000493Y-130171819D02*
X105000493Y-129648009D01*
X105000493Y-129648009D02*
X104952874Y-129552771D01*
X104952874Y-129552771D02*
X104857636Y-129505152D01*
X104857636Y-129505152D02*
X104667160Y-129505152D01*
X104667160Y-129505152D02*
X104571922Y-129552771D01*
X105000493Y-130124200D02*
X104905255Y-130171819D01*
X104905255Y-130171819D02*
X104667160Y-130171819D01*
X104667160Y-130171819D02*
X104571922Y-130124200D01*
X104571922Y-130124200D02*
X104524303Y-130028961D01*
X104524303Y-130028961D02*
X104524303Y-129933723D01*
X104524303Y-129933723D02*
X104571922Y-129838485D01*
X104571922Y-129838485D02*
X104667160Y-129790866D01*
X104667160Y-129790866D02*
X104905255Y-129790866D01*
X104905255Y-129790866D02*
X105000493Y-129743247D01*
X105905255Y-129505152D02*
X105905255Y-130171819D01*
X105476684Y-129505152D02*
X105476684Y-130028961D01*
X105476684Y-130028961D02*
X105524303Y-130124200D01*
X105524303Y-130124200D02*
X105619541Y-130171819D01*
X105619541Y-130171819D02*
X105762398Y-130171819D01*
X105762398Y-130171819D02*
X105857636Y-130124200D01*
X105857636Y-130124200D02*
X105905255Y-130076580D01*
X106524303Y-130171819D02*
X106429065Y-130124200D01*
X106429065Y-130124200D02*
X106381446Y-130028961D01*
X106381446Y-130028961D02*
X106381446Y-129171819D01*
X106762399Y-129505152D02*
X107143351Y-129505152D01*
X106905256Y-129171819D02*
X106905256Y-130028961D01*
X106905256Y-130028961D02*
X106952875Y-130124200D01*
X106952875Y-130124200D02*
X107048113Y-130171819D01*
X107048113Y-130171819D02*
X107143351Y-130171819D01*
X108238590Y-130171819D02*
X108238590Y-129171819D01*
X108714780Y-129505152D02*
X108714780Y-130171819D01*
X108714780Y-129600390D02*
X108762399Y-129552771D01*
X108762399Y-129552771D02*
X108857637Y-129505152D01*
X108857637Y-129505152D02*
X109000494Y-129505152D01*
X109000494Y-129505152D02*
X109095732Y-129552771D01*
X109095732Y-129552771D02*
X109143351Y-129648009D01*
X109143351Y-129648009D02*
X109143351Y-130171819D01*
X123309523Y-136974160D02*
X123785713Y-136974160D01*
X123214285Y-137259875D02*
X123547618Y-136259875D01*
X123547618Y-136259875D02*
X123880951Y-137259875D01*
X124214285Y-137259875D02*
X124214285Y-136259875D01*
X124214285Y-136259875D02*
X124547618Y-136974160D01*
X124547618Y-136974160D02*
X124880951Y-136259875D01*
X124880951Y-136259875D02*
X124880951Y-137259875D01*
X125309523Y-137212256D02*
X125452380Y-137259875D01*
X125452380Y-137259875D02*
X125690475Y-137259875D01*
X125690475Y-137259875D02*
X125785713Y-137212256D01*
X125785713Y-137212256D02*
X125833332Y-137164636D01*
X125833332Y-137164636D02*
X125880951Y-137069398D01*
X125880951Y-137069398D02*
X125880951Y-136974160D01*
X125880951Y-136974160D02*
X125833332Y-136878922D01*
X125833332Y-136878922D02*
X125785713Y-136831303D01*
X125785713Y-136831303D02*
X125690475Y-136783684D01*
X125690475Y-136783684D02*
X125499999Y-136736065D01*
X125499999Y-136736065D02*
X125404761Y-136688446D01*
X125404761Y-136688446D02*
X125357142Y-136640827D01*
X125357142Y-136640827D02*
X125309523Y-136545589D01*
X125309523Y-136545589D02*
X125309523Y-136450351D01*
X125309523Y-136450351D02*
X125357142Y-136355113D01*
X125357142Y-136355113D02*
X125404761Y-136307494D01*
X125404761Y-136307494D02*
X125499999Y-136259875D01*
X125499999Y-136259875D02*
X125738094Y-136259875D01*
X125738094Y-136259875D02*
X125880951Y-136307494D01*
X127547618Y-137259875D02*
X127071428Y-137259875D01*
X127071428Y-137259875D02*
X127071428Y-136259875D01*
X128309523Y-137259875D02*
X128309523Y-136736065D01*
X128309523Y-136736065D02*
X128261904Y-136640827D01*
X128261904Y-136640827D02*
X128166666Y-136593208D01*
X128166666Y-136593208D02*
X127976190Y-136593208D01*
X127976190Y-136593208D02*
X127880952Y-136640827D01*
X128309523Y-137212256D02*
X128214285Y-137259875D01*
X128214285Y-137259875D02*
X127976190Y-137259875D01*
X127976190Y-137259875D02*
X127880952Y-137212256D01*
X127880952Y-137212256D02*
X127833333Y-137117017D01*
X127833333Y-137117017D02*
X127833333Y-137021779D01*
X127833333Y-137021779D02*
X127880952Y-136926541D01*
X127880952Y-136926541D02*
X127976190Y-136878922D01*
X127976190Y-136878922D02*
X128214285Y-136878922D01*
X128214285Y-136878922D02*
X128309523Y-136831303D01*
X128642857Y-136593208D02*
X129023809Y-136593208D01*
X128785714Y-136259875D02*
X128785714Y-137117017D01*
X128785714Y-137117017D02*
X128833333Y-137212256D01*
X128833333Y-137212256D02*
X128928571Y-137259875D01*
X128928571Y-137259875D02*
X129023809Y-137259875D01*
X129785714Y-137212256D02*
X129690476Y-137259875D01*
X129690476Y-137259875D02*
X129500000Y-137259875D01*
X129500000Y-137259875D02*
X129404762Y-137212256D01*
X129404762Y-137212256D02*
X129357143Y-137164636D01*
X129357143Y-137164636D02*
X129309524Y-137069398D01*
X129309524Y-137069398D02*
X129309524Y-136783684D01*
X129309524Y-136783684D02*
X129357143Y-136688446D01*
X129357143Y-136688446D02*
X129404762Y-136640827D01*
X129404762Y-136640827D02*
X129500000Y-136593208D01*
X129500000Y-136593208D02*
X129690476Y-136593208D01*
X129690476Y-136593208D02*
X129785714Y-136640827D01*
X130214286Y-137259875D02*
X130214286Y-136259875D01*
X130642857Y-137259875D02*
X130642857Y-136736065D01*
X130642857Y-136736065D02*
X130595238Y-136640827D01*
X130595238Y-136640827D02*
X130500000Y-136593208D01*
X130500000Y-136593208D02*
X130357143Y-136593208D01*
X130357143Y-136593208D02*
X130261905Y-136640827D01*
X130261905Y-136640827D02*
X130214286Y-136688446D01*
X120309523Y-137869819D02*
X120309523Y-138584104D01*
X120309523Y-138584104D02*
X120261904Y-138726961D01*
X120261904Y-138726961D02*
X120166666Y-138822200D01*
X120166666Y-138822200D02*
X120023809Y-138869819D01*
X120023809Y-138869819D02*
X119928571Y-138869819D01*
X120785714Y-138869819D02*
X120785714Y-138203152D01*
X120785714Y-137869819D02*
X120738095Y-137917438D01*
X120738095Y-137917438D02*
X120785714Y-137965057D01*
X120785714Y-137965057D02*
X120833333Y-137917438D01*
X120833333Y-137917438D02*
X120785714Y-137869819D01*
X120785714Y-137869819D02*
X120785714Y-137965057D01*
X121690475Y-138869819D02*
X121690475Y-138346009D01*
X121690475Y-138346009D02*
X121642856Y-138250771D01*
X121642856Y-138250771D02*
X121547618Y-138203152D01*
X121547618Y-138203152D02*
X121357142Y-138203152D01*
X121357142Y-138203152D02*
X121261904Y-138250771D01*
X121690475Y-138822200D02*
X121595237Y-138869819D01*
X121595237Y-138869819D02*
X121357142Y-138869819D01*
X121357142Y-138869819D02*
X121261904Y-138822200D01*
X121261904Y-138822200D02*
X121214285Y-138726961D01*
X121214285Y-138726961D02*
X121214285Y-138631723D01*
X121214285Y-138631723D02*
X121261904Y-138536485D01*
X121261904Y-138536485D02*
X121357142Y-138488866D01*
X121357142Y-138488866D02*
X121595237Y-138488866D01*
X121595237Y-138488866D02*
X121690475Y-138441247D01*
X122071428Y-138869819D02*
X122595237Y-138203152D01*
X122071428Y-138203152D02*
X122595237Y-138869819D01*
X122976190Y-138869819D02*
X122976190Y-138203152D01*
X122976190Y-137869819D02*
X122928571Y-137917438D01*
X122928571Y-137917438D02*
X122976190Y-137965057D01*
X122976190Y-137965057D02*
X123023809Y-137917438D01*
X123023809Y-137917438D02*
X122976190Y-137869819D01*
X122976190Y-137869819D02*
X122976190Y-137965057D01*
X123452380Y-138203152D02*
X123452380Y-138869819D01*
X123452380Y-138298390D02*
X123499999Y-138250771D01*
X123499999Y-138250771D02*
X123595237Y-138203152D01*
X123595237Y-138203152D02*
X123738094Y-138203152D01*
X123738094Y-138203152D02*
X123833332Y-138250771D01*
X123833332Y-138250771D02*
X123880951Y-138346009D01*
X123880951Y-138346009D02*
X123880951Y-138869819D01*
X124785713Y-138203152D02*
X124785713Y-139012676D01*
X124785713Y-139012676D02*
X124738094Y-139107914D01*
X124738094Y-139107914D02*
X124690475Y-139155533D01*
X124690475Y-139155533D02*
X124595237Y-139203152D01*
X124595237Y-139203152D02*
X124452380Y-139203152D01*
X124452380Y-139203152D02*
X124357142Y-139155533D01*
X124785713Y-138822200D02*
X124690475Y-138869819D01*
X124690475Y-138869819D02*
X124499999Y-138869819D01*
X124499999Y-138869819D02*
X124404761Y-138822200D01*
X124404761Y-138822200D02*
X124357142Y-138774580D01*
X124357142Y-138774580D02*
X124309523Y-138679342D01*
X124309523Y-138679342D02*
X124309523Y-138393628D01*
X124309523Y-138393628D02*
X124357142Y-138298390D01*
X124357142Y-138298390D02*
X124404761Y-138250771D01*
X124404761Y-138250771D02*
X124499999Y-138203152D01*
X124499999Y-138203152D02*
X124690475Y-138203152D01*
X124690475Y-138203152D02*
X124785713Y-138250771D01*
X125928571Y-137869819D02*
X126166666Y-138869819D01*
X126166666Y-138869819D02*
X126357142Y-138155533D01*
X126357142Y-138155533D02*
X126547618Y-138869819D01*
X126547618Y-138869819D02*
X126785714Y-137869819D01*
X127595237Y-138869819D02*
X127595237Y-138346009D01*
X127595237Y-138346009D02*
X127547618Y-138250771D01*
X127547618Y-138250771D02*
X127452380Y-138203152D01*
X127452380Y-138203152D02*
X127261904Y-138203152D01*
X127261904Y-138203152D02*
X127166666Y-138250771D01*
X127595237Y-138822200D02*
X127499999Y-138869819D01*
X127499999Y-138869819D02*
X127261904Y-138869819D01*
X127261904Y-138869819D02*
X127166666Y-138822200D01*
X127166666Y-138822200D02*
X127119047Y-138726961D01*
X127119047Y-138726961D02*
X127119047Y-138631723D01*
X127119047Y-138631723D02*
X127166666Y-138536485D01*
X127166666Y-138536485D02*
X127261904Y-138488866D01*
X127261904Y-138488866D02*
X127499999Y-138488866D01*
X127499999Y-138488866D02*
X127595237Y-138441247D01*
X128071428Y-138203152D02*
X128071428Y-138869819D01*
X128071428Y-138298390D02*
X128119047Y-138250771D01*
X128119047Y-138250771D02*
X128214285Y-138203152D01*
X128214285Y-138203152D02*
X128357142Y-138203152D01*
X128357142Y-138203152D02*
X128452380Y-138250771D01*
X128452380Y-138250771D02*
X128499999Y-138346009D01*
X128499999Y-138346009D02*
X128499999Y-138869819D01*
X129404761Y-138203152D02*
X129404761Y-139012676D01*
X129404761Y-139012676D02*
X129357142Y-139107914D01*
X129357142Y-139107914D02*
X129309523Y-139155533D01*
X129309523Y-139155533D02*
X129214285Y-139203152D01*
X129214285Y-139203152D02*
X129071428Y-139203152D01*
X129071428Y-139203152D02*
X128976190Y-139155533D01*
X129404761Y-138822200D02*
X129309523Y-138869819D01*
X129309523Y-138869819D02*
X129119047Y-138869819D01*
X129119047Y-138869819D02*
X129023809Y-138822200D01*
X129023809Y-138822200D02*
X128976190Y-138774580D01*
X128976190Y-138774580D02*
X128928571Y-138679342D01*
X128928571Y-138679342D02*
X128928571Y-138393628D01*
X128928571Y-138393628D02*
X128976190Y-138298390D01*
X128976190Y-138298390D02*
X129023809Y-138250771D01*
X129023809Y-138250771D02*
X129119047Y-138203152D01*
X129119047Y-138203152D02*
X129309523Y-138203152D01*
X129309523Y-138203152D02*
X129404761Y-138250771D01*
X130595238Y-137965057D02*
X130642857Y-137917438D01*
X130642857Y-137917438D02*
X130738095Y-137869819D01*
X130738095Y-137869819D02*
X130976190Y-137869819D01*
X130976190Y-137869819D02*
X131071428Y-137917438D01*
X131071428Y-137917438D02*
X131119047Y-137965057D01*
X131119047Y-137965057D02*
X131166666Y-138060295D01*
X131166666Y-138060295D02*
X131166666Y-138155533D01*
X131166666Y-138155533D02*
X131119047Y-138298390D01*
X131119047Y-138298390D02*
X130547619Y-138869819D01*
X130547619Y-138869819D02*
X131166666Y-138869819D01*
X131785714Y-137869819D02*
X131880952Y-137869819D01*
X131880952Y-137869819D02*
X131976190Y-137917438D01*
X131976190Y-137917438D02*
X132023809Y-137965057D01*
X132023809Y-137965057D02*
X132071428Y-138060295D01*
X132071428Y-138060295D02*
X132119047Y-138250771D01*
X132119047Y-138250771D02*
X132119047Y-138488866D01*
X132119047Y-138488866D02*
X132071428Y-138679342D01*
X132071428Y-138679342D02*
X132023809Y-138774580D01*
X132023809Y-138774580D02*
X131976190Y-138822200D01*
X131976190Y-138822200D02*
X131880952Y-138869819D01*
X131880952Y-138869819D02*
X131785714Y-138869819D01*
X131785714Y-138869819D02*
X131690476Y-138822200D01*
X131690476Y-138822200D02*
X131642857Y-138774580D01*
X131642857Y-138774580D02*
X131595238Y-138679342D01*
X131595238Y-138679342D02*
X131547619Y-138488866D01*
X131547619Y-138488866D02*
X131547619Y-138250771D01*
X131547619Y-138250771D02*
X131595238Y-138060295D01*
X131595238Y-138060295D02*
X131642857Y-137965057D01*
X131642857Y-137965057D02*
X131690476Y-137917438D01*
X131690476Y-137917438D02*
X131785714Y-137869819D01*
X132500000Y-137965057D02*
X132547619Y-137917438D01*
X132547619Y-137917438D02*
X132642857Y-137869819D01*
X132642857Y-137869819D02*
X132880952Y-137869819D01*
X132880952Y-137869819D02*
X132976190Y-137917438D01*
X132976190Y-137917438D02*
X133023809Y-137965057D01*
X133023809Y-137965057D02*
X133071428Y-138060295D01*
X133071428Y-138060295D02*
X133071428Y-138155533D01*
X133071428Y-138155533D02*
X133023809Y-138298390D01*
X133023809Y-138298390D02*
X132452381Y-138869819D01*
X132452381Y-138869819D02*
X133071428Y-138869819D01*
X133928571Y-138203152D02*
X133928571Y-138869819D01*
X133690476Y-137822200D02*
X133452381Y-138536485D01*
X133452381Y-138536485D02*
X134071428Y-138536485D01*
X146302221Y-130123440D02*
X146302221Y-129123440D01*
X146302221Y-129123440D02*
X146683173Y-129123440D01*
X146683173Y-129123440D02*
X146778411Y-129171059D01*
X146778411Y-129171059D02*
X146826030Y-129218678D01*
X146826030Y-129218678D02*
X146873649Y-129313916D01*
X146873649Y-129313916D02*
X146873649Y-129456773D01*
X146873649Y-129456773D02*
X146826030Y-129552011D01*
X146826030Y-129552011D02*
X146778411Y-129599630D01*
X146778411Y-129599630D02*
X146683173Y-129647249D01*
X146683173Y-129647249D02*
X146302221Y-129647249D01*
X147445078Y-130123440D02*
X147349840Y-130075821D01*
X147349840Y-130075821D02*
X147302221Y-130028201D01*
X147302221Y-130028201D02*
X147254602Y-129932963D01*
X147254602Y-129932963D02*
X147254602Y-129647249D01*
X147254602Y-129647249D02*
X147302221Y-129552011D01*
X147302221Y-129552011D02*
X147349840Y-129504392D01*
X147349840Y-129504392D02*
X147445078Y-129456773D01*
X147445078Y-129456773D02*
X147587935Y-129456773D01*
X147587935Y-129456773D02*
X147683173Y-129504392D01*
X147683173Y-129504392D02*
X147730792Y-129552011D01*
X147730792Y-129552011D02*
X147778411Y-129647249D01*
X147778411Y-129647249D02*
X147778411Y-129932963D01*
X147778411Y-129932963D02*
X147730792Y-130028201D01*
X147730792Y-130028201D02*
X147683173Y-130075821D01*
X147683173Y-130075821D02*
X147587935Y-130123440D01*
X147587935Y-130123440D02*
X147445078Y-130123440D01*
X148111745Y-129456773D02*
X148302221Y-130123440D01*
X148302221Y-130123440D02*
X148492697Y-129647249D01*
X148492697Y-129647249D02*
X148683173Y-130123440D01*
X148683173Y-130123440D02*
X148873649Y-129456773D01*
X149635554Y-130075821D02*
X149540316Y-130123440D01*
X149540316Y-130123440D02*
X149349840Y-130123440D01*
X149349840Y-130123440D02*
X149254602Y-130075821D01*
X149254602Y-130075821D02*
X149206983Y-129980582D01*
X149206983Y-129980582D02*
X149206983Y-129599630D01*
X149206983Y-129599630D02*
X149254602Y-129504392D01*
X149254602Y-129504392D02*
X149349840Y-129456773D01*
X149349840Y-129456773D02*
X149540316Y-129456773D01*
X149540316Y-129456773D02*
X149635554Y-129504392D01*
X149635554Y-129504392D02*
X149683173Y-129599630D01*
X149683173Y-129599630D02*
X149683173Y-129694868D01*
X149683173Y-129694868D02*
X149206983Y-129790106D01*
X150111745Y-130123440D02*
X150111745Y-129456773D01*
X150111745Y-129647249D02*
X150159364Y-129552011D01*
X150159364Y-129552011D02*
X150206983Y-129504392D01*
X150206983Y-129504392D02*
X150302221Y-129456773D01*
X150302221Y-129456773D02*
X150397459Y-129456773D01*
X151492698Y-130123440D02*
X151492698Y-129123440D01*
X151968888Y-129456773D02*
X151968888Y-130123440D01*
X151968888Y-129552011D02*
X152016507Y-129504392D01*
X152016507Y-129504392D02*
X152111745Y-129456773D01*
X152111745Y-129456773D02*
X152254602Y-129456773D01*
X152254602Y-129456773D02*
X152349840Y-129504392D01*
X152349840Y-129504392D02*
X152397459Y-129599630D01*
X152397459Y-129599630D02*
X152397459Y-130123440D01*
X113228857Y-89144256D02*
X113371714Y-89191875D01*
X113371714Y-89191875D02*
X113609809Y-89191875D01*
X113609809Y-89191875D02*
X113705047Y-89144256D01*
X113705047Y-89144256D02*
X113752666Y-89096636D01*
X113752666Y-89096636D02*
X113800285Y-89001398D01*
X113800285Y-89001398D02*
X113800285Y-88906160D01*
X113800285Y-88906160D02*
X113752666Y-88810922D01*
X113752666Y-88810922D02*
X113705047Y-88763303D01*
X113705047Y-88763303D02*
X113609809Y-88715684D01*
X113609809Y-88715684D02*
X113419333Y-88668065D01*
X113419333Y-88668065D02*
X113324095Y-88620446D01*
X113324095Y-88620446D02*
X113276476Y-88572827D01*
X113276476Y-88572827D02*
X113228857Y-88477589D01*
X113228857Y-88477589D02*
X113228857Y-88382351D01*
X113228857Y-88382351D02*
X113276476Y-88287113D01*
X113276476Y-88287113D02*
X113324095Y-88239494D01*
X113324095Y-88239494D02*
X113419333Y-88191875D01*
X113419333Y-88191875D02*
X113657428Y-88191875D01*
X113657428Y-88191875D02*
X113800285Y-88239494D01*
X114228857Y-89191875D02*
X114228857Y-88191875D01*
X114657428Y-89191875D02*
X114657428Y-88668065D01*
X114657428Y-88668065D02*
X114609809Y-88572827D01*
X114609809Y-88572827D02*
X114514571Y-88525208D01*
X114514571Y-88525208D02*
X114371714Y-88525208D01*
X114371714Y-88525208D02*
X114276476Y-88572827D01*
X114276476Y-88572827D02*
X114228857Y-88620446D01*
X115562190Y-88525208D02*
X115562190Y-89191875D01*
X115133619Y-88525208D02*
X115133619Y-89049017D01*
X115133619Y-89049017D02*
X115181238Y-89144256D01*
X115181238Y-89144256D02*
X115276476Y-89191875D01*
X115276476Y-89191875D02*
X115419333Y-89191875D01*
X115419333Y-89191875D02*
X115514571Y-89144256D01*
X115514571Y-89144256D02*
X115562190Y-89096636D01*
X115895524Y-88525208D02*
X116276476Y-88525208D01*
X116038381Y-88191875D02*
X116038381Y-89049017D01*
X116038381Y-89049017D02*
X116086000Y-89144256D01*
X116086000Y-89144256D02*
X116181238Y-89191875D01*
X116181238Y-89191875D02*
X116276476Y-89191875D01*
X117038381Y-89191875D02*
X117038381Y-88191875D01*
X117038381Y-89144256D02*
X116943143Y-89191875D01*
X116943143Y-89191875D02*
X116752667Y-89191875D01*
X116752667Y-89191875D02*
X116657429Y-89144256D01*
X116657429Y-89144256D02*
X116609810Y-89096636D01*
X116609810Y-89096636D02*
X116562191Y-89001398D01*
X116562191Y-89001398D02*
X116562191Y-88715684D01*
X116562191Y-88715684D02*
X116609810Y-88620446D01*
X116609810Y-88620446D02*
X116657429Y-88572827D01*
X116657429Y-88572827D02*
X116752667Y-88525208D01*
X116752667Y-88525208D02*
X116943143Y-88525208D01*
X116943143Y-88525208D02*
X117038381Y-88572827D01*
X117657429Y-89191875D02*
X117562191Y-89144256D01*
X117562191Y-89144256D02*
X117514572Y-89096636D01*
X117514572Y-89096636D02*
X117466953Y-89001398D01*
X117466953Y-89001398D02*
X117466953Y-88715684D01*
X117466953Y-88715684D02*
X117514572Y-88620446D01*
X117514572Y-88620446D02*
X117562191Y-88572827D01*
X117562191Y-88572827D02*
X117657429Y-88525208D01*
X117657429Y-88525208D02*
X117800286Y-88525208D01*
X117800286Y-88525208D02*
X117895524Y-88572827D01*
X117895524Y-88572827D02*
X117943143Y-88620446D01*
X117943143Y-88620446D02*
X117990762Y-88715684D01*
X117990762Y-88715684D02*
X117990762Y-89001398D01*
X117990762Y-89001398D02*
X117943143Y-89096636D01*
X117943143Y-89096636D02*
X117895524Y-89144256D01*
X117895524Y-89144256D02*
X117800286Y-89191875D01*
X117800286Y-89191875D02*
X117657429Y-89191875D01*
X118324096Y-88525208D02*
X118514572Y-89191875D01*
X118514572Y-89191875D02*
X118705048Y-88715684D01*
X118705048Y-88715684D02*
X118895524Y-89191875D01*
X118895524Y-89191875D02*
X119086000Y-88525208D01*
X119466953Y-88525208D02*
X119466953Y-89191875D01*
X119466953Y-88620446D02*
X119514572Y-88572827D01*
X119514572Y-88572827D02*
X119609810Y-88525208D01*
X119609810Y-88525208D02*
X119752667Y-88525208D01*
X119752667Y-88525208D02*
X119847905Y-88572827D01*
X119847905Y-88572827D02*
X119895524Y-88668065D01*
X119895524Y-88668065D02*
X119895524Y-89191875D01*
X113633619Y-90801819D02*
X113633619Y-89801819D01*
X114109809Y-90135152D02*
X114109809Y-90801819D01*
X114109809Y-90230390D02*
X114157428Y-90182771D01*
X114157428Y-90182771D02*
X114252666Y-90135152D01*
X114252666Y-90135152D02*
X114395523Y-90135152D01*
X114395523Y-90135152D02*
X114490761Y-90182771D01*
X114490761Y-90182771D02*
X114538380Y-90278009D01*
X114538380Y-90278009D02*
X114538380Y-90801819D01*
X116014571Y-91135152D02*
X116014571Y-89706580D01*
X117681238Y-89801819D02*
X117871714Y-89801819D01*
X117871714Y-89801819D02*
X117966952Y-89849438D01*
X117966952Y-89849438D02*
X118062190Y-89944676D01*
X118062190Y-89944676D02*
X118109809Y-90135152D01*
X118109809Y-90135152D02*
X118109809Y-90468485D01*
X118109809Y-90468485D02*
X118062190Y-90658961D01*
X118062190Y-90658961D02*
X117966952Y-90754200D01*
X117966952Y-90754200D02*
X117871714Y-90801819D01*
X117871714Y-90801819D02*
X117681238Y-90801819D01*
X117681238Y-90801819D02*
X117586000Y-90754200D01*
X117586000Y-90754200D02*
X117490762Y-90658961D01*
X117490762Y-90658961D02*
X117443143Y-90468485D01*
X117443143Y-90468485D02*
X117443143Y-90135152D01*
X117443143Y-90135152D02*
X117490762Y-89944676D01*
X117490762Y-89944676D02*
X117586000Y-89849438D01*
X117586000Y-89849438D02*
X117681238Y-89801819D01*
X118966952Y-90135152D02*
X118966952Y-90801819D01*
X118538381Y-90135152D02*
X118538381Y-90658961D01*
X118538381Y-90658961D02*
X118586000Y-90754200D01*
X118586000Y-90754200D02*
X118681238Y-90801819D01*
X118681238Y-90801819D02*
X118824095Y-90801819D01*
X118824095Y-90801819D02*
X118919333Y-90754200D01*
X118919333Y-90754200D02*
X118966952Y-90706580D01*
X119300286Y-90135152D02*
X119681238Y-90135152D01*
X119443143Y-89801819D02*
X119443143Y-90658961D01*
X119443143Y-90658961D02*
X119490762Y-90754200D01*
X119490762Y-90754200D02*
X119586000Y-90801819D01*
X119586000Y-90801819D02*
X119681238Y-90801819D01*
X115817060Y-107638026D02*
X114817060Y-107638026D01*
X115817060Y-107066598D02*
X115245631Y-107495169D01*
X114817060Y-107066598D02*
X115388488Y-107638026D01*
X114912298Y-106685645D02*
X114864679Y-106638026D01*
X114864679Y-106638026D02*
X114817060Y-106542788D01*
X114817060Y-106542788D02*
X114817060Y-106304693D01*
X114817060Y-106304693D02*
X114864679Y-106209455D01*
X114864679Y-106209455D02*
X114912298Y-106161836D01*
X114912298Y-106161836D02*
X115007536Y-106114217D01*
X115007536Y-106114217D02*
X115102774Y-106114217D01*
X115102774Y-106114217D02*
X115245631Y-106161836D01*
X115245631Y-106161836D02*
X115817060Y-106733264D01*
X115817060Y-106733264D02*
X115817060Y-106114217D01*
X137938819Y-123220926D02*
X136938819Y-123220926D01*
X136938819Y-123220926D02*
X136938819Y-122982831D01*
X136938819Y-122982831D02*
X136986438Y-122839974D01*
X136986438Y-122839974D02*
X137081676Y-122744736D01*
X137081676Y-122744736D02*
X137176914Y-122697117D01*
X137176914Y-122697117D02*
X137367390Y-122649498D01*
X137367390Y-122649498D02*
X137510247Y-122649498D01*
X137510247Y-122649498D02*
X137700723Y-122697117D01*
X137700723Y-122697117D02*
X137795961Y-122744736D01*
X137795961Y-122744736D02*
X137891200Y-122839974D01*
X137891200Y-122839974D02*
X137938819Y-122982831D01*
X137938819Y-122982831D02*
X137938819Y-123220926D01*
X136938819Y-122316164D02*
X136938819Y-121697117D01*
X136938819Y-121697117D02*
X137319771Y-122030450D01*
X137319771Y-122030450D02*
X137319771Y-121887593D01*
X137319771Y-121887593D02*
X137367390Y-121792355D01*
X137367390Y-121792355D02*
X137415009Y-121744736D01*
X137415009Y-121744736D02*
X137510247Y-121697117D01*
X137510247Y-121697117D02*
X137748342Y-121697117D01*
X137748342Y-121697117D02*
X137843580Y-121744736D01*
X137843580Y-121744736D02*
X137891200Y-121792355D01*
X137891200Y-121792355D02*
X137938819Y-121887593D01*
X137938819Y-121887593D02*
X137938819Y-122173307D01*
X137938819Y-122173307D02*
X137891200Y-122268545D01*
X137891200Y-122268545D02*
X137843580Y-122316164D01*
D12*
X148674667Y-121898318D02*
X148674667Y-122805461D01*
X148674667Y-122805461D02*
X148614190Y-122986889D01*
X148614190Y-122986889D02*
X148493238Y-123107842D01*
X148493238Y-123107842D02*
X148311809Y-123168318D01*
X148311809Y-123168318D02*
X148190857Y-123168318D01*
X149823714Y-122321651D02*
X149823714Y-123168318D01*
X149521333Y-121837842D02*
X149218952Y-122744984D01*
X149218952Y-122744984D02*
X150005143Y-122744984D01*
D11*
X136178908Y-102570032D02*
X136321765Y-102617651D01*
X136321765Y-102617651D02*
X136559860Y-102617651D01*
X136559860Y-102617651D02*
X136655098Y-102570032D01*
X136655098Y-102570032D02*
X136702717Y-102522412D01*
X136702717Y-102522412D02*
X136750336Y-102427174D01*
X136750336Y-102427174D02*
X136750336Y-102331936D01*
X136750336Y-102331936D02*
X136702717Y-102236698D01*
X136702717Y-102236698D02*
X136655098Y-102189079D01*
X136655098Y-102189079D02*
X136559860Y-102141460D01*
X136559860Y-102141460D02*
X136369384Y-102093841D01*
X136369384Y-102093841D02*
X136274146Y-102046222D01*
X136274146Y-102046222D02*
X136226527Y-101998603D01*
X136226527Y-101998603D02*
X136178908Y-101903365D01*
X136178908Y-101903365D02*
X136178908Y-101808127D01*
X136178908Y-101808127D02*
X136226527Y-101712889D01*
X136226527Y-101712889D02*
X136274146Y-101665270D01*
X136274146Y-101665270D02*
X136369384Y-101617651D01*
X136369384Y-101617651D02*
X136607479Y-101617651D01*
X136607479Y-101617651D02*
X136750336Y-101665270D01*
X137083670Y-101617651D02*
X137321765Y-102617651D01*
X137321765Y-102617651D02*
X137512241Y-101903365D01*
X137512241Y-101903365D02*
X137702717Y-102617651D01*
X137702717Y-102617651D02*
X137940813Y-101617651D01*
X138845574Y-102617651D02*
X138274146Y-102617651D01*
X138559860Y-102617651D02*
X138559860Y-101617651D01*
X138559860Y-101617651D02*
X138464622Y-101760508D01*
X138464622Y-101760508D02*
X138369384Y-101855746D01*
X138369384Y-101855746D02*
X138274146Y-101903365D01*
X130887060Y-108679498D02*
X130410869Y-109012831D01*
X130887060Y-109250926D02*
X129887060Y-109250926D01*
X129887060Y-109250926D02*
X129887060Y-108869974D01*
X129887060Y-108869974D02*
X129934679Y-108774736D01*
X129934679Y-108774736D02*
X129982298Y-108727117D01*
X129982298Y-108727117D02*
X130077536Y-108679498D01*
X130077536Y-108679498D02*
X130220393Y-108679498D01*
X130220393Y-108679498D02*
X130315631Y-108727117D01*
X130315631Y-108727117D02*
X130363250Y-108774736D01*
X130363250Y-108774736D02*
X130410869Y-108869974D01*
X130410869Y-108869974D02*
X130410869Y-109250926D01*
X130887060Y-107727117D02*
X130887060Y-108298545D01*
X130887060Y-108012831D02*
X129887060Y-108012831D01*
X129887060Y-108012831D02*
X130029917Y-108108069D01*
X130029917Y-108108069D02*
X130125155Y-108203307D01*
X130125155Y-108203307D02*
X130172774Y-108298545D01*
X117897060Y-122760926D02*
X116897060Y-122760926D01*
X117897060Y-122189498D02*
X117325631Y-122618069D01*
X116897060Y-122189498D02*
X117468488Y-122760926D01*
X117897060Y-121237117D02*
X117897060Y-121808545D01*
X117897060Y-121522831D02*
X116897060Y-121522831D01*
X116897060Y-121522831D02*
X117039917Y-121618069D01*
X117039917Y-121618069D02*
X117135155Y-121713307D01*
X117135155Y-121713307D02*
X117182774Y-121808545D01*
X126054146Y-93577651D02*
X126054146Y-92577651D01*
X126054146Y-92577651D02*
X126292241Y-92577651D01*
X126292241Y-92577651D02*
X126435098Y-92625270D01*
X126435098Y-92625270D02*
X126530336Y-92720508D01*
X126530336Y-92720508D02*
X126577955Y-92815746D01*
X126577955Y-92815746D02*
X126625574Y-93006222D01*
X126625574Y-93006222D02*
X126625574Y-93149079D01*
X126625574Y-93149079D02*
X126577955Y-93339555D01*
X126577955Y-93339555D02*
X126530336Y-93434793D01*
X126530336Y-93434793D02*
X126435098Y-93530032D01*
X126435098Y-93530032D02*
X126292241Y-93577651D01*
X126292241Y-93577651D02*
X126054146Y-93577651D01*
X127006527Y-92672889D02*
X127054146Y-92625270D01*
X127054146Y-92625270D02*
X127149384Y-92577651D01*
X127149384Y-92577651D02*
X127387479Y-92577651D01*
X127387479Y-92577651D02*
X127482717Y-92625270D01*
X127482717Y-92625270D02*
X127530336Y-92672889D01*
X127530336Y-92672889D02*
X127577955Y-92768127D01*
X127577955Y-92768127D02*
X127577955Y-92863365D01*
X127577955Y-92863365D02*
X127530336Y-93006222D01*
X127530336Y-93006222D02*
X126958908Y-93577651D01*
X126958908Y-93577651D02*
X127577955Y-93577651D01*
D12*
X137226318Y-95927332D02*
X138133461Y-95927332D01*
X138133461Y-95927332D02*
X138314889Y-95987809D01*
X138314889Y-95987809D02*
X138435842Y-96108761D01*
X138435842Y-96108761D02*
X138496318Y-96290190D01*
X138496318Y-96290190D02*
X138496318Y-96411142D01*
X137226318Y-95443523D02*
X137226318Y-94657332D01*
X137226318Y-94657332D02*
X137710127Y-95080666D01*
X137710127Y-95080666D02*
X137710127Y-94899237D01*
X137710127Y-94899237D02*
X137770603Y-94778285D01*
X137770603Y-94778285D02*
X137831080Y-94717809D01*
X137831080Y-94717809D02*
X137952032Y-94657332D01*
X137952032Y-94657332D02*
X138254413Y-94657332D01*
X138254413Y-94657332D02*
X138375365Y-94717809D01*
X138375365Y-94717809D02*
X138435842Y-94778285D01*
X138435842Y-94778285D02*
X138496318Y-94899237D01*
X138496318Y-94899237D02*
X138496318Y-95262094D01*
X138496318Y-95262094D02*
X138435842Y-95383047D01*
X138435842Y-95383047D02*
X138375365Y-95443523D01*
D11*
X112284819Y-123220926D02*
X111284819Y-123220926D01*
X111284819Y-123220926D02*
X111284819Y-122982831D01*
X111284819Y-122982831D02*
X111332438Y-122839974D01*
X111332438Y-122839974D02*
X111427676Y-122744736D01*
X111427676Y-122744736D02*
X111522914Y-122697117D01*
X111522914Y-122697117D02*
X111713390Y-122649498D01*
X111713390Y-122649498D02*
X111856247Y-122649498D01*
X111856247Y-122649498D02*
X112046723Y-122697117D01*
X112046723Y-122697117D02*
X112141961Y-122744736D01*
X112141961Y-122744736D02*
X112237200Y-122839974D01*
X112237200Y-122839974D02*
X112284819Y-122982831D01*
X112284819Y-122982831D02*
X112284819Y-123220926D01*
X112284819Y-121697117D02*
X112284819Y-122268545D01*
X112284819Y-121982831D02*
X111284819Y-121982831D01*
X111284819Y-121982831D02*
X111427676Y-122078069D01*
X111427676Y-122078069D02*
X111522914Y-122173307D01*
X111522914Y-122173307D02*
X111570533Y-122268545D01*
D12*
X105578917Y-121820318D02*
X105578917Y-122727461D01*
X105578917Y-122727461D02*
X105518440Y-122908889D01*
X105518440Y-122908889D02*
X105397488Y-123029842D01*
X105397488Y-123029842D02*
X105216059Y-123090318D01*
X105216059Y-123090318D02*
X105095107Y-123090318D01*
X106123202Y-121941270D02*
X106183678Y-121880794D01*
X106183678Y-121880794D02*
X106304631Y-121820318D01*
X106304631Y-121820318D02*
X106607012Y-121820318D01*
X106607012Y-121820318D02*
X106727964Y-121880794D01*
X106727964Y-121880794D02*
X106788440Y-121941270D01*
X106788440Y-121941270D02*
X106848917Y-122062222D01*
X106848917Y-122062222D02*
X106848917Y-122183175D01*
X106848917Y-122183175D02*
X106788440Y-122364603D01*
X106788440Y-122364603D02*
X106062726Y-123090318D01*
X106062726Y-123090318D02*
X106848917Y-123090318D01*
X115742667Y-94978068D02*
X115742667Y-95885211D01*
X115742667Y-95885211D02*
X115682190Y-96066639D01*
X115682190Y-96066639D02*
X115561238Y-96187592D01*
X115561238Y-96187592D02*
X115379809Y-96248068D01*
X115379809Y-96248068D02*
X115258857Y-96248068D01*
X117012667Y-96248068D02*
X116286952Y-96248068D01*
X116649809Y-96248068D02*
X116649809Y-94978068D01*
X116649809Y-94978068D02*
X116528857Y-95159496D01*
X116528857Y-95159496D02*
X116407905Y-95280449D01*
X116407905Y-95280449D02*
X116286952Y-95340925D01*
D11*
X107826819Y-107164094D02*
X106826819Y-107164094D01*
X106826819Y-107164094D02*
X106826819Y-106925999D01*
X106826819Y-106925999D02*
X106874438Y-106783142D01*
X106874438Y-106783142D02*
X106969676Y-106687904D01*
X106969676Y-106687904D02*
X107064914Y-106640285D01*
X107064914Y-106640285D02*
X107255390Y-106592666D01*
X107255390Y-106592666D02*
X107398247Y-106592666D01*
X107398247Y-106592666D02*
X107588723Y-106640285D01*
X107588723Y-106640285D02*
X107683961Y-106687904D01*
X107683961Y-106687904D02*
X107779200Y-106783142D01*
X107779200Y-106783142D02*
X107826819Y-106925999D01*
X107826819Y-106925999D02*
X107826819Y-107164094D01*
X107160152Y-105735523D02*
X107826819Y-105735523D01*
X106779200Y-105973618D02*
X107493485Y-106211713D01*
X107493485Y-106211713D02*
X107493485Y-105592666D01*
D13*
%TO.C,K2*%
X109012241Y-102962932D02*
X109012241Y-110836932D01*
X109012241Y-110836932D02*
X121712241Y-110836932D01*
X121712241Y-102962932D02*
X109012241Y-102962932D01*
X121712241Y-110836932D02*
X121712241Y-102962932D01*
X110231441Y-111573532D02*
G75*
G02*
X110079041Y-111573532I-76200J0D01*
G01*
X110079041Y-111573532D02*
G75*
G02*
X110231441Y-111573532I76200J0D01*
G01*
D14*
%TO.C,D3*%
X138484000Y-119762832D02*
X138484000Y-125202832D01*
X138484000Y-124182832D02*
X141424000Y-124182832D01*
X138484000Y-124302832D02*
X141424000Y-124302832D01*
X138484000Y-124422832D02*
X141424000Y-124422832D01*
X138484000Y-125202832D02*
X141424000Y-125202832D01*
X139954000Y-118742832D02*
X139954000Y-119762832D01*
X139954000Y-126222832D02*
X139954000Y-125202832D01*
X141424000Y-119762832D02*
X138484000Y-119762832D01*
X141424000Y-125202832D02*
X141424000Y-119762832D01*
D15*
%TO.C,J4*%
X144998000Y-119134000D02*
X145998000Y-119634000D01*
X144998000Y-120134000D02*
X144998000Y-119134000D01*
X145998000Y-119634000D02*
X144998000Y-120134000D01*
X146398000Y-117384000D02*
X151798000Y-117384000D01*
X146398000Y-126984000D02*
X146398000Y-117384000D01*
X151798000Y-117384000D02*
X151798000Y-126984000D01*
X151798000Y-126984000D02*
X146398000Y-126984000D01*
D14*
%TO.C,SW1*%
X134012241Y-106492832D02*
X134012241Y-107992832D01*
X135262241Y-110492832D02*
X139762241Y-110492832D01*
X139762241Y-103992832D02*
X135262241Y-103992832D01*
X141012241Y-107992832D02*
X141012241Y-106492832D01*
%TO.C,R1*%
X126692241Y-105242832D02*
X126692241Y-111782832D01*
X126692241Y-111782832D02*
X127022241Y-111782832D01*
X127022241Y-105242832D02*
X126692241Y-105242832D01*
X129102241Y-105242832D02*
X129432241Y-105242832D01*
X129432241Y-105242832D02*
X129432241Y-111782832D01*
X129432241Y-111782832D02*
X129102241Y-111782832D01*
%TO.C,K1*%
X118932241Y-126592832D02*
X118932241Y-124402832D01*
X119152241Y-118592832D02*
X119152241Y-126372832D01*
X119152241Y-118592832D02*
X134432241Y-118592832D01*
X119172241Y-126372832D02*
X134432241Y-126372832D01*
X119842241Y-122192832D02*
X119842241Y-122892832D01*
X119842241Y-122892832D02*
X121042241Y-122892832D01*
X120642241Y-122892832D02*
X120242241Y-122192832D01*
X121042241Y-122192832D02*
X119842241Y-122192832D01*
X121042241Y-122892832D02*
X121042241Y-122192832D01*
X121272241Y-126592832D02*
X118932241Y-126592832D01*
X132542241Y-122192832D02*
X132542241Y-122892832D01*
X132542241Y-122892832D02*
X133742241Y-122892832D01*
X133342241Y-122892832D02*
X132942241Y-122192832D01*
X133742241Y-122192832D02*
X132542241Y-122192832D01*
X133742241Y-122892832D02*
X133742241Y-122192832D01*
X134432241Y-118592832D02*
X134432241Y-126372832D01*
%TO.C,D2*%
X124232241Y-95537832D02*
X124232241Y-98627832D01*
X124232241Y-95538002D02*
G75*
G02*
X129782241Y-97083294I2560000J-1544830D01*
G01*
X129782241Y-97082370D02*
G75*
G02*
X124232241Y-98627662I-2990000J-462D01*
G01*
X129292241Y-97082832D02*
G75*
G02*
X124292241Y-97082832I-2500000J0D01*
G01*
X124292241Y-97082832D02*
G75*
G02*
X129292241Y-97082832I2500000J0D01*
G01*
D15*
%TO.C,J3*%
X132712000Y-92804000D02*
X142312000Y-92804000D01*
X132712000Y-98204000D02*
X132712000Y-92804000D01*
X134462000Y-99604000D02*
X134962000Y-98604000D01*
X134962000Y-98604000D02*
X135462000Y-99604000D01*
X135462000Y-99604000D02*
X134462000Y-99604000D01*
X142312000Y-92804000D02*
X142312000Y-98204000D01*
X142312000Y-98204000D02*
X132712000Y-98204000D01*
D14*
%TO.C,D1*%
X112830000Y-119762832D02*
X112830000Y-125202832D01*
X112830000Y-124182832D02*
X115770000Y-124182832D01*
X112830000Y-124302832D02*
X115770000Y-124302832D01*
X112830000Y-124422832D02*
X115770000Y-124422832D01*
X112830000Y-125202832D02*
X115770000Y-125202832D01*
X114300000Y-118742832D02*
X114300000Y-119762832D01*
X114300000Y-126222832D02*
X114300000Y-125202832D01*
X115770000Y-119762832D02*
X112830000Y-119762832D01*
X115770000Y-125202832D02*
X115770000Y-119762832D01*
D15*
%TO.C,J2*%
X101902250Y-119476000D02*
X102902250Y-119976000D01*
X101902250Y-120476000D02*
X101902250Y-119476000D01*
X102902250Y-119976000D02*
X101902250Y-120476000D01*
X103302250Y-117726000D02*
X108702250Y-117726000D01*
X103302250Y-127326000D02*
X103302250Y-117726000D01*
X108702250Y-117726000D02*
X108702250Y-127326000D01*
X108702250Y-127326000D02*
X103302250Y-127326000D01*
%TO.C,J1*%
X111376000Y-92973750D02*
X120976000Y-92973750D01*
X111376000Y-98373750D02*
X111376000Y-92973750D01*
X113126000Y-99773750D02*
X113626000Y-98773750D01*
X113626000Y-98773750D02*
X114126000Y-99773750D01*
X114126000Y-99773750D02*
X113126000Y-99773750D01*
X120976000Y-92973750D02*
X120976000Y-98373750D01*
X120976000Y-98373750D02*
X111376000Y-98373750D01*
D14*
%TO.C,D4*%
X103432000Y-103706000D02*
X103432000Y-109146000D01*
X103432000Y-109146000D02*
X106372000Y-109146000D01*
X104902000Y-102686000D02*
X104902000Y-103706000D01*
X104902000Y-110166000D02*
X104902000Y-109146000D01*
X106372000Y-103706000D02*
X103432000Y-103706000D01*
X106372000Y-104486000D02*
X103432000Y-104486000D01*
X106372000Y-104606000D02*
X103432000Y-104606000D01*
X106372000Y-104726000D02*
X103432000Y-104726000D01*
X106372000Y-109146000D02*
X106372000Y-103706000D01*
%TD*%
M02*
