%TF.GenerationSoftware,KiCad,Pcbnew,8.0.5*%
%TF.CreationDate,2024-11-24T23:43:31-05:00*%
%TF.ProjectId,ams_latch_cdr_f24,616d735f-6c61-4746-9368-5f6364725f66,rev?*%
%TF.SameCoordinates,Original*%
%TF.FileFunction,Copper,L2,Bot*%
%TF.FilePolarity,Positive*%
%FSLAX46Y46*%
G04 Gerber Fmt 4.6, Leading zero omitted, Abs format (unit mm)*
G04 Created by KiCad (PCBNEW 8.0.5) date 2024-11-24 23:43:31*
%MOMM*%
%LPD*%
G01*
G04 APERTURE LIST*
G04 Aperture macros list*
%AMRoundRect*
0 Rectangle with rounded corners*
0 $1 Rounding radius*
0 $2 $3 $4 $5 $6 $7 $8 $9 X,Y pos of 4 corners*
0 Add a 4 corners polygon primitive as box body*
4,1,4,$2,$3,$4,$5,$6,$7,$8,$9,$2,$3,0*
0 Add four circle primitives for the rounded corners*
1,1,$1+$1,$2,$3*
1,1,$1+$1,$4,$5*
1,1,$1+$1,$6,$7*
1,1,$1+$1,$8,$9*
0 Add four rect primitives between the rounded corners*
20,1,$1+$1,$2,$3,$4,$5,0*
20,1,$1+$1,$4,$5,$6,$7,0*
20,1,$1+$1,$6,$7,$8,$9,0*
20,1,$1+$1,$8,$9,$2,$3,0*%
G04 Aperture macros list end*
%TA.AperFunction,ComponentPad*%
%ADD10C,1.524000*%
%TD*%
%TA.AperFunction,ComponentPad*%
%ADD11R,2.200000X2.200000*%
%TD*%
%TA.AperFunction,ComponentPad*%
%ADD12O,2.200000X2.200000*%
%TD*%
%TA.AperFunction,ComponentPad*%
%ADD13R,1.750000X1.750000*%
%TD*%
%TA.AperFunction,ComponentPad*%
%ADD14C,1.750000*%
%TD*%
%TA.AperFunction,ComponentPad*%
%ADD15C,2.000000*%
%TD*%
%TA.AperFunction,ComponentPad*%
%ADD16C,8.600000*%
%TD*%
%TA.AperFunction,ComponentPad*%
%ADD17C,1.600000*%
%TD*%
%TA.AperFunction,ComponentPad*%
%ADD18O,1.600000X1.600000*%
%TD*%
%TA.AperFunction,ComponentPad*%
%ADD19RoundRect,0.250500X0.499500X-0.499500X0.499500X0.499500X-0.499500X0.499500X-0.499500X-0.499500X0*%
%TD*%
%TA.AperFunction,ComponentPad*%
%ADD20C,1.500000*%
%TD*%
%TA.AperFunction,ComponentPad*%
%ADD21R,1.800000X1.800000*%
%TD*%
%TA.AperFunction,ComponentPad*%
%ADD22C,1.800000*%
%TD*%
%TA.AperFunction,Conductor*%
%ADD23C,0.860000*%
%TD*%
G04 APERTURE END LIST*
D10*
%TO.P,K2,1,1*%
%TO.N,unconnected-(K2-Pad1)*%
X110155241Y-109439932D03*
%TO.P,K2,2,2*%
%TO.N,GND*%
X117775241Y-109439932D03*
%TO.P,K2,3,3*%
%TO.N,unconnected-(K2-Pad3)*%
X120315241Y-109439932D03*
%TO.P,K2,4,4*%
%TO.N,Net-(J1-Pad2)*%
X120315241Y-104359932D03*
%TO.P,K2,5,5*%
%TO.N,Net-(D4-K)*%
X117775241Y-104359932D03*
%TO.P,K2,6,6*%
%TO.N,Net-(J1-1+)*%
X110155241Y-104359932D03*
%TD*%
D11*
%TO.P,D3,1,K*%
%TO.N,Net-(D3-K)*%
X139954000Y-127562832D03*
D12*
%TO.P,D3,2,A*%
%TO.N,GND*%
X139954000Y-117402832D03*
%TD*%
D13*
%TO.P,J4,1,1+*%
%TO.N,VCC*%
X149098000Y-119634000D03*
D14*
%TO.P,J4,2,2*%
%TO.N,GND*%
X149098000Y-125134000D03*
%TD*%
D15*
%TO.P,SW1,1,1*%
%TO.N,Net-(D3-K)*%
X134262241Y-104992832D03*
X140762241Y-104992832D03*
%TO.P,SW1,2,2*%
%TO.N,VCC*%
X134262241Y-109492832D03*
X140762241Y-109492832D03*
%TD*%
D16*
%TO.P,REF\u002A\u002A,1*%
%TO.N,GND*%
X103378000Y-93218000D03*
%TD*%
%TO.P,REF\u002A\u002A,1*%
%TO.N,GND*%
X149606000Y-136906000D03*
%TD*%
D17*
%TO.P,R1,1*%
%TO.N,Net-(D2-A)*%
X128062241Y-104702832D03*
D18*
%TO.P,R1,2*%
%TO.N,Net-(J3-1+)*%
X128062241Y-112322832D03*
%TD*%
D19*
%TO.P,K1,1*%
%TO.N,Net-(D1-K)*%
X120442241Y-125022832D03*
D20*
%TO.P,K1,3*%
%TO.N,unconnected-(K1-Pad3)*%
X125522241Y-125022832D03*
%TO.P,K1,4*%
%TO.N,unconnected-(K1-Pad4)*%
X128062241Y-125022832D03*
%TO.P,K1,5*%
%TO.N,unconnected-(K1-Pad5)*%
X130602241Y-125022832D03*
%TO.P,K1,6*%
%TO.N,Net-(D3-K)*%
X133142241Y-125022832D03*
%TO.P,K1,7*%
%TO.N,GND*%
X133142241Y-119942832D03*
%TO.P,K1,8*%
%TO.N,Net-(J3-1+)*%
X130602241Y-119942832D03*
%TO.P,K1,9*%
%TO.N,VCC*%
X128062241Y-119942832D03*
%TO.P,K1,10*%
%TO.N,Net-(D4-K)*%
X125522241Y-119942832D03*
%TO.P,K1,12*%
%TO.N,GND*%
X120442241Y-119942832D03*
%TD*%
D16*
%TO.P,REF\u002A\u002A,1*%
%TO.N,GND*%
X103378000Y-136906000D03*
%TD*%
D21*
%TO.P,D2,1,K*%
%TO.N,GND*%
X125522241Y-97082832D03*
D22*
%TO.P,D2,2,A*%
%TO.N,Net-(D2-A)*%
X128062241Y-97082832D03*
%TD*%
D13*
%TO.P,J3,1,1+*%
%TO.N,Net-(J3-1+)*%
X134962000Y-95504000D03*
D14*
%TO.P,J3,2,2*%
%TO.N,GND*%
X140462000Y-95504000D03*
%TD*%
D16*
%TO.P,REF\u002A\u002A,1*%
%TO.N,GND*%
X149606000Y-93218000D03*
%TD*%
D11*
%TO.P,D1,1,K*%
%TO.N,Net-(D1-K)*%
X114300000Y-127562832D03*
D12*
%TO.P,D1,2,A*%
%TO.N,GND*%
X114300000Y-117402832D03*
%TD*%
D13*
%TO.P,J2,1,1+*%
%TO.N,Net-(D1-K)*%
X106002250Y-119976000D03*
D14*
%TO.P,J2,2,2*%
%TO.N,GND*%
X106002250Y-125476000D03*
%TD*%
D13*
%TO.P,J1,1,1+*%
%TO.N,Net-(J1-1+)*%
X113626000Y-95673750D03*
D14*
%TO.P,J1,2,2*%
%TO.N,Net-(J1-Pad2)*%
X119126000Y-95673750D03*
%TD*%
D11*
%TO.P,D4,1,K*%
%TO.N,Net-(D4-K)*%
X104902000Y-101346000D03*
D12*
%TO.P,D4,2,A*%
%TO.N,GND*%
X104902000Y-111506000D03*
%TD*%
D23*
%TO.N,Net-(J1-1+)*%
X110155241Y-104359932D02*
X110155241Y-99144509D01*
X110155241Y-99144509D02*
X113626000Y-95673750D01*
%TD*%
%TA.AperFunction,Conductor*%
%TO.N,GND*%
G36*
X156407039Y-84601685D02*
G01*
X156452794Y-84654489D01*
X156464000Y-84706000D01*
X156464000Y-144402000D01*
X156444315Y-144469039D01*
X156391511Y-144514794D01*
X156340000Y-144526000D01*
X96669500Y-144526000D01*
X96602461Y-144506315D01*
X96556706Y-144453511D01*
X96545500Y-144402000D01*
X96545500Y-136905996D01*
X98573162Y-136905996D01*
X98573162Y-136906003D01*
X98592504Y-137336692D01*
X98592505Y-137336701D01*
X98650378Y-137763938D01*
X98746313Y-138184258D01*
X98879542Y-138594296D01*
X98879545Y-138594304D01*
X99048985Y-138990730D01*
X99048989Y-138990738D01*
X99253294Y-139370399D01*
X99490799Y-139730207D01*
X99490800Y-139730208D01*
X99759608Y-140067282D01*
X99810223Y-140120221D01*
X101691097Y-138239347D01*
X101758076Y-138326635D01*
X101957365Y-138525924D01*
X102044651Y-138592901D01*
X100164877Y-140472675D01*
X100382227Y-140662569D01*
X100382244Y-140662582D01*
X100731024Y-140915986D01*
X101101140Y-141137120D01*
X101101146Y-141137123D01*
X101489569Y-141324178D01*
X101489583Y-141324184D01*
X101893209Y-141475667D01*
X101893234Y-141475675D01*
X102308816Y-141590369D01*
X102733023Y-141667351D01*
X103162435Y-141705999D01*
X103162438Y-141706000D01*
X103593562Y-141706000D01*
X103593564Y-141705999D01*
X104022976Y-141667351D01*
X104447183Y-141590369D01*
X104862765Y-141475675D01*
X104862790Y-141475667D01*
X105266416Y-141324184D01*
X105266430Y-141324178D01*
X105654853Y-141137123D01*
X105654859Y-141137120D01*
X106024975Y-140915986D01*
X106373755Y-140662582D01*
X106373772Y-140662569D01*
X106591121Y-140472675D01*
X104711348Y-138592901D01*
X104798635Y-138525924D01*
X104997924Y-138326635D01*
X105064901Y-138239348D01*
X106945775Y-140120222D01*
X106945776Y-140120222D01*
X106996386Y-140067289D01*
X106996386Y-140067288D01*
X107265199Y-139730208D01*
X107265200Y-139730207D01*
X107502705Y-139370399D01*
X107707010Y-138990738D01*
X107707014Y-138990730D01*
X107876454Y-138594304D01*
X107876457Y-138594296D01*
X108009686Y-138184258D01*
X108105621Y-137763938D01*
X108163494Y-137336701D01*
X108163495Y-137336692D01*
X108182838Y-136906003D01*
X108182838Y-136905996D01*
X144801162Y-136905996D01*
X144801162Y-136906003D01*
X144820504Y-137336692D01*
X144820505Y-137336701D01*
X144878378Y-137763938D01*
X144974313Y-138184258D01*
X145107542Y-138594296D01*
X145107545Y-138594304D01*
X145276985Y-138990730D01*
X145276989Y-138990738D01*
X145481294Y-139370399D01*
X145718799Y-139730207D01*
X145718800Y-139730208D01*
X145987608Y-140067282D01*
X146038223Y-140120221D01*
X147919097Y-138239347D01*
X147986076Y-138326635D01*
X148185365Y-138525924D01*
X148272651Y-138592901D01*
X146392877Y-140472675D01*
X146610227Y-140662569D01*
X146610244Y-140662582D01*
X146959024Y-140915986D01*
X147329140Y-141137120D01*
X147329146Y-141137123D01*
X147717569Y-141324178D01*
X147717583Y-141324184D01*
X148121209Y-141475667D01*
X148121234Y-141475675D01*
X148536816Y-141590369D01*
X148961023Y-141667351D01*
X149390435Y-141705999D01*
X149390438Y-141706000D01*
X149821562Y-141706000D01*
X149821564Y-141705999D01*
X150250976Y-141667351D01*
X150675183Y-141590369D01*
X151090765Y-141475675D01*
X151090790Y-141475667D01*
X151494416Y-141324184D01*
X151494430Y-141324178D01*
X151882853Y-141137123D01*
X151882859Y-141137120D01*
X152252975Y-140915986D01*
X152601755Y-140662582D01*
X152601772Y-140662569D01*
X152819121Y-140472675D01*
X150939348Y-138592901D01*
X151026635Y-138525924D01*
X151225924Y-138326635D01*
X151292901Y-138239348D01*
X153173775Y-140120222D01*
X153173776Y-140120222D01*
X153224386Y-140067289D01*
X153224386Y-140067288D01*
X153493199Y-139730208D01*
X153493200Y-139730207D01*
X153730705Y-139370399D01*
X153935010Y-138990738D01*
X153935014Y-138990730D01*
X154104454Y-138594304D01*
X154104457Y-138594296D01*
X154237686Y-138184258D01*
X154333621Y-137763938D01*
X154391494Y-137336701D01*
X154391495Y-137336692D01*
X154410838Y-136906003D01*
X154410838Y-136905996D01*
X154391495Y-136475307D01*
X154391494Y-136475298D01*
X154333621Y-136048061D01*
X154237686Y-135627741D01*
X154104457Y-135217703D01*
X154104454Y-135217695D01*
X153935014Y-134821269D01*
X153935010Y-134821261D01*
X153730705Y-134441600D01*
X153493200Y-134081792D01*
X153493199Y-134081791D01*
X153224391Y-133744717D01*
X153173774Y-133691776D01*
X151292900Y-135572650D01*
X151225924Y-135485365D01*
X151026635Y-135286076D01*
X150939346Y-135219097D01*
X152819121Y-133339323D01*
X152601772Y-133149430D01*
X152601755Y-133149417D01*
X152252975Y-132896013D01*
X151882859Y-132674879D01*
X151882853Y-132674876D01*
X151494430Y-132487821D01*
X151494416Y-132487815D01*
X151090790Y-132336332D01*
X151090765Y-132336324D01*
X150675183Y-132221630D01*
X150250976Y-132144648D01*
X149821564Y-132106000D01*
X149390435Y-132106000D01*
X148961023Y-132144648D01*
X148536816Y-132221630D01*
X148121234Y-132336324D01*
X148121209Y-132336332D01*
X147717583Y-132487815D01*
X147717569Y-132487821D01*
X147329146Y-132674876D01*
X147329140Y-132674879D01*
X146959024Y-132896013D01*
X146610235Y-133149423D01*
X146392877Y-133339322D01*
X146392877Y-133339323D01*
X148272652Y-135219098D01*
X148185365Y-135286076D01*
X147986076Y-135485365D01*
X147919098Y-135572651D01*
X146038223Y-133691777D01*
X145987624Y-133744699D01*
X145987612Y-133744712D01*
X145718800Y-134081791D01*
X145718799Y-134081792D01*
X145481294Y-134441600D01*
X145276989Y-134821261D01*
X145276985Y-134821269D01*
X145107545Y-135217695D01*
X145107542Y-135217703D01*
X144974313Y-135627741D01*
X144878378Y-136048061D01*
X144820505Y-136475298D01*
X144820504Y-136475307D01*
X144801162Y-136905996D01*
X108182838Y-136905996D01*
X108163495Y-136475307D01*
X108163494Y-136475298D01*
X108105621Y-136048061D01*
X108009686Y-135627741D01*
X107876457Y-135217703D01*
X107876454Y-135217695D01*
X107707014Y-134821269D01*
X107707010Y-134821261D01*
X107502705Y-134441600D01*
X107265200Y-134081792D01*
X107265199Y-134081791D01*
X106996391Y-133744717D01*
X106945774Y-133691776D01*
X105064900Y-135572650D01*
X104997924Y-135485365D01*
X104798635Y-135286076D01*
X104711346Y-135219097D01*
X106591121Y-133339323D01*
X106373772Y-133149430D01*
X106373755Y-133149417D01*
X106024975Y-132896013D01*
X105654859Y-132674879D01*
X105654853Y-132674876D01*
X105266430Y-132487821D01*
X105266416Y-132487815D01*
X104862790Y-132336332D01*
X104862765Y-132336324D01*
X104447183Y-132221630D01*
X104022976Y-132144648D01*
X103593564Y-132106000D01*
X103162435Y-132106000D01*
X102733023Y-132144648D01*
X102308816Y-132221630D01*
X101893234Y-132336324D01*
X101893209Y-132336332D01*
X101489583Y-132487815D01*
X101489569Y-132487821D01*
X101101146Y-132674876D01*
X101101140Y-132674879D01*
X100731024Y-132896013D01*
X100382235Y-133149423D01*
X100164877Y-133339322D01*
X100164877Y-133339323D01*
X102044652Y-135219098D01*
X101957365Y-135286076D01*
X101758076Y-135485365D01*
X101691098Y-135572651D01*
X99810224Y-133691777D01*
X99810223Y-133691777D01*
X99759624Y-133744699D01*
X99759612Y-133744712D01*
X99490800Y-134081791D01*
X99490799Y-134081792D01*
X99253294Y-134441600D01*
X99048989Y-134821261D01*
X99048985Y-134821269D01*
X98879545Y-135217695D01*
X98879542Y-135217703D01*
X98746313Y-135627741D01*
X98650378Y-136048061D01*
X98592505Y-136475298D01*
X98592504Y-136475307D01*
X98573162Y-136905996D01*
X96545500Y-136905996D01*
X96545500Y-125475993D01*
X104622538Y-125475993D01*
X104622538Y-125476006D01*
X104641353Y-125703085D01*
X104641355Y-125703093D01*
X104697295Y-125923993D01*
X104788829Y-126132669D01*
X104869124Y-126255570D01*
X105362939Y-125761756D01*
X105381918Y-125807574D01*
X105458524Y-125922224D01*
X105556026Y-126019726D01*
X105670676Y-126096332D01*
X105716492Y-126115309D01*
X105221265Y-126610536D01*
X105221265Y-126610538D01*
X105247610Y-126631043D01*
X105247621Y-126631050D01*
X105448019Y-126739499D01*
X105448030Y-126739504D01*
X105663548Y-126813492D01*
X105888315Y-126851000D01*
X106116185Y-126851000D01*
X106340951Y-126813492D01*
X106556469Y-126739504D01*
X106556480Y-126739499D01*
X106756877Y-126631050D01*
X106756883Y-126631046D01*
X106783233Y-126610537D01*
X106783234Y-126610536D01*
X106586875Y-126414177D01*
X112691500Y-126414177D01*
X112691500Y-128711486D01*
X112698011Y-128772034D01*
X112698011Y-128772036D01*
X112749111Y-128909036D01*
X112836739Y-129026093D01*
X112953796Y-129113721D01*
X113090799Y-129164821D01*
X113118050Y-129167750D01*
X113151345Y-129171331D01*
X113151362Y-129171332D01*
X115448638Y-129171332D01*
X115448654Y-129171331D01*
X115475692Y-129168423D01*
X115509201Y-129164821D01*
X115646204Y-129113721D01*
X115763261Y-129026093D01*
X115850889Y-128909036D01*
X115901989Y-128772033D01*
X115905591Y-128738524D01*
X115908499Y-128711486D01*
X115908500Y-128711469D01*
X115908500Y-126414194D01*
X115908499Y-126414177D01*
X138345500Y-126414177D01*
X138345500Y-128711486D01*
X138352011Y-128772034D01*
X138352011Y-128772036D01*
X138403111Y-128909036D01*
X138490739Y-129026093D01*
X138607796Y-129113721D01*
X138744799Y-129164821D01*
X138772050Y-129167750D01*
X138805345Y-129171331D01*
X138805362Y-129171332D01*
X141102638Y-129171332D01*
X141102654Y-129171331D01*
X141129692Y-129168423D01*
X141163201Y-129164821D01*
X141300204Y-129113721D01*
X141417261Y-129026093D01*
X141504889Y-128909036D01*
X141555989Y-128772033D01*
X141559591Y-128738524D01*
X141562499Y-128711486D01*
X141562500Y-128711469D01*
X141562500Y-126414194D01*
X141562499Y-126414177D01*
X141559157Y-126383102D01*
X141555989Y-126353631D01*
X141504889Y-126216628D01*
X141417261Y-126099571D01*
X141300204Y-126011943D01*
X141258240Y-125996291D01*
X141163203Y-125960843D01*
X141102654Y-125954332D01*
X141102638Y-125954332D01*
X138805362Y-125954332D01*
X138805345Y-125954332D01*
X138744797Y-125960843D01*
X138744795Y-125960843D01*
X138607795Y-126011943D01*
X138490739Y-126099571D01*
X138403111Y-126216627D01*
X138352011Y-126353627D01*
X138352011Y-126353629D01*
X138345500Y-126414177D01*
X115908499Y-126414177D01*
X115905157Y-126383102D01*
X115901989Y-126353631D01*
X115850889Y-126216628D01*
X115763261Y-126099571D01*
X115646204Y-126011943D01*
X115604240Y-125996291D01*
X115509203Y-125960843D01*
X115448654Y-125954332D01*
X115448638Y-125954332D01*
X113151362Y-125954332D01*
X113151345Y-125954332D01*
X113090797Y-125960843D01*
X113090795Y-125960843D01*
X112953795Y-126011943D01*
X112836739Y-126099571D01*
X112749111Y-126216627D01*
X112698011Y-126353627D01*
X112698011Y-126353629D01*
X112691500Y-126414177D01*
X106586875Y-126414177D01*
X106288007Y-126115309D01*
X106333824Y-126096332D01*
X106448474Y-126019726D01*
X106545976Y-125922224D01*
X106622582Y-125807574D01*
X106641559Y-125761757D01*
X107135373Y-126255571D01*
X107215669Y-126132671D01*
X107307204Y-125923993D01*
X107363144Y-125703093D01*
X107363146Y-125703085D01*
X107381962Y-125476006D01*
X107381962Y-125475993D01*
X107363146Y-125248914D01*
X107363144Y-125248906D01*
X107307204Y-125028006D01*
X107215671Y-124819333D01*
X107135373Y-124696427D01*
X106641559Y-125190241D01*
X106622582Y-125144426D01*
X106545976Y-125029776D01*
X106448474Y-124932274D01*
X106333824Y-124855668D01*
X106288006Y-124836690D01*
X106651947Y-124472748D01*
X119183741Y-124472748D01*
X119183741Y-125572915D01*
X119194361Y-125676861D01*
X119250169Y-125845280D01*
X119250174Y-125845291D01*
X119343313Y-125996291D01*
X119343316Y-125996295D01*
X119468777Y-126121756D01*
X119468781Y-126121759D01*
X119619781Y-126214898D01*
X119619784Y-126214899D01*
X119619790Y-126214903D01*
X119788213Y-126270712D01*
X119892165Y-126281332D01*
X119892170Y-126281332D01*
X120992312Y-126281332D01*
X120992317Y-126281332D01*
X121096269Y-126270712D01*
X121264692Y-126214903D01*
X121415704Y-126121757D01*
X121541166Y-125996295D01*
X121634312Y-125845283D01*
X121690121Y-125676860D01*
X121700741Y-125572908D01*
X121700741Y-125022829D01*
X124258934Y-125022829D01*
X124258934Y-125022834D01*
X124269571Y-125144426D01*
X124278126Y-125242203D01*
X124335121Y-125454908D01*
X124335122Y-125454911D01*
X124335123Y-125454913D01*
X124344959Y-125476006D01*
X124428185Y-125654486D01*
X124554492Y-125834870D01*
X124710203Y-125990581D01*
X124890587Y-126116888D01*
X125090165Y-126209952D01*
X125302870Y-126266947D01*
X125459563Y-126280655D01*
X125522239Y-126286139D01*
X125522241Y-126286139D01*
X125522243Y-126286139D01*
X125577198Y-126281331D01*
X125741612Y-126266947D01*
X125954317Y-126209952D01*
X126153895Y-126116888D01*
X126334279Y-125990581D01*
X126489990Y-125834870D01*
X126616297Y-125654486D01*
X126679859Y-125518176D01*
X126726031Y-125465736D01*
X126793224Y-125446584D01*
X126860106Y-125466799D01*
X126904623Y-125518176D01*
X126968185Y-125654486D01*
X127094492Y-125834870D01*
X127250203Y-125990581D01*
X127430587Y-126116888D01*
X127630165Y-126209952D01*
X127842870Y-126266947D01*
X127999563Y-126280655D01*
X128062239Y-126286139D01*
X128062241Y-126286139D01*
X128062243Y-126286139D01*
X128117198Y-126281331D01*
X128281612Y-126266947D01*
X128494317Y-126209952D01*
X128693895Y-126116888D01*
X128874279Y-125990581D01*
X129029990Y-125834870D01*
X129156297Y-125654486D01*
X129219859Y-125518176D01*
X129266031Y-125465736D01*
X129333224Y-125446584D01*
X129400106Y-125466799D01*
X129444623Y-125518176D01*
X129508185Y-125654486D01*
X129634492Y-125834870D01*
X129790203Y-125990581D01*
X129970587Y-126116888D01*
X130170165Y-126209952D01*
X130382870Y-126266947D01*
X130539563Y-126280655D01*
X130602239Y-126286139D01*
X130602241Y-126286139D01*
X130602243Y-126286139D01*
X130657198Y-126281331D01*
X130821612Y-126266947D01*
X131034317Y-126209952D01*
X131233895Y-126116888D01*
X131414279Y-125990581D01*
X131569990Y-125834870D01*
X131696297Y-125654486D01*
X131759859Y-125518176D01*
X131806031Y-125465736D01*
X131873224Y-125446584D01*
X131940106Y-125466799D01*
X131984623Y-125518176D01*
X132048185Y-125654486D01*
X132174492Y-125834870D01*
X132330203Y-125990581D01*
X132510587Y-126116888D01*
X132710165Y-126209952D01*
X132922870Y-126266947D01*
X133079563Y-126280655D01*
X133142239Y-126286139D01*
X133142241Y-126286139D01*
X133142243Y-126286139D01*
X133197198Y-126281331D01*
X133361612Y-126266947D01*
X133574317Y-126209952D01*
X133773895Y-126116888D01*
X133954279Y-125990581D01*
X134109990Y-125834870D01*
X134236297Y-125654486D01*
X134329361Y-125454908D01*
X134386356Y-125242203D01*
X134395823Y-125133993D01*
X147718288Y-125133993D01*
X147718288Y-125134006D01*
X147737103Y-125361085D01*
X147737105Y-125361093D01*
X147793045Y-125581993D01*
X147884579Y-125790669D01*
X147964874Y-125913570D01*
X148458689Y-125419756D01*
X148477668Y-125465574D01*
X148554274Y-125580224D01*
X148651776Y-125677726D01*
X148766426Y-125754332D01*
X148812242Y-125773309D01*
X148317015Y-126268536D01*
X148317015Y-126268538D01*
X148343360Y-126289043D01*
X148343371Y-126289050D01*
X148543769Y-126397499D01*
X148543780Y-126397504D01*
X148759298Y-126471492D01*
X148984065Y-126509000D01*
X149211935Y-126509000D01*
X149436701Y-126471492D01*
X149652219Y-126397504D01*
X149652230Y-126397499D01*
X149852627Y-126289050D01*
X149852633Y-126289046D01*
X149878983Y-126268537D01*
X149878984Y-126268536D01*
X149383757Y-125773309D01*
X149429574Y-125754332D01*
X149544224Y-125677726D01*
X149641726Y-125580224D01*
X149718332Y-125465574D01*
X149737309Y-125419757D01*
X150231123Y-125913571D01*
X150311419Y-125790671D01*
X150402954Y-125581993D01*
X150458894Y-125361093D01*
X150458896Y-125361085D01*
X150477712Y-125134006D01*
X150477712Y-125133993D01*
X150458896Y-124906914D01*
X150458894Y-124906906D01*
X150402954Y-124686006D01*
X150311421Y-124477333D01*
X150231123Y-124354427D01*
X149737309Y-124848241D01*
X149718332Y-124802426D01*
X149641726Y-124687776D01*
X149544224Y-124590274D01*
X149429574Y-124513668D01*
X149383756Y-124494690D01*
X149878983Y-123999462D01*
X149852626Y-123978948D01*
X149652230Y-123870500D01*
X149652219Y-123870495D01*
X149436701Y-123796507D01*
X149211935Y-123759000D01*
X148984065Y-123759000D01*
X148759298Y-123796507D01*
X148543780Y-123870495D01*
X148543769Y-123870500D01*
X148343366Y-123978952D01*
X148317015Y-123999461D01*
X148317015Y-123999463D01*
X148812242Y-124494690D01*
X148766426Y-124513668D01*
X148651776Y-124590274D01*
X148554274Y-124687776D01*
X148477668Y-124802426D01*
X148458690Y-124848243D01*
X147964874Y-124354427D01*
X147884579Y-124477330D01*
X147793045Y-124686006D01*
X147737105Y-124906906D01*
X147737103Y-124906914D01*
X147718288Y-125133993D01*
X134395823Y-125133993D01*
X134401854Y-125065056D01*
X134405548Y-125022834D01*
X134405548Y-125022829D01*
X134397625Y-124932274D01*
X134386356Y-124803461D01*
X134329361Y-124590756D01*
X134236297Y-124391179D01*
X134236295Y-124391176D01*
X134236294Y-124391174D01*
X134173143Y-124300986D01*
X134109990Y-124210794D01*
X133954279Y-124055083D01*
X133773895Y-123928776D01*
X133773891Y-123928774D01*
X133574322Y-123835714D01*
X133574320Y-123835713D01*
X133574317Y-123835712D01*
X133423018Y-123795171D01*
X133361613Y-123778717D01*
X133361606Y-123778716D01*
X133142243Y-123759525D01*
X133142239Y-123759525D01*
X132922875Y-123778716D01*
X132922868Y-123778717D01*
X132710161Y-123835713D01*
X132510587Y-123928776D01*
X132510583Y-123928778D01*
X132330208Y-124055079D01*
X132330201Y-124055084D01*
X132174493Y-124210792D01*
X132174488Y-124210799D01*
X132048187Y-124391174D01*
X132048185Y-124391178D01*
X131984623Y-124527489D01*
X131938451Y-124579928D01*
X131871257Y-124599080D01*
X131804376Y-124578864D01*
X131759859Y-124527489D01*
X131736471Y-124477333D01*
X131696297Y-124391179D01*
X131696295Y-124391176D01*
X131696294Y-124391174D01*
X131633143Y-124300986D01*
X131569990Y-124210794D01*
X131414279Y-124055083D01*
X131233895Y-123928776D01*
X131233891Y-123928774D01*
X131034322Y-123835714D01*
X131034320Y-123835713D01*
X131034317Y-123835712D01*
X130883018Y-123795171D01*
X130821613Y-123778717D01*
X130821606Y-123778716D01*
X130602243Y-123759525D01*
X130602239Y-123759525D01*
X130382875Y-123778716D01*
X130382868Y-123778717D01*
X130170161Y-123835713D01*
X129970587Y-123928776D01*
X129970583Y-123928778D01*
X129790208Y-124055079D01*
X129790201Y-124055084D01*
X129634493Y-124210792D01*
X129634488Y-124210799D01*
X129508187Y-124391174D01*
X129508185Y-124391178D01*
X129444623Y-124527489D01*
X129398451Y-124579928D01*
X129331257Y-124599080D01*
X129264376Y-124578864D01*
X129219859Y-124527489D01*
X129196471Y-124477333D01*
X129156297Y-124391179D01*
X129156295Y-124391176D01*
X129156294Y-124391174D01*
X129093143Y-124300986D01*
X129029990Y-124210794D01*
X128874279Y-124055083D01*
X128693895Y-123928776D01*
X128693891Y-123928774D01*
X128494322Y-123835714D01*
X128494320Y-123835713D01*
X128494317Y-123835712D01*
X128343018Y-123795171D01*
X128281613Y-123778717D01*
X128281606Y-123778716D01*
X128062243Y-123759525D01*
X128062239Y-123759525D01*
X127842875Y-123778716D01*
X127842868Y-123778717D01*
X127630161Y-123835713D01*
X127430587Y-123928776D01*
X127430583Y-123928778D01*
X127250208Y-124055079D01*
X127250201Y-124055084D01*
X127094493Y-124210792D01*
X127094488Y-124210799D01*
X126968187Y-124391174D01*
X126968185Y-124391178D01*
X126904623Y-124527489D01*
X126858451Y-124579928D01*
X126791257Y-124599080D01*
X126724376Y-124578864D01*
X126679859Y-124527489D01*
X126656471Y-124477333D01*
X126616297Y-124391179D01*
X126616295Y-124391176D01*
X126616294Y-124391174D01*
X126553143Y-124300986D01*
X126489990Y-124210794D01*
X126334279Y-124055083D01*
X126153895Y-123928776D01*
X126153891Y-123928774D01*
X125954322Y-123835714D01*
X125954320Y-123835713D01*
X125954317Y-123835712D01*
X125803018Y-123795171D01*
X125741613Y-123778717D01*
X125741606Y-123778716D01*
X125522243Y-123759525D01*
X125522239Y-123759525D01*
X125302875Y-123778716D01*
X125302868Y-123778717D01*
X125090161Y-123835713D01*
X124890587Y-123928776D01*
X124890583Y-123928778D01*
X124710208Y-124055079D01*
X124710201Y-124055084D01*
X124554493Y-124210792D01*
X124554488Y-124210799D01*
X124428187Y-124391174D01*
X124428185Y-124391178D01*
X124335122Y-124590752D01*
X124278126Y-124803459D01*
X124278125Y-124803466D01*
X124258934Y-125022829D01*
X121700741Y-125022829D01*
X121700741Y-124472756D01*
X121690121Y-124368804D01*
X121634312Y-124200381D01*
X121634308Y-124200375D01*
X121634307Y-124200372D01*
X121541168Y-124049372D01*
X121541165Y-124049368D01*
X121415704Y-123923907D01*
X121415700Y-123923904D01*
X121264700Y-123830765D01*
X121264694Y-123830762D01*
X121264692Y-123830761D01*
X121161319Y-123796507D01*
X121096270Y-123774952D01*
X120992324Y-123764332D01*
X120992317Y-123764332D01*
X119892165Y-123764332D01*
X119892157Y-123764332D01*
X119788211Y-123774952D01*
X119619792Y-123830760D01*
X119619781Y-123830765D01*
X119468781Y-123923904D01*
X119468777Y-123923907D01*
X119343316Y-124049368D01*
X119343313Y-124049372D01*
X119250174Y-124200372D01*
X119250169Y-124200383D01*
X119194361Y-124368802D01*
X119183741Y-124472748D01*
X106651947Y-124472748D01*
X106783233Y-124341462D01*
X106756876Y-124320948D01*
X106556480Y-124212500D01*
X106556469Y-124212495D01*
X106340951Y-124138507D01*
X106116185Y-124101000D01*
X105888315Y-124101000D01*
X105663548Y-124138507D01*
X105448030Y-124212495D01*
X105448019Y-124212500D01*
X105247616Y-124320952D01*
X105221265Y-124341461D01*
X105221265Y-124341463D01*
X105716492Y-124836690D01*
X105670676Y-124855668D01*
X105556026Y-124932274D01*
X105458524Y-125029776D01*
X105381918Y-125144426D01*
X105362940Y-125190242D01*
X104869124Y-124696427D01*
X104788829Y-124819330D01*
X104697295Y-125028006D01*
X104641355Y-125248906D01*
X104641353Y-125248914D01*
X104622538Y-125475993D01*
X96545500Y-125475993D01*
X96545500Y-119052345D01*
X104618750Y-119052345D01*
X104618750Y-120899654D01*
X104625261Y-120960202D01*
X104625261Y-120960204D01*
X104653864Y-121036888D01*
X104676361Y-121097204D01*
X104763989Y-121214261D01*
X104881046Y-121301889D01*
X105018049Y-121352989D01*
X105045300Y-121355918D01*
X105078595Y-121359499D01*
X105078612Y-121359500D01*
X106925888Y-121359500D01*
X106925904Y-121359499D01*
X106952942Y-121356591D01*
X106986451Y-121352989D01*
X107123454Y-121301889D01*
X107240511Y-121214261D01*
X107328139Y-121097204D01*
X107379239Y-120960201D01*
X107384574Y-120910580D01*
X107385749Y-120899654D01*
X107385750Y-120899637D01*
X107385750Y-119942831D01*
X119187466Y-119942831D01*
X119187466Y-119942832D01*
X119206528Y-120160716D01*
X119206530Y-120160726D01*
X119263135Y-120371982D01*
X119263139Y-120371991D01*
X119355574Y-120570219D01*
X119399115Y-120632403D01*
X120042241Y-119989277D01*
X120042241Y-119995493D01*
X120069500Y-120097226D01*
X120122161Y-120188438D01*
X120196635Y-120262912D01*
X120287847Y-120315573D01*
X120389580Y-120342832D01*
X120395794Y-120342832D01*
X119752668Y-120985956D01*
X119814853Y-121029498D01*
X120013081Y-121121933D01*
X120013090Y-121121937D01*
X120224346Y-121178542D01*
X120224356Y-121178544D01*
X120442240Y-121197607D01*
X120442242Y-121197607D01*
X120660125Y-121178544D01*
X120660135Y-121178542D01*
X120871391Y-121121937D01*
X120871405Y-121121932D01*
X121069624Y-121029501D01*
X121069626Y-121029500D01*
X121131812Y-120985956D01*
X120488689Y-120342832D01*
X120494902Y-120342832D01*
X120596635Y-120315573D01*
X120687847Y-120262912D01*
X120762321Y-120188438D01*
X120814982Y-120097226D01*
X120842241Y-119995493D01*
X120842241Y-119989278D01*
X121485365Y-120632402D01*
X121528909Y-120570217D01*
X121528910Y-120570215D01*
X121621341Y-120371996D01*
X121621346Y-120371982D01*
X121677951Y-120160726D01*
X121677953Y-120160716D01*
X121697016Y-119942832D01*
X121697016Y-119942831D01*
X121697016Y-119942829D01*
X124258934Y-119942829D01*
X124258934Y-119942834D01*
X124277996Y-120160726D01*
X124278126Y-120162203D01*
X124335121Y-120374908D01*
X124335122Y-120374911D01*
X124335123Y-120374913D01*
X124359933Y-120428119D01*
X124428185Y-120574486D01*
X124554492Y-120754870D01*
X124710203Y-120910581D01*
X124890587Y-121036888D01*
X125090165Y-121129952D01*
X125302870Y-121186947D01*
X125459563Y-121200655D01*
X125522239Y-121206139D01*
X125522241Y-121206139D01*
X125522243Y-121206139D01*
X125577083Y-121201341D01*
X125741612Y-121186947D01*
X125954317Y-121129952D01*
X126153895Y-121036888D01*
X126334279Y-120910581D01*
X126489990Y-120754870D01*
X126616297Y-120574486D01*
X126679859Y-120438176D01*
X126726031Y-120385736D01*
X126793224Y-120366584D01*
X126860106Y-120386799D01*
X126904623Y-120438176D01*
X126968185Y-120574486D01*
X127094492Y-120754870D01*
X127250203Y-120910581D01*
X127430587Y-121036888D01*
X127630165Y-121129952D01*
X127842870Y-121186947D01*
X127999563Y-121200655D01*
X128062239Y-121206139D01*
X128062241Y-121206139D01*
X128062243Y-121206139D01*
X128117083Y-121201341D01*
X128281612Y-121186947D01*
X128494317Y-121129952D01*
X128693895Y-121036888D01*
X128874279Y-120910581D01*
X129029990Y-120754870D01*
X129156297Y-120574486D01*
X129219859Y-120438176D01*
X129266031Y-120385736D01*
X129333224Y-120366584D01*
X129400106Y-120386799D01*
X129444623Y-120438176D01*
X129508185Y-120574486D01*
X129634492Y-120754870D01*
X129790203Y-120910581D01*
X129970587Y-121036888D01*
X130170165Y-121129952D01*
X130382870Y-121186947D01*
X130539563Y-121200655D01*
X130602239Y-121206139D01*
X130602241Y-121206139D01*
X130602243Y-121206139D01*
X130657083Y-121201341D01*
X130821612Y-121186947D01*
X131034317Y-121129952D01*
X131233895Y-121036888D01*
X131414279Y-120910581D01*
X131569990Y-120754870D01*
X131696297Y-120574486D01*
X131764550Y-120428115D01*
X131810718Y-120375681D01*
X131877912Y-120356528D01*
X131944793Y-120376743D01*
X131989311Y-120428119D01*
X132055573Y-120570219D01*
X132099115Y-120632403D01*
X132742241Y-119989277D01*
X132742241Y-119995493D01*
X132769500Y-120097226D01*
X132822161Y-120188438D01*
X132896635Y-120262912D01*
X132987847Y-120315573D01*
X133089580Y-120342832D01*
X133095794Y-120342832D01*
X132452668Y-120985956D01*
X132514853Y-121029498D01*
X132713081Y-121121933D01*
X132713090Y-121121937D01*
X132924346Y-121178542D01*
X132924356Y-121178544D01*
X133142240Y-121197607D01*
X133142242Y-121197607D01*
X133360125Y-121178544D01*
X133360135Y-121178542D01*
X133571391Y-121121937D01*
X133571405Y-121121932D01*
X133769624Y-121029501D01*
X133769626Y-121029500D01*
X133831812Y-120985956D01*
X133188689Y-120342832D01*
X133194902Y-120342832D01*
X133296635Y-120315573D01*
X133387847Y-120262912D01*
X133462321Y-120188438D01*
X133514982Y-120097226D01*
X133542241Y-119995493D01*
X133542241Y-119989278D01*
X134185365Y-120632402D01*
X134228909Y-120570217D01*
X134228910Y-120570215D01*
X134321341Y-120371996D01*
X134321346Y-120371982D01*
X134377951Y-120160726D01*
X134377953Y-120160716D01*
X134397016Y-119942832D01*
X134397016Y-119942831D01*
X134377953Y-119724947D01*
X134377951Y-119724937D01*
X134321346Y-119513681D01*
X134321342Y-119513672D01*
X134228908Y-119315446D01*
X134228907Y-119315444D01*
X134185365Y-119253260D01*
X134185365Y-119253259D01*
X133542241Y-119896383D01*
X133542241Y-119890171D01*
X133514982Y-119788438D01*
X133462321Y-119697226D01*
X133387847Y-119622752D01*
X133296635Y-119570091D01*
X133194902Y-119542832D01*
X133188688Y-119542832D01*
X133831812Y-118899706D01*
X133769628Y-118856165D01*
X133571400Y-118763730D01*
X133571391Y-118763726D01*
X133360135Y-118707121D01*
X133360125Y-118707119D01*
X133142242Y-118688057D01*
X133142240Y-118688057D01*
X132924356Y-118707119D01*
X132924346Y-118707121D01*
X132713090Y-118763726D01*
X132713081Y-118763730D01*
X132514854Y-118856165D01*
X132452669Y-118899706D01*
X133095795Y-119542832D01*
X133089580Y-119542832D01*
X132987847Y-119570091D01*
X132896635Y-119622752D01*
X132822161Y-119697226D01*
X132769500Y-119788438D01*
X132742241Y-119890171D01*
X132742241Y-119896386D01*
X132099115Y-119253260D01*
X132055575Y-119315443D01*
X131989311Y-119457545D01*
X131943138Y-119509984D01*
X131875944Y-119529135D01*
X131809063Y-119508919D01*
X131764547Y-119457543D01*
X131698286Y-119315446D01*
X131696297Y-119311179D01*
X131696295Y-119311176D01*
X131696294Y-119311174D01*
X131633143Y-119220986D01*
X131569990Y-119130794D01*
X131414279Y-118975083D01*
X131233895Y-118848776D01*
X131233891Y-118848774D01*
X131034322Y-118755714D01*
X131034320Y-118755713D01*
X131034317Y-118755712D01*
X130852976Y-118707121D01*
X130821613Y-118698717D01*
X130821606Y-118698716D01*
X130602243Y-118679525D01*
X130602239Y-118679525D01*
X130382875Y-118698716D01*
X130382868Y-118698717D01*
X130170161Y-118755713D01*
X129970587Y-118848776D01*
X129970583Y-118848778D01*
X129790208Y-118975079D01*
X129790201Y-118975084D01*
X129634493Y-119130792D01*
X129634488Y-119130799D01*
X129508187Y-119311174D01*
X129508185Y-119311178D01*
X129444623Y-119447489D01*
X129398451Y-119499928D01*
X129331257Y-119519080D01*
X129264376Y-119498864D01*
X129219859Y-119447489D01*
X129156297Y-119311179D01*
X129156295Y-119311176D01*
X129156294Y-119311174D01*
X129093143Y-119220986D01*
X129029990Y-119130794D01*
X128874279Y-118975083D01*
X128693895Y-118848776D01*
X128693891Y-118848774D01*
X128494322Y-118755714D01*
X128494320Y-118755713D01*
X128494317Y-118755712D01*
X128312976Y-118707121D01*
X128281613Y-118698717D01*
X128281606Y-118698716D01*
X128062243Y-118679525D01*
X128062239Y-118679525D01*
X127842875Y-118698716D01*
X127842868Y-118698717D01*
X127630161Y-118755713D01*
X127430587Y-118848776D01*
X127430583Y-118848778D01*
X127250208Y-118975079D01*
X127250201Y-118975084D01*
X127094493Y-119130792D01*
X127094488Y-119130799D01*
X126968187Y-119311174D01*
X126968185Y-119311178D01*
X126904623Y-119447489D01*
X126858451Y-119499928D01*
X126791257Y-119519080D01*
X126724376Y-119498864D01*
X126679859Y-119447489D01*
X126616297Y-119311179D01*
X126616295Y-119311176D01*
X126616294Y-119311174D01*
X126553143Y-119220986D01*
X126489990Y-119130794D01*
X126334279Y-118975083D01*
X126153895Y-118848776D01*
X126153891Y-118848774D01*
X125954322Y-118755714D01*
X125954320Y-118755713D01*
X125954317Y-118755712D01*
X125772976Y-118707121D01*
X125741613Y-118698717D01*
X125741606Y-118698716D01*
X125522243Y-118679525D01*
X125522239Y-118679525D01*
X125302875Y-118698716D01*
X125302868Y-118698717D01*
X125090161Y-118755713D01*
X124890587Y-118848776D01*
X124890583Y-118848778D01*
X124710208Y-118975079D01*
X124710201Y-118975084D01*
X124554493Y-119130792D01*
X124554488Y-119130799D01*
X124428187Y-119311174D01*
X124428185Y-119311178D01*
X124335122Y-119510752D01*
X124278126Y-119723459D01*
X124278125Y-119723466D01*
X124258934Y-119942829D01*
X121697016Y-119942829D01*
X121677953Y-119724947D01*
X121677951Y-119724937D01*
X121621346Y-119513681D01*
X121621342Y-119513672D01*
X121528908Y-119315446D01*
X121528907Y-119315444D01*
X121485365Y-119253260D01*
X121485365Y-119253259D01*
X120842241Y-119896383D01*
X120842241Y-119890171D01*
X120814982Y-119788438D01*
X120762321Y-119697226D01*
X120687847Y-119622752D01*
X120596635Y-119570091D01*
X120494902Y-119542832D01*
X120488688Y-119542832D01*
X121131812Y-118899706D01*
X121069628Y-118856165D01*
X120871400Y-118763730D01*
X120871391Y-118763726D01*
X120660135Y-118707121D01*
X120660125Y-118707119D01*
X120442242Y-118688057D01*
X120442240Y-118688057D01*
X120224356Y-118707119D01*
X120224346Y-118707121D01*
X120013090Y-118763726D01*
X120013081Y-118763730D01*
X119814854Y-118856165D01*
X119752669Y-118899706D01*
X120395795Y-119542832D01*
X120389580Y-119542832D01*
X120287847Y-119570091D01*
X120196635Y-119622752D01*
X120122161Y-119697226D01*
X120069500Y-119788438D01*
X120042241Y-119890171D01*
X120042241Y-119896386D01*
X119399115Y-119253260D01*
X119355574Y-119315445D01*
X119263139Y-119513672D01*
X119263135Y-119513681D01*
X119206530Y-119724937D01*
X119206528Y-119724947D01*
X119187466Y-119942831D01*
X107385750Y-119942831D01*
X107385750Y-119052362D01*
X107385749Y-119052345D01*
X107382407Y-119021270D01*
X107379239Y-118991799D01*
X107377860Y-118988103D01*
X107355901Y-118929228D01*
X107328139Y-118854796D01*
X107240511Y-118737739D01*
X107123454Y-118650111D01*
X107122607Y-118649795D01*
X106986453Y-118599011D01*
X106925904Y-118592500D01*
X106925888Y-118592500D01*
X105078612Y-118592500D01*
X105078595Y-118592500D01*
X105018047Y-118599011D01*
X105018045Y-118599011D01*
X104881045Y-118650111D01*
X104763989Y-118737739D01*
X104676361Y-118854795D01*
X104625261Y-118991795D01*
X104625261Y-118991797D01*
X104618750Y-119052345D01*
X96545500Y-119052345D01*
X96545500Y-117152831D01*
X112714728Y-117152831D01*
X112714729Y-117152832D01*
X113809252Y-117152832D01*
X113787482Y-117190540D01*
X113750000Y-117330423D01*
X113750000Y-117475241D01*
X113787482Y-117615124D01*
X113809252Y-117652832D01*
X112714728Y-117652832D01*
X112714811Y-117653899D01*
X112773603Y-117898788D01*
X112869980Y-118131463D01*
X113001568Y-118346194D01*
X113001571Y-118346199D01*
X113165130Y-118537701D01*
X113356632Y-118701260D01*
X113356637Y-118701263D01*
X113571368Y-118832851D01*
X113804043Y-118929228D01*
X114048932Y-118988020D01*
X114050000Y-118988103D01*
X114050000Y-117893579D01*
X114087708Y-117915350D01*
X114227591Y-117952832D01*
X114372409Y-117952832D01*
X114512292Y-117915350D01*
X114550000Y-117893579D01*
X114550000Y-118988103D01*
X114551067Y-118988020D01*
X114795956Y-118929228D01*
X115028631Y-118832851D01*
X115243362Y-118701263D01*
X115243367Y-118701260D01*
X115434869Y-118537701D01*
X115598428Y-118346199D01*
X115598431Y-118346194D01*
X115730019Y-118131463D01*
X115826396Y-117898788D01*
X115885188Y-117653899D01*
X115885272Y-117652832D01*
X114790748Y-117652832D01*
X114812518Y-117615124D01*
X114850000Y-117475241D01*
X114850000Y-117330423D01*
X114812518Y-117190540D01*
X114790748Y-117152832D01*
X115885271Y-117152832D01*
X115885271Y-117152831D01*
X138368728Y-117152831D01*
X138368729Y-117152832D01*
X139463252Y-117152832D01*
X139441482Y-117190540D01*
X139404000Y-117330423D01*
X139404000Y-117475241D01*
X139441482Y-117615124D01*
X139463252Y-117652832D01*
X138368728Y-117652832D01*
X138368811Y-117653899D01*
X138427603Y-117898788D01*
X138523980Y-118131463D01*
X138655568Y-118346194D01*
X138655571Y-118346199D01*
X138819130Y-118537701D01*
X139010632Y-118701260D01*
X139010637Y-118701263D01*
X139225368Y-118832851D01*
X139458043Y-118929228D01*
X139702932Y-118988020D01*
X139703999Y-118988103D01*
X139704000Y-118988103D01*
X139704000Y-117893579D01*
X139741708Y-117915350D01*
X139881591Y-117952832D01*
X140026409Y-117952832D01*
X140166292Y-117915350D01*
X140204000Y-117893579D01*
X140204000Y-118988103D01*
X140205067Y-118988020D01*
X140449956Y-118929228D01*
X140682631Y-118832851D01*
X140882542Y-118710345D01*
X147714500Y-118710345D01*
X147714500Y-120557654D01*
X147721011Y-120618202D01*
X147721011Y-120618204D01*
X147771986Y-120754870D01*
X147772111Y-120755204D01*
X147859739Y-120872261D01*
X147976796Y-120959889D01*
X148113799Y-121010989D01*
X148141050Y-121013918D01*
X148174345Y-121017499D01*
X148174362Y-121017500D01*
X150021638Y-121017500D01*
X150021654Y-121017499D01*
X150048692Y-121014591D01*
X150082201Y-121010989D01*
X150219204Y-120959889D01*
X150336261Y-120872261D01*
X150423889Y-120755204D01*
X150474989Y-120618201D01*
X150479689Y-120574482D01*
X150481499Y-120557654D01*
X150481500Y-120557637D01*
X150481500Y-118710362D01*
X150481499Y-118710345D01*
X150478157Y-118679270D01*
X150474989Y-118649799D01*
X150423889Y-118512796D01*
X150336261Y-118395739D01*
X150219204Y-118308111D01*
X150082203Y-118257011D01*
X150021654Y-118250500D01*
X150021638Y-118250500D01*
X148174362Y-118250500D01*
X148174345Y-118250500D01*
X148113797Y-118257011D01*
X148113795Y-118257011D01*
X147976795Y-118308111D01*
X147859739Y-118395739D01*
X147772111Y-118512795D01*
X147721011Y-118649795D01*
X147721011Y-118649797D01*
X147714500Y-118710345D01*
X140882542Y-118710345D01*
X140897362Y-118701263D01*
X140897367Y-118701260D01*
X141088869Y-118537701D01*
X141252428Y-118346199D01*
X141252431Y-118346194D01*
X141384019Y-118131463D01*
X141480396Y-117898788D01*
X141539188Y-117653899D01*
X141539272Y-117652832D01*
X140444748Y-117652832D01*
X140466518Y-117615124D01*
X140504000Y-117475241D01*
X140504000Y-117330423D01*
X140466518Y-117190540D01*
X140444748Y-117152832D01*
X141539271Y-117152832D01*
X141539271Y-117152831D01*
X141539188Y-117151764D01*
X141480396Y-116906875D01*
X141384019Y-116674200D01*
X141252431Y-116459469D01*
X141252428Y-116459464D01*
X141088869Y-116267962D01*
X140897367Y-116104403D01*
X140897362Y-116104400D01*
X140682631Y-115972812D01*
X140449956Y-115876435D01*
X140205064Y-115817643D01*
X140204000Y-115817558D01*
X140204000Y-116912084D01*
X140166292Y-116890314D01*
X140026409Y-116852832D01*
X139881591Y-116852832D01*
X139741708Y-116890314D01*
X139704000Y-116912084D01*
X139704000Y-115817558D01*
X139702935Y-115817643D01*
X139458043Y-115876435D01*
X139225368Y-115972812D01*
X139010637Y-116104400D01*
X139010632Y-116104403D01*
X138819130Y-116267962D01*
X138655571Y-116459464D01*
X138655568Y-116459469D01*
X138523980Y-116674200D01*
X138427603Y-116906875D01*
X138368811Y-117151764D01*
X138368728Y-117152831D01*
X115885271Y-117152831D01*
X115885188Y-117151764D01*
X115826396Y-116906875D01*
X115730019Y-116674200D01*
X115598431Y-116459469D01*
X115598428Y-116459464D01*
X115434869Y-116267962D01*
X115243367Y-116104403D01*
X115243362Y-116104400D01*
X115028631Y-115972812D01*
X114795956Y-115876435D01*
X114551064Y-115817643D01*
X114550000Y-115817558D01*
X114550000Y-116912084D01*
X114512292Y-116890314D01*
X114372409Y-116852832D01*
X114227591Y-116852832D01*
X114087708Y-116890314D01*
X114050000Y-116912084D01*
X114050000Y-115817558D01*
X114048935Y-115817643D01*
X113804043Y-115876435D01*
X113571368Y-115972812D01*
X113356637Y-116104400D01*
X113356632Y-116104403D01*
X113165130Y-116267962D01*
X113001571Y-116459464D01*
X113001568Y-116459469D01*
X112869980Y-116674200D01*
X112773603Y-116906875D01*
X112714811Y-117151764D01*
X112714728Y-117152831D01*
X96545500Y-117152831D01*
X96545500Y-111255999D01*
X103316728Y-111255999D01*
X103316729Y-111256000D01*
X104411252Y-111256000D01*
X104389482Y-111293708D01*
X104352000Y-111433591D01*
X104352000Y-111578409D01*
X104389482Y-111718292D01*
X104411252Y-111756000D01*
X103316728Y-111756000D01*
X103316811Y-111757067D01*
X103375603Y-112001956D01*
X103471980Y-112234631D01*
X103603568Y-112449362D01*
X103603571Y-112449367D01*
X103767130Y-112640869D01*
X103958632Y-112804428D01*
X103958637Y-112804431D01*
X104173368Y-112936019D01*
X104406043Y-113032396D01*
X104650932Y-113091188D01*
X104651999Y-113091271D01*
X104652000Y-113091271D01*
X104652000Y-111996747D01*
X104689708Y-112018518D01*
X104829591Y-112056000D01*
X104974409Y-112056000D01*
X105114292Y-112018518D01*
X105152000Y-111996747D01*
X105152000Y-113091271D01*
X105153067Y-113091188D01*
X105397956Y-113032396D01*
X105630631Y-112936019D01*
X105845362Y-112804431D01*
X105845367Y-112804428D01*
X106036869Y-112640869D01*
X106200428Y-112449367D01*
X106200431Y-112449362D01*
X106277970Y-112322830D01*
X126748743Y-112322830D01*
X126748743Y-112322833D01*
X126768697Y-112550913D01*
X126768698Y-112550921D01*
X126827955Y-112772070D01*
X126827959Y-112772081D01*
X126904405Y-112936019D01*
X126924718Y-112979581D01*
X127056043Y-113167132D01*
X127217941Y-113329030D01*
X127405492Y-113460355D01*
X127530332Y-113518568D01*
X127612991Y-113557113D01*
X127612993Y-113557113D01*
X127612998Y-113557116D01*
X127834154Y-113616375D01*
X127997073Y-113630628D01*
X128062239Y-113636330D01*
X128062241Y-113636330D01*
X128062243Y-113636330D01*
X128119262Y-113631341D01*
X128290328Y-113616375D01*
X128511484Y-113557116D01*
X128718990Y-113460355D01*
X128906541Y-113329030D01*
X129068439Y-113167132D01*
X129199764Y-112979581D01*
X129296525Y-112772075D01*
X129355784Y-112550919D01*
X129375739Y-112322832D01*
X129355784Y-112094745D01*
X129296525Y-111873589D01*
X129282591Y-111843708D01*
X129199765Y-111666086D01*
X129199764Y-111666084D01*
X129199764Y-111666083D01*
X129068439Y-111478532D01*
X128906541Y-111316634D01*
X128718990Y-111185309D01*
X128682497Y-111168292D01*
X128511490Y-111088550D01*
X128511479Y-111088546D01*
X128290330Y-111029289D01*
X128290322Y-111029288D01*
X128062243Y-111009334D01*
X128062239Y-111009334D01*
X127834159Y-111029288D01*
X127834151Y-111029289D01*
X127613002Y-111088546D01*
X127612991Y-111088550D01*
X127405495Y-111185307D01*
X127405493Y-111185308D01*
X127405492Y-111185309D01*
X127217941Y-111316634D01*
X127217939Y-111316635D01*
X127217936Y-111316638D01*
X127056047Y-111478527D01*
X126924717Y-111666084D01*
X126924716Y-111666086D01*
X126827959Y-111873582D01*
X126827955Y-111873593D01*
X126768698Y-112094742D01*
X126768697Y-112094750D01*
X126748743Y-112322830D01*
X106277970Y-112322830D01*
X106332019Y-112234631D01*
X106428396Y-112001956D01*
X106487188Y-111757067D01*
X106487272Y-111756000D01*
X105392748Y-111756000D01*
X105414518Y-111718292D01*
X105452000Y-111578409D01*
X105452000Y-111433591D01*
X105414518Y-111293708D01*
X105392748Y-111256000D01*
X106487271Y-111256000D01*
X106487271Y-111255999D01*
X106487188Y-111254932D01*
X106428396Y-111010043D01*
X106332019Y-110777368D01*
X106200431Y-110562637D01*
X106200428Y-110562632D01*
X106036869Y-110371130D01*
X105845367Y-110207571D01*
X105845362Y-110207568D01*
X105630631Y-110075980D01*
X105397956Y-109979603D01*
X105153064Y-109920811D01*
X105152000Y-109920726D01*
X105152000Y-111015252D01*
X105114292Y-110993482D01*
X104974409Y-110956000D01*
X104829591Y-110956000D01*
X104689708Y-110993482D01*
X104652000Y-111015252D01*
X104652000Y-109920726D01*
X104650935Y-109920811D01*
X104406043Y-109979603D01*
X104173368Y-110075980D01*
X103958637Y-110207568D01*
X103958632Y-110207571D01*
X103767130Y-110371130D01*
X103603571Y-110562632D01*
X103603568Y-110562637D01*
X103471980Y-110777368D01*
X103375603Y-111010043D01*
X103316811Y-111254932D01*
X103316728Y-111255999D01*
X96545500Y-111255999D01*
X96545500Y-109439929D01*
X108879888Y-109439929D01*
X108879888Y-109439934D01*
X108899262Y-109661389D01*
X108899263Y-109661397D01*
X108956799Y-109876123D01*
X108956800Y-109876125D01*
X108956801Y-109876128D01*
X108977637Y-109920811D01*
X109050752Y-110077608D01*
X109050753Y-110077609D01*
X109178264Y-110259713D01*
X109335460Y-110416909D01*
X109517564Y-110544420D01*
X109719045Y-110638372D01*
X109933778Y-110695910D01*
X110091965Y-110709749D01*
X110155239Y-110715285D01*
X110155241Y-110715285D01*
X110155243Y-110715285D01*
X110210606Y-110710441D01*
X110376704Y-110695910D01*
X110591437Y-110638372D01*
X110792918Y-110544420D01*
X110975022Y-110416909D01*
X111132218Y-110259713D01*
X111259729Y-110077609D01*
X111353681Y-109876128D01*
X111411219Y-109661395D01*
X111430594Y-109439932D01*
X111430594Y-109439931D01*
X116508420Y-109439931D01*
X116508420Y-109439932D01*
X116527665Y-109659908D01*
X116527667Y-109659918D01*
X116584816Y-109873202D01*
X116584821Y-109873216D01*
X116678139Y-110073337D01*
X116678142Y-110073343D01*
X116723499Y-110138119D01*
X116723500Y-110138120D01*
X117285745Y-109575874D01*
X117301860Y-109636013D01*
X117368739Y-109751852D01*
X117463321Y-109846434D01*
X117579160Y-109913313D01*
X117639298Y-109929426D01*
X117077051Y-110491672D01*
X117141831Y-110537031D01*
X117141833Y-110537032D01*
X117341956Y-110630351D01*
X117341970Y-110630356D01*
X117555254Y-110687505D01*
X117555264Y-110687507D01*
X117775240Y-110706753D01*
X117775242Y-110706753D01*
X117995217Y-110687507D01*
X117995227Y-110687505D01*
X118208511Y-110630356D01*
X118208525Y-110630351D01*
X118408648Y-110537032D01*
X118408658Y-110537026D01*
X118473429Y-110491673D01*
X117911183Y-109929426D01*
X117971322Y-109913313D01*
X118087161Y-109846434D01*
X118181743Y-109751852D01*
X118248622Y-109636013D01*
X118264736Y-109575874D01*
X118826982Y-110138120D01*
X118872335Y-110073349D01*
X118872336Y-110073348D01*
X118928168Y-109953615D01*
X118974340Y-109901176D01*
X119041534Y-109882023D01*
X119108415Y-109902238D01*
X119152933Y-109953614D01*
X119210752Y-110077608D01*
X119210753Y-110077609D01*
X119338264Y-110259713D01*
X119495460Y-110416909D01*
X119677564Y-110544420D01*
X119879045Y-110638372D01*
X120093778Y-110695910D01*
X120251965Y-110709749D01*
X120315239Y-110715285D01*
X120315241Y-110715285D01*
X120315243Y-110715285D01*
X120370606Y-110710441D01*
X120536704Y-110695910D01*
X120751437Y-110638372D01*
X120952918Y-110544420D01*
X121135022Y-110416909D01*
X121292218Y-110259713D01*
X121419729Y-110077609D01*
X121513681Y-109876128D01*
X121571219Y-109661395D01*
X121585966Y-109492832D01*
X132749076Y-109492832D01*
X132767706Y-109729546D01*
X132823136Y-109960427D01*
X132823136Y-109960429D01*
X132913998Y-110179791D01*
X132914000Y-110179794D01*
X133038061Y-110382242D01*
X133038062Y-110382245D01*
X133038065Y-110382248D01*
X133192272Y-110562801D01*
X133332038Y-110682172D01*
X133372827Y-110717010D01*
X133372830Y-110717011D01*
X133575278Y-110841072D01*
X133575281Y-110841074D01*
X133794644Y-110931936D01*
X133794645Y-110931936D01*
X133794647Y-110931937D01*
X134025530Y-110987367D01*
X134262241Y-111005997D01*
X134498952Y-110987367D01*
X134729835Y-110931937D01*
X134729837Y-110931936D01*
X134729838Y-110931936D01*
X134949200Y-110841074D01*
X134949201Y-110841073D01*
X134949204Y-110841072D01*
X135151657Y-110717008D01*
X135332210Y-110562801D01*
X135486417Y-110382248D01*
X135610481Y-110179795D01*
X135627744Y-110138120D01*
X135701345Y-109960429D01*
X135701345Y-109960428D01*
X135701346Y-109960426D01*
X135756776Y-109729543D01*
X135775406Y-109492832D01*
X139249076Y-109492832D01*
X139267706Y-109729546D01*
X139323136Y-109960427D01*
X139323136Y-109960429D01*
X139413998Y-110179791D01*
X139414000Y-110179794D01*
X139538061Y-110382242D01*
X139538062Y-110382245D01*
X139538065Y-110382248D01*
X139692272Y-110562801D01*
X139832038Y-110682172D01*
X139872827Y-110717010D01*
X139872830Y-110717011D01*
X140075278Y-110841072D01*
X140075281Y-110841074D01*
X140294644Y-110931936D01*
X140294645Y-110931936D01*
X140294647Y-110931937D01*
X140525530Y-110987367D01*
X140762241Y-111005997D01*
X140998952Y-110987367D01*
X141229835Y-110931937D01*
X141229837Y-110931936D01*
X141229838Y-110931936D01*
X141449200Y-110841074D01*
X141449201Y-110841073D01*
X141449204Y-110841072D01*
X141651657Y-110717008D01*
X141832210Y-110562801D01*
X141986417Y-110382248D01*
X142110481Y-110179795D01*
X142127744Y-110138120D01*
X142201345Y-109960429D01*
X142201345Y-109960428D01*
X142201346Y-109960426D01*
X142256776Y-109729543D01*
X142275406Y-109492832D01*
X142256776Y-109256121D01*
X142201346Y-109025238D01*
X142201345Y-109025235D01*
X142201345Y-109025234D01*
X142110483Y-108805872D01*
X142110481Y-108805869D01*
X141986420Y-108603421D01*
X141986419Y-108603418D01*
X141951581Y-108562629D01*
X141832210Y-108422863D01*
X141712837Y-108320908D01*
X141651654Y-108268653D01*
X141651651Y-108268652D01*
X141449203Y-108144591D01*
X141449200Y-108144589D01*
X141229837Y-108053727D01*
X140998955Y-107998297D01*
X140762241Y-107979667D01*
X140525526Y-107998297D01*
X140294645Y-108053727D01*
X140294643Y-108053727D01*
X140075281Y-108144589D01*
X140075278Y-108144591D01*
X139872830Y-108268652D01*
X139872827Y-108268653D01*
X139692272Y-108422863D01*
X139538062Y-108603418D01*
X139538061Y-108603421D01*
X139414000Y-108805869D01*
X139413998Y-108805872D01*
X139323136Y-109025234D01*
X139323136Y-109025236D01*
X139267706Y-109256117D01*
X139249076Y-109492832D01*
X135775406Y-109492832D01*
X135756776Y-109256121D01*
X135701346Y-109025238D01*
X135701345Y-109025235D01*
X135701345Y-109025234D01*
X135610483Y-108805872D01*
X135610481Y-108805869D01*
X135486420Y-108603421D01*
X135486419Y-108603418D01*
X135451581Y-108562629D01*
X135332210Y-108422863D01*
X135212837Y-108320908D01*
X135151654Y-108268653D01*
X135151651Y-108268652D01*
X134949203Y-108144591D01*
X134949200Y-108144589D01*
X134729837Y-108053727D01*
X134498955Y-107998297D01*
X134262241Y-107979667D01*
X134025526Y-107998297D01*
X133794645Y-108053727D01*
X133794643Y-108053727D01*
X133575281Y-108144589D01*
X133575278Y-108144591D01*
X133372830Y-108268652D01*
X133372827Y-108268653D01*
X133192272Y-108422863D01*
X133038062Y-108603418D01*
X133038061Y-108603421D01*
X132914000Y-108805869D01*
X132913998Y-108805872D01*
X132823136Y-109025234D01*
X132823136Y-109025236D01*
X132767706Y-109256117D01*
X132749076Y-109492832D01*
X121585966Y-109492832D01*
X121590594Y-109439932D01*
X121571219Y-109218469D01*
X121513681Y-109003736D01*
X121419729Y-108802256D01*
X121419726Y-108802252D01*
X121419726Y-108802251D01*
X121292219Y-108620152D01*
X121275483Y-108603416D01*
X121135022Y-108462955D01*
X120963471Y-108342833D01*
X120952917Y-108335443D01*
X120809684Y-108268653D01*
X120751437Y-108241492D01*
X120751434Y-108241491D01*
X120751432Y-108241490D01*
X120536706Y-108183954D01*
X120536698Y-108183953D01*
X120315243Y-108164579D01*
X120315239Y-108164579D01*
X120093783Y-108183953D01*
X120093776Y-108183954D01*
X119879041Y-108241493D01*
X119677564Y-108335444D01*
X119677560Y-108335446D01*
X119495458Y-108462955D01*
X119338264Y-108620149D01*
X119210755Y-108802251D01*
X119210755Y-108802252D01*
X119152933Y-108926250D01*
X119106760Y-108978689D01*
X119039566Y-108997840D01*
X118972685Y-108977624D01*
X118928169Y-108926248D01*
X118872339Y-108806521D01*
X118872338Y-108806519D01*
X118826982Y-108741743D01*
X118826981Y-108741742D01*
X118264735Y-109303988D01*
X118248622Y-109243851D01*
X118181743Y-109128012D01*
X118087161Y-109033430D01*
X117971322Y-108966551D01*
X117911183Y-108950437D01*
X118473429Y-108388191D01*
X118473428Y-108388190D01*
X118408652Y-108342833D01*
X118408646Y-108342830D01*
X118208525Y-108249512D01*
X118208511Y-108249507D01*
X117995227Y-108192358D01*
X117995217Y-108192356D01*
X117775242Y-108173111D01*
X117775240Y-108173111D01*
X117555264Y-108192356D01*
X117555254Y-108192358D01*
X117341970Y-108249507D01*
X117341961Y-108249511D01*
X117141831Y-108342833D01*
X117077052Y-108388190D01*
X117639298Y-108950436D01*
X117579160Y-108966551D01*
X117463321Y-109033430D01*
X117368739Y-109128012D01*
X117301860Y-109243851D01*
X117285745Y-109303989D01*
X116723499Y-108741743D01*
X116678142Y-108806522D01*
X116584820Y-109006652D01*
X116584816Y-109006661D01*
X116527667Y-109219945D01*
X116527665Y-109219955D01*
X116508420Y-109439931D01*
X111430594Y-109439931D01*
X111411219Y-109218469D01*
X111353681Y-109003736D01*
X111259729Y-108802256D01*
X111259726Y-108802252D01*
X111259726Y-108802251D01*
X111132219Y-108620152D01*
X111115483Y-108603416D01*
X110975022Y-108462955D01*
X110803471Y-108342833D01*
X110792917Y-108335443D01*
X110649684Y-108268653D01*
X110591437Y-108241492D01*
X110591434Y-108241491D01*
X110591432Y-108241490D01*
X110376706Y-108183954D01*
X110376698Y-108183953D01*
X110155243Y-108164579D01*
X110155239Y-108164579D01*
X109933783Y-108183953D01*
X109933776Y-108183954D01*
X109719041Y-108241493D01*
X109517564Y-108335444D01*
X109517560Y-108335446D01*
X109335458Y-108462955D01*
X109178264Y-108620149D01*
X109050755Y-108802251D01*
X109050753Y-108802255D01*
X108956802Y-109003732D01*
X108899263Y-109218467D01*
X108899262Y-109218474D01*
X108879888Y-109439929D01*
X96545500Y-109439929D01*
X96545500Y-104359929D01*
X108879888Y-104359929D01*
X108879888Y-104359934D01*
X108899262Y-104581389D01*
X108899263Y-104581397D01*
X108956799Y-104796123D01*
X108956800Y-104796125D01*
X108956801Y-104796128D01*
X108973170Y-104831231D01*
X109050752Y-104997608D01*
X109050753Y-104997609D01*
X109178264Y-105179713D01*
X109335460Y-105336909D01*
X109517564Y-105464420D01*
X109719045Y-105558372D01*
X109933778Y-105615910D01*
X110091965Y-105629749D01*
X110155239Y-105635285D01*
X110155241Y-105635285D01*
X110155243Y-105635285D01*
X110210606Y-105630441D01*
X110376704Y-105615910D01*
X110591437Y-105558372D01*
X110792918Y-105464420D01*
X110975022Y-105336909D01*
X111132218Y-105179713D01*
X111259729Y-104997609D01*
X111353681Y-104796128D01*
X111411219Y-104581395D01*
X111430594Y-104359932D01*
X111430594Y-104359929D01*
X116499888Y-104359929D01*
X116499888Y-104359934D01*
X116519262Y-104581389D01*
X116519263Y-104581397D01*
X116576799Y-104796123D01*
X116576800Y-104796125D01*
X116576801Y-104796128D01*
X116593170Y-104831231D01*
X116670752Y-104997608D01*
X116670753Y-104997609D01*
X116798264Y-105179713D01*
X116955460Y-105336909D01*
X117137564Y-105464420D01*
X117339045Y-105558372D01*
X117553778Y-105615910D01*
X117711965Y-105629749D01*
X117775239Y-105635285D01*
X117775241Y-105635285D01*
X117775243Y-105635285D01*
X117830606Y-105630441D01*
X117996704Y-105615910D01*
X118211437Y-105558372D01*
X118412918Y-105464420D01*
X118595022Y-105336909D01*
X118752218Y-105179713D01*
X118879729Y-104997609D01*
X118932859Y-104883670D01*
X118979031Y-104831231D01*
X119046224Y-104812079D01*
X119113106Y-104832295D01*
X119157622Y-104883670D01*
X119210753Y-104997609D01*
X119338264Y-105179713D01*
X119495460Y-105336909D01*
X119677564Y-105464420D01*
X119879045Y-105558372D01*
X120093778Y-105615910D01*
X120251965Y-105629749D01*
X120315239Y-105635285D01*
X120315241Y-105635285D01*
X120315243Y-105635285D01*
X120370606Y-105630441D01*
X120536704Y-105615910D01*
X120751437Y-105558372D01*
X120952918Y-105464420D01*
X121135022Y-105336909D01*
X121292218Y-105179713D01*
X121419729Y-104997609D01*
X121513681Y-104796128D01*
X121538680Y-104702830D01*
X126748743Y-104702830D01*
X126748743Y-104702833D01*
X126768697Y-104930913D01*
X126768698Y-104930921D01*
X126827955Y-105152070D01*
X126827959Y-105152081D01*
X126914146Y-105336909D01*
X126924718Y-105359581D01*
X127056043Y-105547132D01*
X127217941Y-105709030D01*
X127405492Y-105840355D01*
X127530332Y-105898568D01*
X127612991Y-105937113D01*
X127612993Y-105937113D01*
X127612998Y-105937116D01*
X127834154Y-105996375D01*
X127997073Y-106010628D01*
X128062239Y-106016330D01*
X128062241Y-106016330D01*
X128062243Y-106016330D01*
X128119262Y-106011341D01*
X128290328Y-105996375D01*
X128511484Y-105937116D01*
X128718990Y-105840355D01*
X128906541Y-105709030D01*
X129068439Y-105547132D01*
X129199764Y-105359581D01*
X129296525Y-105152075D01*
X129339194Y-104992832D01*
X132749076Y-104992832D01*
X132767706Y-105229546D01*
X132823136Y-105460427D01*
X132823136Y-105460429D01*
X132913998Y-105679791D01*
X132914000Y-105679794D01*
X133038061Y-105882242D01*
X133038062Y-105882245D01*
X133038065Y-105882248D01*
X133192272Y-106062801D01*
X133332038Y-106182172D01*
X133372827Y-106217010D01*
X133372830Y-106217011D01*
X133575278Y-106341072D01*
X133575281Y-106341074D01*
X133794644Y-106431936D01*
X133794645Y-106431936D01*
X133794647Y-106431937D01*
X134025530Y-106487367D01*
X134262241Y-106505997D01*
X134498952Y-106487367D01*
X134729835Y-106431937D01*
X134729837Y-106431936D01*
X134729838Y-106431936D01*
X134949200Y-106341074D01*
X134949201Y-106341073D01*
X134949204Y-106341072D01*
X135151657Y-106217008D01*
X135332210Y-106062801D01*
X135486417Y-105882248D01*
X135610481Y-105679795D01*
X135636944Y-105615909D01*
X135701345Y-105460429D01*
X135701345Y-105460428D01*
X135701346Y-105460426D01*
X135756776Y-105229543D01*
X135775406Y-104992832D01*
X139249076Y-104992832D01*
X139267706Y-105229546D01*
X139323136Y-105460427D01*
X139323136Y-105460429D01*
X139413998Y-105679791D01*
X139414000Y-105679794D01*
X139538061Y-105882242D01*
X139538062Y-105882245D01*
X139538065Y-105882248D01*
X139692272Y-106062801D01*
X139832038Y-106182172D01*
X139872827Y-106217010D01*
X139872830Y-106217011D01*
X140075278Y-106341072D01*
X140075281Y-106341074D01*
X140294644Y-106431936D01*
X140294645Y-106431936D01*
X140294647Y-106431937D01*
X140525530Y-106487367D01*
X140762241Y-106505997D01*
X140998952Y-106487367D01*
X141229835Y-106431937D01*
X141229837Y-106431936D01*
X141229838Y-106431936D01*
X141449200Y-106341074D01*
X141449201Y-106341073D01*
X141449204Y-106341072D01*
X141651657Y-106217008D01*
X141832210Y-106062801D01*
X141986417Y-105882248D01*
X142110481Y-105679795D01*
X142136944Y-105615909D01*
X142201345Y-105460429D01*
X142201345Y-105460428D01*
X142201346Y-105460426D01*
X142256776Y-105229543D01*
X142275406Y-104992832D01*
X142256776Y-104756121D01*
X142201346Y-104525238D01*
X142201345Y-104525235D01*
X142201345Y-104525234D01*
X142110483Y-104305872D01*
X142110481Y-104305869D01*
X141986420Y-104103421D01*
X141986419Y-104103418D01*
X141951581Y-104062629D01*
X141832210Y-103922863D01*
X141712837Y-103820908D01*
X141651654Y-103768653D01*
X141651651Y-103768652D01*
X141449203Y-103644591D01*
X141449200Y-103644589D01*
X141229837Y-103553727D01*
X140998955Y-103498297D01*
X140762241Y-103479667D01*
X140525526Y-103498297D01*
X140294645Y-103553727D01*
X140294643Y-103553727D01*
X140075281Y-103644589D01*
X140075278Y-103644591D01*
X139872830Y-103768652D01*
X139872827Y-103768653D01*
X139692272Y-103922863D01*
X139538062Y-104103418D01*
X139538061Y-104103421D01*
X139414000Y-104305869D01*
X139413998Y-104305872D01*
X139323136Y-104525234D01*
X139323136Y-104525236D01*
X139267706Y-104756117D01*
X139249076Y-104992832D01*
X135775406Y-104992832D01*
X135756776Y-104756121D01*
X135701346Y-104525238D01*
X135701345Y-104525235D01*
X135701345Y-104525234D01*
X135610483Y-104305872D01*
X135610481Y-104305869D01*
X135486420Y-104103421D01*
X135486419Y-104103418D01*
X135451581Y-104062629D01*
X135332210Y-103922863D01*
X135212837Y-103820908D01*
X135151654Y-103768653D01*
X135151651Y-103768652D01*
X134949203Y-103644591D01*
X134949200Y-103644589D01*
X134729837Y-103553727D01*
X134498955Y-103498297D01*
X134262241Y-103479667D01*
X134025526Y-103498297D01*
X133794645Y-103553727D01*
X133794643Y-103553727D01*
X133575281Y-103644589D01*
X133575278Y-103644591D01*
X133372830Y-103768652D01*
X133372827Y-103768653D01*
X133192272Y-103922863D01*
X133038062Y-104103418D01*
X133038061Y-104103421D01*
X132914000Y-104305869D01*
X132913998Y-104305872D01*
X132823136Y-104525234D01*
X132823136Y-104525236D01*
X132767706Y-104756117D01*
X132749076Y-104992832D01*
X129339194Y-104992832D01*
X129355784Y-104930919D01*
X129375739Y-104702832D01*
X129355784Y-104474745D01*
X129296525Y-104253589D01*
X129199764Y-104046083D01*
X129068439Y-103858532D01*
X128906541Y-103696634D01*
X128718990Y-103565309D01*
X128718986Y-103565307D01*
X128511490Y-103468550D01*
X128511479Y-103468546D01*
X128290330Y-103409289D01*
X128290322Y-103409288D01*
X128062243Y-103389334D01*
X128062239Y-103389334D01*
X127834159Y-103409288D01*
X127834151Y-103409289D01*
X127613002Y-103468546D01*
X127612991Y-103468550D01*
X127405495Y-103565307D01*
X127405493Y-103565308D01*
X127405492Y-103565309D01*
X127217941Y-103696634D01*
X127217939Y-103696635D01*
X127217936Y-103696638D01*
X127056047Y-103858527D01*
X127056044Y-103858530D01*
X127056043Y-103858532D01*
X127010387Y-103923736D01*
X126924717Y-104046084D01*
X126924716Y-104046086D01*
X126827959Y-104253582D01*
X126827955Y-104253593D01*
X126768698Y-104474742D01*
X126768697Y-104474750D01*
X126748743Y-104702830D01*
X121538680Y-104702830D01*
X121571219Y-104581395D01*
X121590594Y-104359932D01*
X121585864Y-104305872D01*
X121571219Y-104138474D01*
X121571219Y-104138469D01*
X121513681Y-103923736D01*
X121419729Y-103722256D01*
X121419727Y-103722253D01*
X121419726Y-103722251D01*
X121292219Y-103540152D01*
X121220613Y-103468546D01*
X121135022Y-103382955D01*
X120952918Y-103255444D01*
X120952919Y-103255444D01*
X120952917Y-103255443D01*
X120852177Y-103208468D01*
X120751437Y-103161492D01*
X120751434Y-103161491D01*
X120751432Y-103161490D01*
X120536706Y-103103954D01*
X120536698Y-103103953D01*
X120315243Y-103084579D01*
X120315239Y-103084579D01*
X120093783Y-103103953D01*
X120093776Y-103103954D01*
X119879041Y-103161493D01*
X119677564Y-103255444D01*
X119677560Y-103255446D01*
X119495458Y-103382955D01*
X119338264Y-103540149D01*
X119210755Y-103722251D01*
X119210753Y-103722255D01*
X119157623Y-103836193D01*
X119111450Y-103888632D01*
X119044257Y-103907784D01*
X118977376Y-103887568D01*
X118932859Y-103836193D01*
X118923371Y-103815846D01*
X118879729Y-103722256D01*
X118879727Y-103722253D01*
X118879726Y-103722251D01*
X118752219Y-103540152D01*
X118680613Y-103468546D01*
X118595022Y-103382955D01*
X118412918Y-103255444D01*
X118412919Y-103255444D01*
X118412917Y-103255443D01*
X118312177Y-103208468D01*
X118211437Y-103161492D01*
X118211434Y-103161491D01*
X118211432Y-103161490D01*
X117996706Y-103103954D01*
X117996698Y-103103953D01*
X117775243Y-103084579D01*
X117775239Y-103084579D01*
X117553783Y-103103953D01*
X117553776Y-103103954D01*
X117339041Y-103161493D01*
X117137564Y-103255444D01*
X117137560Y-103255446D01*
X116955458Y-103382955D01*
X116798264Y-103540149D01*
X116670755Y-103722251D01*
X116670753Y-103722255D01*
X116576802Y-103923732D01*
X116519263Y-104138467D01*
X116519262Y-104138474D01*
X116499888Y-104359929D01*
X111430594Y-104359929D01*
X111425864Y-104305872D01*
X111411219Y-104138474D01*
X111411219Y-104138469D01*
X111353681Y-103923736D01*
X111259729Y-103722256D01*
X111259727Y-103722253D01*
X111259726Y-103722251D01*
X111132217Y-103540149D01*
X111130060Y-103537992D01*
X111129412Y-103536805D01*
X111128737Y-103536001D01*
X111128898Y-103535865D01*
X111096575Y-103476669D01*
X111093741Y-103450311D01*
X111093741Y-99584610D01*
X111113426Y-99517571D01*
X111130060Y-99496929D01*
X113533420Y-97093569D01*
X113594743Y-97060084D01*
X113621101Y-97057250D01*
X114549638Y-97057250D01*
X114549654Y-97057249D01*
X114576692Y-97054341D01*
X114610201Y-97050739D01*
X114747204Y-96999639D01*
X114864261Y-96912011D01*
X114951889Y-96794954D01*
X115002989Y-96657951D01*
X115006647Y-96623924D01*
X115009499Y-96597404D01*
X115009500Y-96597387D01*
X115009500Y-95673744D01*
X117737758Y-95673744D01*
X117737758Y-95673755D01*
X117756690Y-95902238D01*
X117756692Y-95902250D01*
X117812976Y-96124511D01*
X117905077Y-96334479D01*
X118030479Y-96526423D01*
X118030482Y-96526426D01*
X118185769Y-96695113D01*
X118185772Y-96695115D01*
X118185775Y-96695118D01*
X118366695Y-96835934D01*
X118366702Y-96835938D01*
X118366704Y-96835940D01*
X118568350Y-96945065D01*
X118785207Y-97019512D01*
X119011360Y-97057250D01*
X119240640Y-97057250D01*
X119466793Y-97019512D01*
X119683650Y-96945065D01*
X119885296Y-96835940D01*
X119893071Y-96829889D01*
X120030733Y-96722742D01*
X120066231Y-96695113D01*
X120221518Y-96526426D01*
X120346922Y-96334480D01*
X120434428Y-96134987D01*
X124122241Y-96134987D01*
X124122241Y-96832832D01*
X125146963Y-96832832D01*
X125102908Y-96909138D01*
X125072241Y-97023588D01*
X125072241Y-97142076D01*
X125102908Y-97256526D01*
X125146963Y-97332832D01*
X124122241Y-97332832D01*
X124122241Y-98030676D01*
X124128642Y-98090204D01*
X124128644Y-98090211D01*
X124178886Y-98224918D01*
X124178890Y-98224925D01*
X124265050Y-98340019D01*
X124265053Y-98340022D01*
X124380147Y-98426182D01*
X124380154Y-98426186D01*
X124514861Y-98476428D01*
X124514868Y-98476430D01*
X124574396Y-98482831D01*
X124574413Y-98482832D01*
X125272241Y-98482832D01*
X125272241Y-97458109D01*
X125348547Y-97502165D01*
X125462997Y-97532832D01*
X125581485Y-97532832D01*
X125695935Y-97502165D01*
X125772241Y-97458109D01*
X125772241Y-98482832D01*
X126470069Y-98482832D01*
X126470085Y-98482831D01*
X126529613Y-98476430D01*
X126529620Y-98476428D01*
X126664327Y-98426186D01*
X126664334Y-98426182D01*
X126779428Y-98340022D01*
X126779431Y-98340019D01*
X126865591Y-98224925D01*
X126865596Y-98224916D01*
X126891181Y-98156318D01*
X126933051Y-98100384D01*
X126998515Y-98075966D01*
X127066788Y-98090817D01*
X127098590Y-98115664D01*
X127105021Y-98122650D01*
X127289224Y-98266022D01*
X127289226Y-98266023D01*
X127289229Y-98266025D01*
X127408572Y-98330609D01*
X127494514Y-98377119D01*
X127606386Y-98415525D01*
X127715286Y-98452911D01*
X127715288Y-98452911D01*
X127715290Y-98452912D01*
X127945529Y-98491332D01*
X127945530Y-98491332D01*
X128178952Y-98491332D01*
X128178953Y-98491332D01*
X128409192Y-98452912D01*
X128629968Y-98377119D01*
X128835258Y-98266022D01*
X129019461Y-98122650D01*
X129177555Y-97950915D01*
X129305225Y-97755501D01*
X129398990Y-97541739D01*
X129456292Y-97315458D01*
X129470659Y-97142076D01*
X129475568Y-97082837D01*
X129475568Y-97082826D01*
X129456292Y-96850209D01*
X129456292Y-96850206D01*
X129398990Y-96623925D01*
X129305225Y-96410163D01*
X129285053Y-96379288D01*
X129177554Y-96214747D01*
X129019464Y-96043017D01*
X129019463Y-96043016D01*
X129019461Y-96043014D01*
X128835258Y-95899642D01*
X128835256Y-95899641D01*
X128835255Y-95899640D01*
X128835252Y-95899638D01*
X128629974Y-95788548D01*
X128629971Y-95788547D01*
X128629968Y-95788545D01*
X128629962Y-95788543D01*
X128629960Y-95788542D01*
X128409195Y-95712752D01*
X128204817Y-95678648D01*
X128178953Y-95674332D01*
X127945529Y-95674332D01*
X127919665Y-95678648D01*
X127715286Y-95712752D01*
X127494521Y-95788542D01*
X127494507Y-95788548D01*
X127289229Y-95899638D01*
X127289226Y-95899640D01*
X127105022Y-96043013D01*
X127105017Y-96043017D01*
X127098587Y-96050002D01*
X127038698Y-96085989D01*
X126968860Y-96083884D01*
X126911246Y-96044356D01*
X126891181Y-96009345D01*
X126865596Y-95940747D01*
X126865591Y-95940738D01*
X126779431Y-95825644D01*
X126779428Y-95825641D01*
X126664334Y-95739481D01*
X126664327Y-95739477D01*
X126529620Y-95689235D01*
X126529613Y-95689233D01*
X126470085Y-95682832D01*
X125772241Y-95682832D01*
X125772241Y-96707554D01*
X125695935Y-96663499D01*
X125581485Y-96632832D01*
X125462997Y-96632832D01*
X125348547Y-96663499D01*
X125272241Y-96707554D01*
X125272241Y-95682832D01*
X124574396Y-95682832D01*
X124514868Y-95689233D01*
X124514861Y-95689235D01*
X124380154Y-95739477D01*
X124380147Y-95739481D01*
X124265053Y-95825641D01*
X124265050Y-95825644D01*
X124178890Y-95940738D01*
X124178886Y-95940745D01*
X124128644Y-96075452D01*
X124128642Y-96075459D01*
X124122241Y-96134987D01*
X120434428Y-96134987D01*
X120439023Y-96124511D01*
X120495308Y-95902247D01*
X120495524Y-95899638D01*
X120514242Y-95673755D01*
X120514242Y-95673744D01*
X120495309Y-95445261D01*
X120495307Y-95445249D01*
X120439023Y-95222988D01*
X120346922Y-95013020D01*
X120221520Y-94821076D01*
X120132548Y-94724427D01*
X120066231Y-94652387D01*
X120066226Y-94652383D01*
X120066224Y-94652381D01*
X119973672Y-94580345D01*
X133578500Y-94580345D01*
X133578500Y-96427654D01*
X133585011Y-96488202D01*
X133585011Y-96488204D01*
X133625736Y-96597388D01*
X133636111Y-96625204D01*
X133723739Y-96742261D01*
X133840796Y-96829889D01*
X133977799Y-96880989D01*
X134005050Y-96883918D01*
X134038345Y-96887499D01*
X134038362Y-96887500D01*
X135885638Y-96887500D01*
X135885654Y-96887499D01*
X135912692Y-96884591D01*
X135946201Y-96880989D01*
X136083204Y-96829889D01*
X136200261Y-96742261D01*
X136287889Y-96625204D01*
X136338989Y-96488201D01*
X136342591Y-96454692D01*
X136345499Y-96427654D01*
X136345500Y-96427637D01*
X136345500Y-95503993D01*
X139082288Y-95503993D01*
X139082288Y-95504006D01*
X139101103Y-95731085D01*
X139101105Y-95731093D01*
X139157045Y-95951993D01*
X139248579Y-96160669D01*
X139328874Y-96283570D01*
X139822689Y-95789756D01*
X139841668Y-95835574D01*
X139918274Y-95950224D01*
X140015776Y-96047726D01*
X140130426Y-96124332D01*
X140176242Y-96143309D01*
X139681015Y-96638536D01*
X139681015Y-96638538D01*
X139707360Y-96659043D01*
X139707371Y-96659050D01*
X139907769Y-96767499D01*
X139907780Y-96767504D01*
X140123298Y-96841492D01*
X140348065Y-96879000D01*
X140575935Y-96879000D01*
X140800701Y-96841492D01*
X141016219Y-96767504D01*
X141016230Y-96767499D01*
X141216627Y-96659050D01*
X141216633Y-96659046D01*
X141242983Y-96638537D01*
X141242984Y-96638536D01*
X140747757Y-96143309D01*
X140793574Y-96124332D01*
X140908224Y-96047726D01*
X141005726Y-95950224D01*
X141082332Y-95835574D01*
X141101309Y-95789757D01*
X141595123Y-96283571D01*
X141675419Y-96160671D01*
X141766954Y-95951993D01*
X141822894Y-95731093D01*
X141822896Y-95731085D01*
X141841712Y-95504006D01*
X141841712Y-95503993D01*
X141822896Y-95276914D01*
X141822894Y-95276906D01*
X141766954Y-95056006D01*
X141675421Y-94847333D01*
X141595123Y-94724427D01*
X141101309Y-95218241D01*
X141082332Y-95172426D01*
X141005726Y-95057776D01*
X140908224Y-94960274D01*
X140793574Y-94883668D01*
X140747756Y-94864690D01*
X141242983Y-94369462D01*
X141216626Y-94348948D01*
X141016230Y-94240500D01*
X141016219Y-94240495D01*
X140800701Y-94166507D01*
X140575935Y-94129000D01*
X140348065Y-94129000D01*
X140123298Y-94166507D01*
X139907780Y-94240495D01*
X139907769Y-94240500D01*
X139707366Y-94348952D01*
X139681015Y-94369461D01*
X139681015Y-94369463D01*
X140176242Y-94864690D01*
X140130426Y-94883668D01*
X140015776Y-94960274D01*
X139918274Y-95057776D01*
X139841668Y-95172426D01*
X139822690Y-95218243D01*
X139328874Y-94724427D01*
X139248579Y-94847330D01*
X139157045Y-95056006D01*
X139101105Y-95276906D01*
X139101103Y-95276914D01*
X139082288Y-95503993D01*
X136345500Y-95503993D01*
X136345500Y-94580362D01*
X136345499Y-94580345D01*
X136342157Y-94549270D01*
X136338989Y-94519799D01*
X136335915Y-94511558D01*
X136316522Y-94459564D01*
X136287889Y-94382796D01*
X136200261Y-94265739D01*
X136083204Y-94178111D01*
X135946203Y-94127011D01*
X135885654Y-94120500D01*
X135885638Y-94120500D01*
X134038362Y-94120500D01*
X134038345Y-94120500D01*
X133977797Y-94127011D01*
X133977795Y-94127011D01*
X133840795Y-94178111D01*
X133723739Y-94265739D01*
X133636111Y-94382795D01*
X133585011Y-94519795D01*
X133585011Y-94519797D01*
X133578500Y-94580345D01*
X119973672Y-94580345D01*
X119885304Y-94511565D01*
X119885293Y-94511558D01*
X119683656Y-94402438D01*
X119683653Y-94402436D01*
X119683650Y-94402435D01*
X119683647Y-94402434D01*
X119683645Y-94402433D01*
X119466795Y-94327988D01*
X119240640Y-94290250D01*
X119011360Y-94290250D01*
X118785204Y-94327988D01*
X118568354Y-94402433D01*
X118568343Y-94402438D01*
X118366706Y-94511558D01*
X118366695Y-94511565D01*
X118185775Y-94652381D01*
X118185772Y-94652384D01*
X118030479Y-94821076D01*
X117905077Y-95013020D01*
X117812976Y-95222988D01*
X117756692Y-95445249D01*
X117756690Y-95445261D01*
X117737758Y-95673744D01*
X115009500Y-95673744D01*
X115009500Y-94750112D01*
X115009499Y-94750095D01*
X115006157Y-94719020D01*
X115002989Y-94689549D01*
X114951889Y-94552546D01*
X114864261Y-94435489D01*
X114747204Y-94347861D01*
X114610203Y-94296761D01*
X114549654Y-94290250D01*
X114549638Y-94290250D01*
X112702362Y-94290250D01*
X112702345Y-94290250D01*
X112641797Y-94296761D01*
X112641795Y-94296761D01*
X112504795Y-94347861D01*
X112387739Y-94435489D01*
X112300111Y-94552545D01*
X112249011Y-94689545D01*
X112249011Y-94689547D01*
X112242500Y-94750095D01*
X112242500Y-95678648D01*
X112222815Y-95745687D01*
X112206181Y-95766329D01*
X110889684Y-97082826D01*
X109556985Y-98415525D01*
X109556982Y-98415528D01*
X109519599Y-98452911D01*
X109426261Y-98546248D01*
X109426260Y-98546250D01*
X109364691Y-98638393D01*
X109345698Y-98666817D01*
X109322868Y-98700986D01*
X109321219Y-98705595D01*
X109252808Y-98870754D01*
X109252805Y-98870766D01*
X109216741Y-99052070D01*
X109216741Y-103450311D01*
X109197056Y-103517350D01*
X109180422Y-103537992D01*
X109178264Y-103540149D01*
X109050755Y-103722251D01*
X109050753Y-103722255D01*
X108956802Y-103923732D01*
X108899263Y-104138467D01*
X108899262Y-104138474D01*
X108879888Y-104359929D01*
X96545500Y-104359929D01*
X96545500Y-100197345D01*
X103293500Y-100197345D01*
X103293500Y-102494654D01*
X103300011Y-102555202D01*
X103300011Y-102555204D01*
X103351111Y-102692204D01*
X103438739Y-102809261D01*
X103555796Y-102896889D01*
X103692799Y-102947989D01*
X103720050Y-102950918D01*
X103753345Y-102954499D01*
X103753362Y-102954500D01*
X106050638Y-102954500D01*
X106050654Y-102954499D01*
X106077692Y-102951591D01*
X106111201Y-102947989D01*
X106248204Y-102896889D01*
X106365261Y-102809261D01*
X106452889Y-102692204D01*
X106503989Y-102555201D01*
X106507591Y-102521692D01*
X106510499Y-102494654D01*
X106510500Y-102494637D01*
X106510500Y-100197362D01*
X106510499Y-100197345D01*
X106507157Y-100166270D01*
X106503989Y-100136799D01*
X106452889Y-99999796D01*
X106365261Y-99882739D01*
X106248204Y-99795111D01*
X106111203Y-99744011D01*
X106050654Y-99737500D01*
X106050638Y-99737500D01*
X103753362Y-99737500D01*
X103753345Y-99737500D01*
X103692797Y-99744011D01*
X103692795Y-99744011D01*
X103555795Y-99795111D01*
X103438739Y-99882739D01*
X103351111Y-99999795D01*
X103300011Y-100136795D01*
X103300011Y-100136797D01*
X103293500Y-100197345D01*
X96545500Y-100197345D01*
X96545500Y-93217996D01*
X98573162Y-93217996D01*
X98573162Y-93218003D01*
X98592504Y-93648692D01*
X98592505Y-93648701D01*
X98650378Y-94075938D01*
X98746313Y-94496258D01*
X98879542Y-94906296D01*
X98879545Y-94906304D01*
X99048985Y-95302730D01*
X99048989Y-95302738D01*
X99253294Y-95682399D01*
X99490799Y-96042207D01*
X99490800Y-96042208D01*
X99759608Y-96379282D01*
X99810223Y-96432221D01*
X101691097Y-94551347D01*
X101758076Y-94638635D01*
X101957365Y-94837924D01*
X102044651Y-94904901D01*
X100164877Y-96784675D01*
X100382227Y-96974569D01*
X100382244Y-96974582D01*
X100731024Y-97227986D01*
X101101140Y-97449120D01*
X101101146Y-97449123D01*
X101489569Y-97636178D01*
X101489583Y-97636184D01*
X101893209Y-97787667D01*
X101893234Y-97787675D01*
X102308816Y-97902369D01*
X102733023Y-97979351D01*
X103162435Y-98017999D01*
X103162438Y-98018000D01*
X103593562Y-98018000D01*
X103593564Y-98017999D01*
X104022976Y-97979351D01*
X104447183Y-97902369D01*
X104862765Y-97787675D01*
X104862790Y-97787667D01*
X105266416Y-97636184D01*
X105266430Y-97636178D01*
X105654853Y-97449123D01*
X105654859Y-97449120D01*
X106024975Y-97227986D01*
X106373755Y-96974582D01*
X106373772Y-96974569D01*
X106591121Y-96784675D01*
X104711348Y-94904901D01*
X104798635Y-94837924D01*
X104997924Y-94638635D01*
X105064901Y-94551348D01*
X106945775Y-96432222D01*
X106945776Y-96432222D01*
X106996386Y-96379289D01*
X106996386Y-96379288D01*
X107265199Y-96042208D01*
X107265200Y-96042207D01*
X107502705Y-95682399D01*
X107707010Y-95302738D01*
X107707014Y-95302730D01*
X107876454Y-94906304D01*
X107876457Y-94906296D01*
X108009686Y-94496258D01*
X108105621Y-94075938D01*
X108163494Y-93648701D01*
X108163495Y-93648692D01*
X108182838Y-93218003D01*
X108182838Y-93217996D01*
X144801162Y-93217996D01*
X144801162Y-93218003D01*
X144820504Y-93648692D01*
X144820505Y-93648701D01*
X144878378Y-94075938D01*
X144974313Y-94496258D01*
X145107542Y-94906296D01*
X145107545Y-94906304D01*
X145276985Y-95302730D01*
X145276989Y-95302738D01*
X145481294Y-95682399D01*
X145718799Y-96042207D01*
X145718800Y-96042208D01*
X145987608Y-96379282D01*
X146038223Y-96432221D01*
X147919097Y-94551347D01*
X147986076Y-94638635D01*
X148185365Y-94837924D01*
X148272651Y-94904901D01*
X146392877Y-96784675D01*
X146610227Y-96974569D01*
X146610244Y-96974582D01*
X146959024Y-97227986D01*
X147329140Y-97449120D01*
X147329146Y-97449123D01*
X147717569Y-97636178D01*
X147717583Y-97636184D01*
X148121209Y-97787667D01*
X148121234Y-97787675D01*
X148536816Y-97902369D01*
X148961023Y-97979351D01*
X149390435Y-98017999D01*
X149390438Y-98018000D01*
X149821562Y-98018000D01*
X149821564Y-98017999D01*
X150250976Y-97979351D01*
X150675183Y-97902369D01*
X151090765Y-97787675D01*
X151090790Y-97787667D01*
X151494416Y-97636184D01*
X151494430Y-97636178D01*
X151882853Y-97449123D01*
X151882859Y-97449120D01*
X152252975Y-97227986D01*
X152601755Y-96974582D01*
X152601772Y-96974569D01*
X152819121Y-96784675D01*
X150939348Y-94904901D01*
X151026635Y-94837924D01*
X151225924Y-94638635D01*
X151292901Y-94551348D01*
X153173775Y-96432222D01*
X153173776Y-96432222D01*
X153224386Y-96379289D01*
X153224386Y-96379288D01*
X153493199Y-96042208D01*
X153493200Y-96042207D01*
X153730705Y-95682399D01*
X153935010Y-95302738D01*
X153935014Y-95302730D01*
X154104454Y-94906304D01*
X154104457Y-94906296D01*
X154237686Y-94496258D01*
X154333621Y-94075938D01*
X154391494Y-93648701D01*
X154391495Y-93648692D01*
X154410838Y-93218003D01*
X154410838Y-93217996D01*
X154391495Y-92787307D01*
X154391494Y-92787298D01*
X154333621Y-92360061D01*
X154237686Y-91939741D01*
X154104457Y-91529703D01*
X154104454Y-91529695D01*
X153935014Y-91133269D01*
X153935010Y-91133261D01*
X153730705Y-90753600D01*
X153493200Y-90393792D01*
X153493199Y-90393791D01*
X153224391Y-90056717D01*
X153173774Y-90003776D01*
X151292900Y-91884650D01*
X151225924Y-91797365D01*
X151026635Y-91598076D01*
X150939346Y-91531097D01*
X152819121Y-89651323D01*
X152601772Y-89461430D01*
X152601755Y-89461417D01*
X152252975Y-89208013D01*
X151882859Y-88986879D01*
X151882853Y-88986876D01*
X151494430Y-88799821D01*
X151494416Y-88799815D01*
X151090790Y-88648332D01*
X151090765Y-88648324D01*
X150675183Y-88533630D01*
X150250976Y-88456648D01*
X149821564Y-88418000D01*
X149390435Y-88418000D01*
X148961023Y-88456648D01*
X148536816Y-88533630D01*
X148121234Y-88648324D01*
X148121209Y-88648332D01*
X147717583Y-88799815D01*
X147717569Y-88799821D01*
X147329146Y-88986876D01*
X147329140Y-88986879D01*
X146959024Y-89208013D01*
X146610235Y-89461423D01*
X146392877Y-89651322D01*
X146392877Y-89651323D01*
X148272652Y-91531098D01*
X148185365Y-91598076D01*
X147986076Y-91797365D01*
X147919098Y-91884651D01*
X146038223Y-90003777D01*
X145987624Y-90056699D01*
X145987612Y-90056712D01*
X145718800Y-90393791D01*
X145718799Y-90393792D01*
X145481294Y-90753600D01*
X145276989Y-91133261D01*
X145276985Y-91133269D01*
X145107545Y-91529695D01*
X145107542Y-91529703D01*
X144974313Y-91939741D01*
X144878378Y-92360061D01*
X144820505Y-92787298D01*
X144820504Y-92787307D01*
X144801162Y-93217996D01*
X108182838Y-93217996D01*
X108163495Y-92787307D01*
X108163494Y-92787298D01*
X108105621Y-92360061D01*
X108009686Y-91939741D01*
X107876457Y-91529703D01*
X107876454Y-91529695D01*
X107707014Y-91133269D01*
X107707010Y-91133261D01*
X107502705Y-90753600D01*
X107265200Y-90393792D01*
X107265199Y-90393791D01*
X106996391Y-90056717D01*
X106945774Y-90003776D01*
X105064900Y-91884650D01*
X104997924Y-91797365D01*
X104798635Y-91598076D01*
X104711346Y-91531097D01*
X106591121Y-89651323D01*
X106373772Y-89461430D01*
X106373755Y-89461417D01*
X106024975Y-89208013D01*
X105654859Y-88986879D01*
X105654853Y-88986876D01*
X105266430Y-88799821D01*
X105266416Y-88799815D01*
X104862790Y-88648332D01*
X104862765Y-88648324D01*
X104447183Y-88533630D01*
X104022976Y-88456648D01*
X103593564Y-88418000D01*
X103162435Y-88418000D01*
X102733023Y-88456648D01*
X102308816Y-88533630D01*
X101893234Y-88648324D01*
X101893209Y-88648332D01*
X101489583Y-88799815D01*
X101489569Y-88799821D01*
X101101146Y-88986876D01*
X101101140Y-88986879D01*
X100731024Y-89208013D01*
X100382235Y-89461423D01*
X100164877Y-89651322D01*
X100164877Y-89651323D01*
X102044652Y-91531098D01*
X101957365Y-91598076D01*
X101758076Y-91797365D01*
X101691098Y-91884651D01*
X99810224Y-90003777D01*
X99810223Y-90003777D01*
X99759624Y-90056699D01*
X99759612Y-90056712D01*
X99490800Y-90393791D01*
X99490799Y-90393792D01*
X99253294Y-90753600D01*
X99048989Y-91133261D01*
X99048985Y-91133269D01*
X98879545Y-91529695D01*
X98879542Y-91529703D01*
X98746313Y-91939741D01*
X98650378Y-92360061D01*
X98592505Y-92787298D01*
X98592504Y-92787307D01*
X98573162Y-93217996D01*
X96545500Y-93217996D01*
X96545500Y-84706000D01*
X96565185Y-84638961D01*
X96617989Y-84593206D01*
X96669500Y-84582000D01*
X156340000Y-84582000D01*
X156407039Y-84601685D01*
G37*
%TD.AperFunction*%
%TD*%
M02*
